SplineFontDB: 3.0
FontName: Cutive-Mono-Bold
FullName: Cutive Mono Bold
FamilyName: Cutive Mono
Weight: Bold
Copyright: Copyright (c) 2012, vernon adams (vern@newtypography.co.uk), with Reserved Font Names "Cutive"
Version: 1.002
ItalicAngle: 0
UnderlinePosition: -435
UnderlineWidth: 0
Ascent: 1638
Descent: 410
UFOAscent: 1705
UFODescent: -615
LayerCount: 2
Layer: 0 0 "Back"  1
Layer: 1 0 "Fore"  0
FSType: 0
OS2Version: 0
OS2_WeightWidthSlopeOnly: 0
OS2_UseTypoMetrics: 0
CreationTime: 1350328569
ModificationTime: 1350328756
PfmFamily: 17
TTFWeight: 700
TTFWidth: 5
LineGap: 0
VLineGap: 0
Panose: 2 0 5 3 0 0 0 0 0 0
OS2TypoAscent: 1705
OS2TypoAOffset: 0
OS2TypoDescent: -615
OS2TypoDOffset: 0
OS2TypoLinegap: 0
OS2WinAscent: 1705
OS2WinAOffset: 0
OS2WinDescent: 615
OS2WinDOffset: 0
HheadAscent: 1705
HheadAOffset: 0
HheadDescent: -615
HheadDOffset: 0
OS2SubXSize: 1434
OS2SubYSize: 1331
OS2SubXOff: 0
OS2SubYOff: 285
OS2SupXSize: 1434
OS2SupYSize: 1331
OS2SupXOff: 0
OS2SupYOff: 865
OS2StrikeYSize: 102
OS2StrikeYPos: 530
OS2Vendor: 'newt'
OS2CodePages: 00000093.00000000
OS2UnicodeRanges: 000000ef.0000004f.00000002.00000000
MarkAttachClasses: 1
DEI: 91125
LangName: 1033 "" "" "" "" "" "Version 1.002" "" "" "" "Vernon Adams" "" "newtypography.co.uk" "newtypography.co.uk" "This Font Software is licensed under the SIL Open Font License, Version 1.1. This license is available with a FAQ at: http://scripts.sil.org/OFL" "http://scripts.sil.org/OFL" 
PickledData: "(dp1
S'com.typemytype.robofont.compileSettings.autohint'
p2
I01
sS'com.typemytype.robofont.compileSettings.decompose'
p3
I01
sS'public.glyphOrder'
p4
(S'A'
S'Agrave'
S'Aacute'
S'Acircumflex'
S'Atilde'
S'Adieresis'
S'Aring'
S'Amacron'
S'Abreve'
S'Aogonek'
S'uni0200'
S'uni0202'
S'B'
S'uni1E02'
S'C'
S'Ccedilla'
S'Cacute'
S'Ccircumflex'
S'Cdotaccent'
S'Ccaron'
S'D'
S'Dcaron'
S'uni1E0A'
S'E'
S'Egrave'
S'Eacute'
S'Ecircumflex'
S'Edieresis'
S'Emacron'
S'Ebreve'
S'Edotaccent'
S'Eogonek'
S'Ecaron'
S'uni0204'
S'uni0206'
S'F'

StartChar: .notdef
Encoding: 65536 -1 0
Width: 1024
VWidth: 0
Flags: W
PickledData: "(dp1
S'com.typemytype.robofont.layerData'
p2
(dp3
s."
LayerCount: 2
Fore
SplineSet
102 0 m 1
 922 0 l 1
 922 1092 l 1
 102 1092 l 1
 102 0 l 1
204 102 m 1
 204 990 l 1
 820 990 l 1
 820 102 l 1
 204 102 l 1
EndSplineSet
EndChar

StartChar: A
Encoding: 65 65 1
Width: 1240
VWidth: 0
Flags: W
PickledData: "(dp1
S'com.typemytype.robofont.layerData'
p2
(dp3
s."
LayerCount: 2
Fore
SplineSet
582 1204 m 1
 552 1204 l 1
 403 1204 l 2
 368 1204 354 1175 354 1141 c 0
 354 1111 372 1084 404 1084 c 2
 708 1084 l 2
 740 1084 759 1111 759 1141 c 0
 759 1175 744 1204 709 1204 c 2
 582 1204 l 1
79 57 m 0
 79 27 97 0 129 0 c 2
 500 0 l 2
 532 0 551 27 551 57 c 0
 551 91 536 120 501 120 c 2
 374 120 l 1
 472 387 l 1
 907 387 l 1
 1008 120 l 1
 858 120 l 2
 823 120 809 91 809 57 c 0
 809 27 828 0 860 0 c 2
 1260 0 l 2
 1292 0 1310 27 1310 57 c 0
 1310 91 1297 120 1262 120 c 2
 1180 120 l 1
 790 1139 l 2
 777 1173 755 1204 709 1204 c 0
 665 1204 638 1173 625 1141 c 2
 223 120 l 1
 128 120 l 2
 93 120 79 91 79 57 c 0
504 492 m 1
 703 1014 l 1
 878 492 l 1
 504 492 l 1
EndSplineSet
EndChar

StartChar: AE
Encoding: 198 198 2
Width: 1240
VWidth: 0
Flags: W
PickledData: "(dp1
S'com.typemytype.robofont.layerData'
p2
(dp3
s."
LayerCount: 2
Fore
SplineSet
-53 51 m 0
 -53 24 -38 0 -9 0 c 2
 360 0 l 2
 401 0 430 28 430 66 c 0
 430 97 407 120 374 120 c 2
 247 120 l 1
 413 387 l 1
 911 387 l 1
 955 120 l 1
 800 120 l 2
 764 120 745 86 745 53 c 0
 745 24 759 0 790 0 c 2
 1794 0 l 2
 1825 0 1837 18 1840 53 c 1
 1840 320 l 1
 1838 325 1837 329 1837 333 c 2
 1837 347 l 1
 1832 376 1809 398 1777 398 c 0
 1744 398 1726 376 1718 346 c 1
 1675 120 l 1
 1122 120 l 1
 1042 562 l 1
 1259 562 l 1
 1317 435 l 2
 1328 411 1347 389 1377 389 c 0
 1404 389 1418 404 1418 434 c 2
 1418 443 l 1
 1377 614 l 1
 1359 779 l 2
 1356 810 1333 834 1300 834 c 0
 1273 834 1257 814 1254 787 c 2
 1242 660 l 1
 1023 660 l 1
 952 1050 l 1
 1573 1050 l 1
 1619 876 l 2
 1628 843 1657 824 1697 824 c 0
 1727 824 1742 844 1742 872 c 0
 1742 934 1696 1171 1617 1171 c 2
 906 1171 l 2
 835 1171 793 1170 762 1126 c 1
 96 120 l 1
 2 120 l 2
 -31 120 -53 83 -53 51 c 0
477 492 m 1
 809 1024 l 1
 895 492 l 1
 477 492 l 1
EndSplineSet
EndChar

StartChar: Aacute
Encoding: 193 193 3
Width: 1240
VWidth: 0
Flags: W
PickledData: "(dp1
S'com.typemytype.robofont.layerData'
p2
(dp3
s."
LayerCount: 2
Fore
SplineSet
1001 1628 m 0
 990 1628 981 1625 973 1618 c 0
 880 1538 768 1450 666 1382 c 0
 658 1377 654 1371 654 1361 c 0
 654 1344 670 1326 688 1326 c 0
 691 1326 696 1327 701 1330 c 0
 812 1394 933 1472 1041 1540 c 0
 1053 1548 1058 1559 1058 1571 c 0
 1058 1599 1030 1628 1001 1628 c 0
582 1204 m 1
 552 1204 l 1
 403 1204 l 2
 368 1204 354 1175 354 1141 c 0
 354 1111 372 1084 404 1084 c 2
 708 1084 l 2
 740 1084 759 1111 759 1141 c 0
 759 1175 744 1204 709 1204 c 2
 582 1204 l 1
79 57 m 0
 79 27 97 0 129 0 c 2
 500 0 l 2
 532 0 551 27 551 57 c 0
 551 91 536 120 501 120 c 2
 374 120 l 1
 472 387 l 1
 907 387 l 1
 1008 120 l 1
 858 120 l 2
 823 120 809 91 809 57 c 0
 809 27 828 0 860 0 c 2
 1260 0 l 2
 1292 0 1310 27 1310 57 c 0
 1310 91 1297 120 1262 120 c 2
 1180 120 l 1
 790 1139 l 2
 777 1173 755 1204 709 1204 c 0
 665 1204 638 1173 625 1141 c 2
 223 120 l 1
 128 120 l 2
 93 120 79 91 79 57 c 0
504 492 m 1
 703 1014 l 1
 878 492 l 1
 504 492 l 1
EndSplineSet
EndChar

StartChar: Abreve
Encoding: 258 258 4
Width: 1240
VWidth: 0
Flags: W
PickledData: "(dp1
S'com.typemytype.robofont.layerData'
p2
(dp3
s."
LayerCount: 2
Fore
SplineSet
560 1544 m 0
 556 1555 547 1558 538 1558 c 0
 520 1558 500 1541 500 1526 c 0
 500 1382 601 1310 702 1310 c 0
 803 1310 905 1382 905 1526 c 0
 905 1541 885 1558 867 1558 c 0
 858 1558 848 1555 844 1544 c 0
 813 1462 757 1421 702 1421 c 0
 647 1421 591 1462 560 1544 c 0
582 1204 m 1
 552 1204 l 1
 403 1204 l 2
 368 1204 354 1175 354 1141 c 0
 354 1111 372 1084 404 1084 c 2
 708 1084 l 2
 740 1084 759 1111 759 1141 c 0
 759 1175 744 1204 709 1204 c 2
 582 1204 l 1
79 57 m 0
 79 27 97 0 129 0 c 2
 500 0 l 2
 532 0 551 27 551 57 c 0
 551 91 536 120 501 120 c 2
 374 120 l 1
 472 387 l 1
 907 387 l 1
 1008 120 l 1
 858 120 l 2
 823 120 809 91 809 57 c 0
 809 27 828 0 860 0 c 2
 1260 0 l 2
 1292 0 1310 27 1310 57 c 0
 1310 91 1297 120 1262 120 c 2
 1180 120 l 1
 790 1139 l 2
 777 1173 755 1204 709 1204 c 0
 665 1204 638 1173 625 1141 c 2
 223 120 l 1
 128 120 l 2
 93 120 79 91 79 57 c 0
504 492 m 1
 703 1014 l 1
 878 492 l 1
 504 492 l 1
EndSplineSet
EndChar

StartChar: Acircumflex
Encoding: 194 194 5
Width: 1240
VWidth: 0
Flags: W
PickledData: "(dp1
S'com.typemytype.robofont.layerData'
p2
(dp3
s."
LayerCount: 2
Fore
SplineSet
694 1667 m 0
 681 1667 668 1663 663 1655 c 2
 479 1372 l 1
 474 1367 472 1360 472 1355 c 0
 472 1339 491 1326 509 1326 c 0
 517 1326 527 1327 532 1335 c 2
 694 1544 l 1
 857 1335 l 2
 862 1327 872 1326 880 1326 c 0
 898 1326 917 1339 917 1355 c 0
 917 1360 915 1367 910 1372 c 1
 726 1655 l 2
 721 1663 707 1667 694 1667 c 0
582 1204 m 1
 552 1204 l 1
 403 1204 l 2
 368 1204 354 1175 354 1141 c 0
 354 1111 372 1084 404 1084 c 2
 708 1084 l 2
 740 1084 759 1111 759 1141 c 0
 759 1175 744 1204 709 1204 c 2
 582 1204 l 1
79 57 m 0
 79 27 97 0 129 0 c 2
 500 0 l 2
 532 0 551 27 551 57 c 0
 551 91 536 120 501 120 c 2
 374 120 l 1
 472 387 l 1
 907 387 l 1
 1008 120 l 1
 858 120 l 2
 823 120 809 91 809 57 c 0
 809 27 828 0 860 0 c 2
 1260 0 l 2
 1292 0 1310 27 1310 57 c 0
 1310 91 1297 120 1262 120 c 2
 1180 120 l 1
 790 1139 l 2
 777 1173 755 1204 709 1204 c 0
 665 1204 638 1173 625 1141 c 2
 223 120 l 1
 128 120 l 2
 93 120 79 91 79 57 c 0
504 492 m 1
 703 1014 l 1
 878 492 l 1
 504 492 l 1
EndSplineSet
EndChar

StartChar: Adieresis
Encoding: 196 196 6
Width: 1240
VWidth: 0
Flags: W
PickledData: "(dp1
S'com.typemytype.robofont.layerData'
p2
(dp3
s."
LayerCount: 2
Fore
SplineSet
527 1326 m 0
 577 1326 618 1367 618 1417 c 0
 618 1467 577 1508 527 1508 c 0
 477 1508 436 1467 436 1417 c 0
 436 1367 477 1326 527 1326 c 0
862 1326 m 0
 912 1326 953 1367 953 1417 c 0
 953 1467 912 1508 862 1508 c 0
 812 1508 772 1467 772 1417 c 0
 772 1367 812 1326 862 1326 c 0
582 1204 m 1
 552 1204 l 1
 403 1204 l 2
 368 1204 354 1175 354 1141 c 0
 354 1111 372 1084 404 1084 c 2
 708 1084 l 2
 740 1084 759 1111 759 1141 c 0
 759 1175 744 1204 709 1204 c 2
 582 1204 l 1
79 57 m 0
 79 27 97 0 129 0 c 2
 500 0 l 2
 532 0 551 27 551 57 c 0
 551 91 536 120 501 120 c 2
 374 120 l 1
 472 387 l 1
 907 387 l 1
 1008 120 l 1
 858 120 l 2
 823 120 809 91 809 57 c 0
 809 27 828 0 860 0 c 2
 1260 0 l 2
 1292 0 1310 27 1310 57 c 0
 1310 91 1297 120 1262 120 c 2
 1180 120 l 1
 790 1139 l 2
 777 1173 755 1204 709 1204 c 0
 665 1204 638 1173 625 1141 c 2
 223 120 l 1
 128 120 l 2
 93 120 79 91 79 57 c 0
504 492 m 1
 703 1014 l 1
 878 492 l 1
 504 492 l 1
EndSplineSet
EndChar

StartChar: Agrave
Encoding: 192 192 7
Width: 1240
VWidth: 0
Flags: W
PickledData: "(dp1
S'com.typemytype.robofont.layerData'
p2
(dp3
s."
LayerCount: 2
Fore
SplineSet
733.5 1361 m 0
 733.5 1371 731.5 1377 723.5 1382 c 0
 621.5 1450 508.5 1538 415.5 1618 c 0
 407.5 1625 398.5 1628 387.5 1628 c 0
 358.5 1628 329.5 1599 329.5 1571 c 0
 329.5 1559 336.5 1548 348.5 1540 c 0
 455.5 1473 577.5 1394 688.5 1330 c 1
 691.5 1327 695.5 1326 700.5 1326 c 0
 718.5 1326 733.5 1344 733.5 1361 c 0
582 1204 m 1
 552 1204 l 1
 403 1204 l 2
 368 1204 354 1175 354 1141 c 0
 354 1111 372 1084 404 1084 c 2
 708 1084 l 2
 740 1084 759 1111 759 1141 c 0
 759 1175 744 1204 709 1204 c 2
 582 1204 l 1
79 57 m 0
 79 27 97 0 129 0 c 2
 500 0 l 2
 532 0 551 27 551 57 c 0
 551 91 536 120 501 120 c 2
 374 120 l 1
 472 387 l 1
 907 387 l 1
 1008 120 l 1
 858 120 l 2
 823 120 809 91 809 57 c 0
 809 27 828 0 860 0 c 2
 1260 0 l 2
 1292 0 1310 27 1310 57 c 0
 1310 91 1297 120 1262 120 c 2
 1180 120 l 1
 790 1139 l 2
 777 1173 755 1204 709 1204 c 0
 665 1204 638 1173 625 1141 c 2
 223 120 l 1
 128 120 l 2
 93 120 79 91 79 57 c 0
504 492 m 1
 703 1014 l 1
 878 492 l 1
 504 492 l 1
EndSplineSet
EndChar

StartChar: Amacron
Encoding: 256 256 8
Width: 1240
VWidth: 0
Flags: W
PickledData: "(dp1
S'com.typemytype.robofont.layerData'
p2
(dp3
s."
LayerCount: 2
Fore
SplineSet
889 1349 m 2
 922 1349 940 1376 940 1403 c 0
 940 1430 923 1456 890 1456 c 2
 523 1456 l 2
 489 1456 471 1430 471 1403 c 0
 471 1376 489 1349 527 1349 c 2
 889 1349 l 2
582 1204 m 1
 552 1204 l 1
 403 1204 l 2
 368 1204 354 1175 354 1141 c 0
 354 1111 372 1084 404 1084 c 2
 708 1084 l 2
 740 1084 759 1111 759 1141 c 0
 759 1175 744 1204 709 1204 c 2
 582 1204 l 1
79 57 m 0
 79 27 97 0 129 0 c 2
 500 0 l 2
 532 0 551 27 551 57 c 0
 551 91 536 120 501 120 c 2
 374 120 l 1
 472 387 l 1
 907 387 l 1
 1008 120 l 1
 858 120 l 2
 823 120 809 91 809 57 c 0
 809 27 828 0 860 0 c 2
 1260 0 l 2
 1292 0 1310 27 1310 57 c 0
 1310 91 1297 120 1262 120 c 2
 1180 120 l 1
 790 1139 l 2
 777 1173 755 1204 709 1204 c 0
 665 1204 638 1173 625 1141 c 2
 223 120 l 1
 128 120 l 2
 93 120 79 91 79 57 c 0
504 492 m 1
 703 1014 l 1
 878 492 l 1
 504 492 l 1
EndSplineSet
EndChar

StartChar: Aogonek
Encoding: 260 260 9
Width: 1240
VWidth: 0
Flags: W
PickledData: "(dp1
S'com.typemytype.robofont.layerData'
p2
(dp3
s."
LayerCount: 2
Fore
SplineSet
1105 -352 m 0
 1169 -352 1227 -310 1227 -275 c 0
 1227 -234 1133 -252 1133 -176 c 0
 1133 -111 1215 20 1209 20 c 2
 1155 20 l 1
 1039 -76 994 -196 994 -245 c 0
 994 -324 1042 -352 1105 -352 c 0
582 1204 m 1
 552 1204 l 1
 403 1204 l 2
 368 1204 354 1175 354 1141 c 0
 354 1111 372 1084 404 1084 c 2
 708 1084 l 2
 740 1084 759 1111 759 1141 c 0
 759 1175 744 1204 709 1204 c 2
 582 1204 l 1
79 57 m 0
 79 27 97 0 129 0 c 2
 500 0 l 2
 532 0 551 27 551 57 c 0
 551 91 536 120 501 120 c 2
 374 120 l 1
 472 387 l 1
 907 387 l 1
 1008 120 l 1
 858 120 l 2
 823 120 809 91 809 57 c 0
 809 27 828 0 860 0 c 2
 1260 0 l 2
 1292 0 1310 27 1310 57 c 0
 1310 91 1297 120 1262 120 c 2
 1180 120 l 1
 790 1139 l 2
 777 1173 755 1204 709 1204 c 0
 665 1204 638 1173 625 1141 c 2
 223 120 l 1
 128 120 l 2
 93 120 79 91 79 57 c 0
504 492 m 1
 703 1014 l 1
 878 492 l 1
 504 492 l 1
EndSplineSet
EndChar

StartChar: Aring
Encoding: 197 197 10
Width: 1240
VWidth: 0
Flags: W
PickledData: "(dp1
S'com.typemytype.robofont.layerData'
p2
(dp3
s."
LayerCount: 2
Fore
SplineSet
697 1532.67 m 0
 583 1532.67 523 1446.67 523 1360.67 c 0
 523 1276.67 581 1192.67 694 1192.67 c 0
 807 1192.67 866 1278.67 866 1363.67 c 0
 866 1448.67 810 1532.67 697 1532.67 c 0
699 1257.67 m 0
 636 1257.67 599 1306.67 599 1361.67 c 0
 599 1417.67 630 1466.67 696 1466.67 c 0
 761 1466.67 793 1417.67 793 1361.67 c 0
 793 1305.67 763 1257.67 699 1257.67 c 0
582 1204 m 1
 552 1204 l 1
 403 1204 l 2
 368 1204 354 1175 354 1141 c 0
 354 1111 372 1084 404 1084 c 2
 708 1084 l 2
 740 1084 759 1111 759 1141 c 0
 759 1175 744 1204 709 1204 c 2
 582 1204 l 1
79 57 m 0
 79 27 97 0 129 0 c 2
 500 0 l 2
 532 0 551 27 551 57 c 0
 551 91 536 120 501 120 c 2
 374 120 l 1
 472 387 l 1
 907 387 l 1
 1008 120 l 1
 858 120 l 2
 823 120 809 91 809 57 c 0
 809 27 828 0 860 0 c 2
 1260 0 l 2
 1292 0 1310 27 1310 57 c 0
 1310 91 1297 120 1262 120 c 2
 1180 120 l 1
 790 1139 l 2
 777 1173 755 1204 709 1204 c 0
 665 1204 638 1173 625 1141 c 2
 223 120 l 1
 128 120 l 2
 93 120 79 91 79 57 c 0
504 492 m 1
 703 1014 l 1
 878 492 l 1
 504 492 l 1
EndSplineSet
EndChar

StartChar: Atilde
Encoding: 195 195 11
Width: 1240
VWidth: 0
Flags: W
PickledData: "(dp1
S'com.typemytype.robofont.layerData'
p2
(dp3
s."
LayerCount: 2
Fore
SplineSet
445 1363 m 0
 445 1338 468 1326 495 1326 c 0
 523 1326 523 1423 581 1423 c 0
 634 1423 711 1326 790 1326 c 0
 876 1326 944 1401 944 1507 c 0
 944 1532 921 1544 894 1544 c 0
 861 1544 859 1447 798 1447 c 0
 760 1447 681 1544 575 1544 c 0
 503 1544 445 1469 445 1363 c 0
582 1204 m 1
 552 1204 l 1
 403 1204 l 2
 368 1204 354 1175 354 1141 c 0
 354 1111 372 1084 404 1084 c 2
 708 1084 l 2
 740 1084 759 1111 759 1141 c 0
 759 1175 744 1204 709 1204 c 2
 582 1204 l 1
79 57 m 0
 79 27 97 0 129 0 c 2
 500 0 l 2
 532 0 551 27 551 57 c 0
 551 91 536 120 501 120 c 2
 374 120 l 1
 472 387 l 1
 907 387 l 1
 1008 120 l 1
 858 120 l 2
 823 120 809 91 809 57 c 0
 809 27 828 0 860 0 c 2
 1260 0 l 2
 1292 0 1310 27 1310 57 c 0
 1310 91 1297 120 1262 120 c 2
 1180 120 l 1
 790 1139 l 2
 777 1173 755 1204 709 1204 c 0
 665 1204 638 1173 625 1141 c 2
 223 120 l 1
 128 120 l 2
 93 120 79 91 79 57 c 0
504 492 m 1
 703 1014 l 1
 878 492 l 1
 504 492 l 1
EndSplineSet
EndChar

StartChar: B
Encoding: 66 66 12
Width: 1240
VWidth: 0
InSpiro: 1
Flags: W
PickledData: "(dp1
S'com.typemytype.robofont.layerData'
p2
(dp3
s."
LayerCount: 2
Fore
SplineSet
1078 348 m 0
 1078 548 959 639 817 660 c 1
 906 684 981 759 981 874 c 0
 981 1103 791 1171 566 1171 c 2
 210 1171 l 2
 175 1171 162 1142 162 1108 c 0
 162 1078 179 1050 211 1050 c 2
 357 1050 l 1
 357 120 l 1
 217 120 l 2
 182 120 167 91 167 57 c 0
 167 27 186 0 218 0 c 2
 576 0 l 2
 826 0 1078 99 1078 348 c 0
  Spiro
    1078 348 o
    1041.96 512.979 o
    947.662 614.294 o
    817 660 v
    899.001 700.536 o
    958.302 772.828 o
    981 874 o
    923.517 1052.65 o
    773.408 1144.94 o
    566 1171 [
    210 1171 ]
    182.021 1162.24 o
    166.657 1139.42 o
    162 1108 o
    167.581 1079.66 o
    184.096 1058.35 o
    211 1050 [
    357 1050 v
    357 120 v
    217 120 ]
    188.504 111.239 o
    172.175 88.4164 o
    167 57 o
    173.099 28.9142 o
    190.578 8.09578 o
    218 0 [
    576 0 ]
    817.036 34.8173 o
    1003.55 147.266 o
    0 0 z
  EndSpiro
907 363 m 0
 907 179 771 120 579 120 c 2
 517 120 l 1
 517 577 l 1
 603 577 l 2
 761 577 907 557 907 363 c 0
  Spiro
    907 363 o
    864.711 218.33 o
    749.225 142.064 o
    579 120 [
    517 120 v
    517 577 v
    603 577 ]
    751.902 564.66 o
    863.379 504.609 o
    0 0 z
  EndSpiro
844 865 m 0
 844 739 724 689 603 689 c 2
 517 689 l 1
 517 1050 l 1
 579 1050 l 2
 737 1050 844 1005 844 865 c 0
  Spiro
    844 865 o
    808.474 763.449 o
    719.152 706.593 o
    603 689 [
    517 689 v
    517 1050 v
    579 1050 ]
    717.808 1033.18 o
    810.472 975.103 o
    0 0 z
  EndSpiro
EndSplineSet
EndChar

StartChar: C
Encoding: 67 67 13
Width: 1240
VWidth: 0
Flags: W
PickledData: "(dp1
S'com.typemytype.robofont.layerData'
p2
(dp3
s."
LayerCount: 2
Fore
SplineSet
1136 360 m 0
 1136.48 363.324 1136.71 366.54 1136.71 369.643 c 0
 1136.71 406.046 1105.12 426.999 1072.77 426.999 c 0
 1043.7 426.999 1012.71 410.218 999 373 c 1
 947.545 204.25 809.266 118.07 667.271 118.07 c 0
 487.32 118.07 301 275.736 301 600 c 0
 301 866 443.241 1059 676 1059 c 0
 834.352 1059 974.258 947.822 989 827 c 0
 995.301 778.167 1028.35 753.298 1058.31 753.298 c 0
 1085.42 753.298 1110 773.642 1110 815 c 2
 1110 1120 l 2
 1110 1152 1083 1171 1053 1171 c 0
 1019 1171 990 1156 990 1121 c 2
 990 1030 l 1
 929 1119.17 807 1188 658 1188 c 0
 349.844 1188 122 955 122 607 c 0
 122 225 350.739 -17 659 -17 c 0
 950.131 -17 1111.34 179.216 1136 360 c 0
EndSplineSet
EndChar

StartChar: Cacute
Encoding: 262 262 14
Width: 1240
VWidth: 0
Flags: W
PickledData: "(dp1
S'com.typemytype.robofont.layerData'
p2
(dp3
s."
LayerCount: 2
Fore
SplineSet
1052.65 1614 m 0
 1041.65 1614 1032.65 1611 1024.65 1604 c 0
 931.646 1524 819.646 1436 717.646 1368 c 0
 709.646 1363 705.646 1357 705.646 1347 c 0
 705.646 1330 721.646 1312 739.646 1312 c 0
 742.646 1312 747.646 1313 752.646 1316 c 0
 863.646 1380 984.646 1458 1092.65 1526 c 0
 1104.65 1534 1109.65 1545 1109.65 1557 c 0
 1109.65 1585 1081.65 1614 1052.65 1614 c 0
1136 360 m 0
 1136.48 363.324 1136.71 366.539 1136.71 369.643 c 0
 1136.71 406.046 1105.12 426.999 1072.77 426.999 c 0
 1043.7 426.999 1012.71 410.218 999 373 c 1
 947.545 204.25 809.266 118.07 667.271 118.07 c 0
 487.32 118.07 301 275.736 301 600 c 0
 301 866 443.241 1059 676 1059 c 0
 834.353 1059 974.258 947.822 989 827 c 0
 995.301 778.167 1028.35 753.298 1058.31 753.298 c 0
 1085.42 753.298 1110 773.642 1110 815 c 2
 1110 1120 l 2
 1110 1152 1083 1171 1053 1171 c 0
 1019 1171 990 1156 990 1121 c 2
 990 1030 l 1
 929 1119.17 807 1188 658 1188 c 0
 349.844 1188 122 955 122 607 c 0
 122 225 350.738 -17 659 -17 c 0
 950.131 -17 1111.34 179.216 1136 360 c 0
EndSplineSet
EndChar

StartChar: Ccaron
Encoding: 268 268 15
Width: 1240
VWidth: 0
Flags: W
PickledData: "(dp1
S'com.typemytype.robofont.layerData'
p2
(dp3
s."
LayerCount: 2
Fore
SplineSet
668 1316 m 0
 681 1316 695 1319 700 1327 c 2
 884 1610 l 1
 889 1615 891 1622 891 1627 c 0
 891 1643 872 1657 854 1657 c 0
 846 1657 836 1656 831 1648 c 2
 668 1439 l 1
 506 1648 l 2
 501 1656 491 1657 483 1657 c 0
 465 1657 446 1643 446 1627 c 0
 446 1622 448 1615 453 1610 c 1
 637 1327 l 2
 642 1319 655 1316 668 1316 c 0
1136 360 m 0
 1136.48 363.324 1136.71 366.539 1136.71 369.643 c 0
 1136.71 406.046 1105.12 426.999 1072.77 426.999 c 0
 1043.7 426.999 1012.71 410.218 999 373 c 1
 947.545 204.25 809.266 118.07 667.271 118.07 c 0
 487.32 118.07 301 275.736 301 600 c 0
 301 866 443.241 1059 676 1059 c 0
 834.353 1059 974.258 947.822 989 827 c 0
 995.301 778.167 1028.35 753.298 1058.31 753.298 c 0
 1085.42 753.298 1110 773.642 1110 815 c 2
 1110 1120 l 2
 1110 1152 1083 1171 1053 1171 c 0
 1019 1171 990 1156 990 1121 c 2
 990 1030 l 1
 929 1119.17 807 1188 658 1188 c 0
 349.844 1188 122 955 122 607 c 0
 122 225 350.738 -17 659 -17 c 0
 950.131 -17 1111.34 179.216 1136 360 c 0
EndSplineSet
EndChar

StartChar: Ccedilla
Encoding: 199 199 16
Width: 1240
VWidth: 0
Flags: W
PickledData: "(dp1
S'com.typemytype.robofont.layerData'
p2
(dp3
s."
LayerCount: 2
Fore
SplineSet
795.646 0 m 1
 708.646 0 l 1
 688.646 -33 581.646 -322 581.646 -367 c 0
 581.646 -429 617.646 -461 657.646 -461 c 0
 701.646 -461 749.646 -423 754.646 -342 c 1
 795.646 0 l 1
1136 360 m 0
 1136.48 363.324 1136.71 366.539 1136.71 369.643 c 0
 1136.71 406.046 1105.12 426.999 1072.77 426.999 c 0
 1043.7 426.999 1012.71 410.218 999 373 c 1
 947.545 204.25 809.266 118.07 667.271 118.07 c 0
 487.32 118.07 301 275.736 301 600 c 0
 301 866 443.241 1059 676 1059 c 0
 834.353 1059 974.258 947.822 989 827 c 0
 995.301 778.167 1028.35 753.298 1058.31 753.298 c 0
 1085.42 753.298 1110 773.642 1110 815 c 2
 1110 1120 l 2
 1110 1152 1083 1171 1053 1171 c 0
 1019 1171 990 1156 990 1121 c 2
 990 1030 l 1
 929 1119.17 807 1188 658 1188 c 0
 349.844 1188 122 955 122 607 c 0
 122 225 350.738 -17 659 -17 c 0
 950.131 -17 1111.34 179.216 1136 360 c 0
EndSplineSet
EndChar

StartChar: Ccircumflex
Encoding: 264 264 17
Width: 1240
VWidth: 0
Flags: W
PickledData: "(dp1
S'com.typemytype.robofont.layerData'
p2
(dp3
s."
LayerCount: 2
Fore
SplineSet
664 1657 m 0
 651 1657 638 1653 633 1645 c 2
 449 1362 l 1
 444 1357 442 1350 442 1345 c 0
 442 1329 461 1316 479 1316 c 0
 487 1316 497 1317 502 1325 c 2
 664 1534 l 1
 827 1325 l 2
 832 1317 842 1316 850 1316 c 0
 868 1316 887 1329 887 1345 c 0
 887 1350 885 1357 880 1362 c 1
 696 1645 l 2
 691 1653 677 1657 664 1657 c 0
1136 360 m 0
 1136.48 363.324 1136.71 366.539 1136.71 369.643 c 0
 1136.71 406.046 1105.12 426.999 1072.77 426.999 c 0
 1043.7 426.999 1012.71 410.218 999 373 c 1
 947.545 204.25 809.266 118.07 667.271 118.07 c 0
 487.32 118.07 301 275.736 301 600 c 0
 301 866 443.241 1059 676 1059 c 0
 834.353 1059 974.258 947.822 989 827 c 0
 995.301 778.167 1028.35 753.298 1058.31 753.298 c 0
 1085.42 753.298 1110 773.642 1110 815 c 2
 1110 1120 l 2
 1110 1152 1083 1171 1053 1171 c 0
 1019 1171 990 1156 990 1121 c 2
 990 1030 l 1
 929 1119.17 807 1188 658 1188 c 0
 349.844 1188 122 955 122 607 c 0
 122 225 350.738 -17 659 -17 c 0
 950.131 -17 1111.34 179.216 1136 360 c 0
EndSplineSet
EndChar

StartChar: Cdotaccent
Encoding: 266 266 18
Width: 1240
VWidth: 0
Flags: W
PickledData: "(dp1
S'com.typemytype.robofont.layerData'
p2
(dp3
s."
LayerCount: 2
Fore
SplineSet
718 1378 m 0
 718 1429 680 1477 617 1477 c 0
 546 1477 513 1428 513 1378 c 0
 513 1325 550 1271 616 1271 c 0
 677 1271 718 1325 718 1378 c 0
1136 360 m 0
 1136.48 363.324 1136.71 366.539 1136.71 369.643 c 0
 1136.71 406.046 1105.12 426.999 1072.77 426.999 c 0
 1043.7 426.999 1012.71 410.218 999 373 c 1
 947.545 204.25 809.266 118.07 667.271 118.07 c 0
 487.32 118.07 301 275.736 301 600 c 0
 301 866 443.241 1059 676 1059 c 0
 834.353 1059 974.258 947.822 989 827 c 0
 995.301 778.167 1028.35 753.298 1058.31 753.298 c 0
 1085.42 753.298 1110 773.642 1110 815 c 2
 1110 1120 l 2
 1110 1152 1083 1171 1053 1171 c 0
 1019 1171 990 1156 990 1121 c 2
 990 1030 l 1
 929 1119.17 807 1188 658 1188 c 0
 349.844 1188 122 955 122 607 c 0
 122 225 350.738 -17 659 -17 c 0
 950.131 -17 1111.34 179.216 1136 360 c 0
EndSplineSet
EndChar

StartChar: D
Encoding: 68 68 19
Width: 1240
VWidth: 0
Flags: W
PickledData: "(dp1
S'com.typemytype.robofont.layerData'
p2
(dp3
s."
LayerCount: 2
Fore
SplineSet
936 591 m 0
 936 238 812 120 488 120 c 2
 469 120 l 1
 469 1050 l 1
 502 1050 l 2
 788 1050 936 885 936 591 c 0
1101 591 m 0
 1101 982 855 1171 483 1171 c 2
 172 1171 l 2
 140 1171 122 1143 122 1113 c 0
 122 1079 135 1050 170 1050 c 2
 309 1050 l 1
 309 120 l 1
 166 120 l 2
 131 120 116 91 116 57 c 0
 116 27 135 0 167 0 c 2
 511 0 l 2
 875 0 1101 205 1101 591 c 0
EndSplineSet
EndChar

StartChar: Dcaron
Encoding: 270 270 20
Width: 1240
VWidth: 0
Flags: W
PickledData: "(dp1
S'com.typemytype.robofont.layerData'
p2
(dp3
s."
LayerCount: 2
Fore
SplineSet
696 1316 m 0
 709 1316 723 1319 728 1327 c 2
 912 1610 l 1
 917 1615 919 1622 919 1627 c 0
 919 1643 900 1657 882 1657 c 0
 874 1657 864 1656 859 1648 c 2
 696 1439 l 1
 534 1648 l 2
 529 1656 519 1657 511 1657 c 0
 493 1657 474 1643 474 1627 c 0
 474 1622 476 1615 481 1610 c 1
 665 1327 l 2
 670 1319 683 1316 696 1316 c 0
1105 591 m 0
 1105 238.247 882 120 558 120 c 2
 489 120 l 1
 489 1050 l 1
 660 1050 l 2
 932 1050 1105 885 1105 591 c 0
1270 591 m 0
 1270 982 1013 1171 641 1171 c 2
 192 1171 l 2
 160 1171 142 1143 142 1113 c 0
 142 1079 155 1050 190 1050 c 2
 329 1050 l 1
 329 120 l 1
 146 120 l 2
 111 120 96 91 96 57 c 0
 96 27 115 0 147 0 c 2
 641 0 l 2
 1005 0 1270 205 1270 591 c 0
EndSplineSet
EndChar

StartChar: Dcroat
Encoding: 272 272 21
Width: 1240
VWidth: 0
Flags: W
PickledData: "(dp1
S'com.typemytype.robofont.layerData'
p2
(dp3
s."
LayerCount: 2
Fore
SplineSet
1279 591 m 0
 1279 982 1005 1171 610 1171 c 2
 137 1171 l 2
 105 1171 87 1143 87 1113 c 0
 87 1079 100 1050 135 1050 c 2
 274 1050 l 1
 274 659 l 1
 168 659 l 2
 134 659 116 634 116 607 c 0
 116 580 134 553 172 553 c 2
 274 553 l 1
 274 120 l 1
 91 120 l 2
 56 120 42 91 42 57 c 0
 42 27 60 0 92 0 c 2
 610 0 l 2
 997 0 1279 205 1279 591 c 0
1113 591 m 0
 1113 236 874 117 527 117 c 0
 496 117 466 118 434 120 c 1
 434 553 l 1
 605 553 l 2
 638 553 656 580 656 607 c 0
 656 634 640 659 607 659 c 2
 434 659 l 1
 434 1050 l 1
 629 1050 l 2
 925 1050 1113 885 1113 591 c 0
EndSplineSet
EndChar

StartChar: E
Encoding: 69 69 22
Width: 1240
VWidth: 0
Flags: W
PickledData: "(dp1
S'com.typemytype.robofont.layerData'
p2
(dp3
s."
LayerCount: 2
Fore
SplineSet
859 437 m 2
 859 779 l 2
 859 811 842 834 811 834 c 0
 782 834 759 813 756 787 c 2
 743 660 l 1
 473 660 l 1
 473 1050 l 1
 1006 1050 l 1
 1035 827 l 2
 1039.92 789.149 1064.95 769.427 1090.1 769.427 c 0
 1118.47 769.427 1147 794.522 1147 847 c 2
 1147 1117 l 2
 1147 1151 1124 1171 1091 1171 c 2
 191 1171 l 2
 159 1171 141 1143 141 1113 c 0
 141 1079 154 1050 189 1050 c 2
 314 1050 l 1
 314 120 l 1
 154 120 l 2
 119 120 104 91 104 57 c 0
 104 27 123 0 155 0 c 2
 1103 0 l 2
 1136 0 1149 20 1159 53 c 1
 1159 323 l 2
 1159 377.474 1130.02 402.517 1100.88 402.517 c 0
 1074.92 402.517 1048.84 382.644 1043 346 c 2
 1007 120 l 1
 473 120 l 1
 473 556 l 1
 743 556 l 1
 756 429 l 2
 759 403 782 383 811 383 c 0
 842 383 859 405 859 437 c 2
EndSplineSet
EndChar

StartChar: Eacute
Encoding: 201 201 23
Width: 1240
VWidth: 0
Flags: W
PickledData: "(dp1
S'com.typemytype.robofont.layerData'
p2
(dp3
s."
LayerCount: 2
Fore
SplineSet
938 1611 m 0
 927 1611 918 1608 910 1601 c 0
 817 1521 705 1433 603 1365 c 0
 595 1360 591 1354 591 1344 c 0
 591 1327 607 1309 625 1309 c 0
 628 1309 633 1310 638 1313 c 0
 749 1377 870 1455 978 1523 c 0
 990 1531 995 1542 995 1554 c 0
 995 1582 967 1611 938 1611 c 0
859 437 m 2
 859 779 l 2
 859 811 842 834 811 834 c 0
 782 834 759 813 756 787 c 2
 743 660 l 1
 473 660 l 1
 473 1050 l 1
 1006 1050 l 1
 1035 827 l 2
 1039.92 789.149 1064.95 769.427 1090.1 769.427 c 0
 1118.47 769.427 1147 794.522 1147 847 c 2
 1147 1117 l 2
 1147 1151 1124 1171 1091 1171 c 2
 191 1171 l 2
 159 1171 141 1143 141 1113 c 0
 141 1079 154 1050 189 1050 c 2
 314 1050 l 1
 314 120 l 1
 154 120 l 2
 119 120 104 91 104 57 c 0
 104 27 123 0 155 0 c 2
 1103 0 l 2
 1136 0 1149 20 1159 53 c 1
 1159 323 l 2
 1159 377.474 1130.02 402.517 1100.88 402.517 c 0
 1074.92 402.517 1048.84 382.644 1043 346 c 2
 1007 120 l 1
 473 120 l 1
 473 556 l 1
 743 556 l 1
 756 429 l 2
 759 403 782 383 811 383 c 0
 842 383 859 405 859 437 c 2
EndSplineSet
EndChar

StartChar: Ebreve
Encoding: 276 276 24
Width: 1240
VWidth: 0
Flags: W
PickledData: "(dp1
S'com.typemytype.robofont.layerData'
p2
(dp3
s."
LayerCount: 2
Fore
SplineSet
547 1544 m 0
 543 1555 534 1558 525 1558 c 0
 507 1558 487 1541 487 1526 c 0
 487 1382 588 1310 689 1310 c 0
 790 1310 892 1382 892 1526 c 0
 892 1541 872 1558 854 1558 c 0
 845 1558 835 1555 831 1544 c 0
 800 1462 744 1421 689 1421 c 0
 634 1421 578 1462 547 1544 c 0
859 437 m 2
 859 779 l 2
 859 811 842 834 811 834 c 0
 782 834 759 813 756 787 c 2
 743 660 l 1
 473 660 l 1
 473 1050 l 1
 1006 1050 l 1
 1035 827 l 2
 1039.92 789.149 1064.95 769.427 1090.1 769.427 c 0
 1118.47 769.427 1147 794.522 1147 847 c 2
 1147 1117 l 2
 1147 1151 1124 1171 1091 1171 c 2
 191 1171 l 2
 159 1171 141 1143 141 1113 c 0
 141 1079 154 1050 189 1050 c 2
 314 1050 l 1
 314 120 l 1
 154 120 l 2
 119 120 104 91 104 57 c 0
 104 27 123 0 155 0 c 2
 1103 0 l 2
 1136 0 1149 20 1159 53 c 1
 1159 323 l 2
 1159 377.474 1130.02 402.517 1100.88 402.517 c 0
 1074.92 402.517 1048.84 382.644 1043 346 c 2
 1007 120 l 1
 473 120 l 1
 473 556 l 1
 743 556 l 1
 756 429 l 2
 759 403 782 383 811 383 c 0
 842 383 859 405 859 437 c 2
EndSplineSet
EndChar

StartChar: Ecaron
Encoding: 282 282 25
Width: 1240
VWidth: 0
Flags: W
PickledData: "(dp1
S'com.typemytype.robofont.layerData'
p2
(dp3
s."
LayerCount: 2
Fore
SplineSet
696 1316 m 0
 709 1316 723 1319 728 1327 c 2
 912 1610 l 1
 917 1615 919 1622 919 1627 c 0
 919 1643 900 1657 882 1657 c 0
 874 1657 864 1656 859 1648 c 2
 696 1439 l 1
 534 1648 l 2
 529 1656 519 1657 511 1657 c 0
 493 1657 474 1643 474 1627 c 0
 474 1622 476 1615 481 1610 c 1
 665 1327 l 2
 670 1319 683 1316 696 1316 c 0
859 437 m 2
 859 779 l 2
 859 811 842 834 811 834 c 0
 782 834 759 813 756 787 c 2
 743 660 l 1
 473 660 l 1
 473 1050 l 1
 1006 1050 l 1
 1035 827 l 2
 1039.92 789.149 1064.95 769.427 1090.1 769.427 c 0
 1118.47 769.427 1147 794.522 1147 847 c 2
 1147 1117 l 2
 1147 1151 1124 1171 1091 1171 c 2
 191 1171 l 2
 159 1171 141 1143 141 1113 c 0
 141 1079 154 1050 189 1050 c 2
 314 1050 l 1
 314 120 l 1
 154 120 l 2
 119 120 104 91 104 57 c 0
 104 27 123 0 155 0 c 2
 1103 0 l 2
 1136 0 1149 20 1159 53 c 1
 1159 323 l 2
 1159 377.474 1130.02 402.517 1100.88 402.517 c 0
 1074.92 402.517 1048.84 382.644 1043 346 c 2
 1007 120 l 1
 473 120 l 1
 473 556 l 1
 743 556 l 1
 756 429 l 2
 759 403 782 383 811 383 c 0
 842 383 859 405 859 437 c 2
EndSplineSet
EndChar

StartChar: Ecircumflex
Encoding: 202 202 26
Width: 1240
VWidth: 0
Flags: W
PickledData: "(dp1
S'com.typemytype.robofont.layerData'
p2
(dp3
s."
LayerCount: 2
Fore
SplineSet
631 1650 m 0
 618 1650 605 1646 600 1638 c 2
 416 1355 l 1
 411 1350 409 1343 409 1338 c 0
 409 1322 428 1309 446 1309 c 0
 454 1309 464 1310 469 1318 c 2
 631 1527 l 1
 794 1318 l 2
 799 1310 809 1309 817 1309 c 0
 835 1309 854 1322 854 1338 c 0
 854 1343 852 1350 847 1355 c 1
 663 1638 l 2
 658 1646 644 1650 631 1650 c 0
859 437 m 2
 859 779 l 2
 859 811 842 834 811 834 c 0
 782 834 759 813 756 787 c 2
 743 660 l 1
 473 660 l 1
 473 1050 l 1
 1006 1050 l 1
 1035 827 l 2
 1039.92 789.149 1064.95 769.427 1090.1 769.427 c 0
 1118.47 769.427 1147 794.522 1147 847 c 2
 1147 1117 l 2
 1147 1151 1124 1171 1091 1171 c 2
 191 1171 l 2
 159 1171 141 1143 141 1113 c 0
 141 1079 154 1050 189 1050 c 2
 314 1050 l 1
 314 120 l 1
 154 120 l 2
 119 120 104 91 104 57 c 0
 104 27 123 0 155 0 c 2
 1103 0 l 2
 1136 0 1149 20 1159 53 c 1
 1159 323 l 2
 1159 377.474 1130.02 402.517 1100.88 402.517 c 0
 1074.92 402.517 1048.84 382.644 1043 346 c 2
 1007 120 l 1
 473 120 l 1
 473 556 l 1
 743 556 l 1
 756 429 l 2
 759 403 782 383 811 383 c 0
 842 383 859 405 859 437 c 2
EndSplineSet
EndChar

StartChar: Edieresis
Encoding: 203 203 27
Width: 1240
VWidth: 0
Flags: W
PickledData: "(dp1
S'com.typemytype.robofont.layerData'
p2
(dp3
s."
LayerCount: 2
Fore
SplineSet
464 1309 m 0
 514 1309 555 1350 555 1400 c 0
 555 1450 514 1491 464 1491 c 0
 414 1491 373 1450 373 1400 c 0
 373 1350 414 1309 464 1309 c 0
799 1309 m 0
 849 1309 890 1350 890 1400 c 0
 890 1450 849 1491 799 1491 c 0
 749 1491 709 1450 709 1400 c 0
 709 1350 749 1309 799 1309 c 0
859 437 m 2
 859 779 l 2
 859 811 842 834 811 834 c 0
 782 834 759 813 756 787 c 2
 743 660 l 1
 473 660 l 1
 473 1050 l 1
 1006 1050 l 1
 1035 827 l 2
 1039.92 789.149 1064.95 769.427 1090.1 769.427 c 0
 1118.47 769.427 1147 794.522 1147 847 c 2
 1147 1117 l 2
 1147 1151 1124 1171 1091 1171 c 2
 191 1171 l 2
 159 1171 141 1143 141 1113 c 0
 141 1079 154 1050 189 1050 c 2
 314 1050 l 1
 314 120 l 1
 154 120 l 2
 119 120 104 91 104 57 c 0
 104 27 123 0 155 0 c 2
 1103 0 l 2
 1136 0 1149 20 1159 53 c 1
 1159 323 l 2
 1159 377.474 1130.02 402.517 1100.88 402.517 c 0
 1074.92 402.517 1048.84 382.644 1043 346 c 2
 1007 120 l 1
 473 120 l 1
 473 556 l 1
 743 556 l 1
 756 429 l 2
 759 403 782 383 811 383 c 0
 842 383 859 405 859 437 c 2
EndSplineSet
EndChar

StartChar: Edotaccent
Encoding: 278 278 28
Width: 1240
VWidth: 0
Flags: W
PickledData: "(dp1
S'com.typemytype.robofont.layerData'
p2
(dp3
s."
LayerCount: 2
Fore
SplineSet
733 1378 m 0
 733 1429 695 1477 632 1477 c 0
 561 1477 528 1428 528 1378 c 0
 528 1325 565 1271 631 1271 c 0
 692 1271 733 1325 733 1378 c 0
859 437 m 2
 859 779 l 2
 859 811 842 834 811 834 c 0
 782 834 759 813 756 787 c 2
 743 660 l 1
 473 660 l 1
 473 1050 l 1
 1006 1050 l 1
 1035 827 l 2
 1039.92 789.149 1064.95 769.427 1090.1 769.427 c 0
 1118.47 769.427 1147 794.522 1147 847 c 2
 1147 1117 l 2
 1147 1151 1124 1171 1091 1171 c 2
 191 1171 l 2
 159 1171 141 1143 141 1113 c 0
 141 1079 154 1050 189 1050 c 2
 314 1050 l 1
 314 120 l 1
 154 120 l 2
 119 120 104 91 104 57 c 0
 104 27 123 0 155 0 c 2
 1103 0 l 2
 1136 0 1149 20 1159 53 c 1
 1159 323 l 2
 1159 377.474 1130.02 402.517 1100.88 402.517 c 0
 1074.92 402.517 1048.84 382.644 1043 346 c 2
 1007 120 l 1
 473 120 l 1
 473 556 l 1
 743 556 l 1
 756 429 l 2
 759 403 782 383 811 383 c 0
 842 383 859 405 859 437 c 2
EndSplineSet
EndChar

StartChar: Egrave
Encoding: 200 200 29
Width: 1240
VWidth: 0
Flags: W
PickledData: "(dp1
S'com.typemytype.robofont.layerData'
p2
(dp3
s."
LayerCount: 2
Fore
SplineSet
670.5 1344 m 0
 670.5 1354 668.5 1360 660.5 1365 c 0
 558.5 1433 445.5 1521 352.5 1601 c 0
 344.5 1608 335.5 1611 324.5 1611 c 0
 295.5 1611 266.5 1582 266.5 1554 c 0
 266.5 1542 273.5 1531 285.5 1523 c 0
 392.5 1456 514.5 1377 625.5 1313 c 1
 628.5 1310 632.5 1309 637.5 1309 c 0
 655.5 1309 670.5 1327 670.5 1344 c 0
859 437 m 2
 859 779 l 2
 859 811 842 834 811 834 c 0
 782 834 759 813 756 787 c 2
 743 660 l 1
 473 660 l 1
 473 1050 l 1
 1006 1050 l 1
 1035 827 l 2
 1039.92 789.149 1064.95 769.427 1090.1 769.427 c 0
 1118.47 769.427 1147 794.522 1147 847 c 2
 1147 1117 l 2
 1147 1151 1124 1171 1091 1171 c 2
 191 1171 l 2
 159 1171 141 1143 141 1113 c 0
 141 1079 154 1050 189 1050 c 2
 314 1050 l 1
 314 120 l 1
 154 120 l 2
 119 120 104 91 104 57 c 0
 104 27 123 0 155 0 c 2
 1103 0 l 2
 1136 0 1149 20 1159 53 c 1
 1159 323 l 2
 1159 377.474 1130.02 402.517 1100.88 402.517 c 0
 1074.92 402.517 1048.84 382.644 1043 346 c 2
 1007 120 l 1
 473 120 l 1
 473 556 l 1
 743 556 l 1
 756 429 l 2
 759 403 782 383 811 383 c 0
 842 383 859 405 859 437 c 2
EndSplineSet
EndChar

StartChar: Emacron
Encoding: 274 274 30
Width: 1240
VWidth: 0
Flags: W
PickledData: "(dp1
S'com.typemytype.robofont.layerData'
p2
(dp3
s."
LayerCount: 2
Fore
SplineSet
876 1349 m 2
 909 1349 927 1376 927 1403 c 0
 927 1430 910 1456 877 1456 c 2
 510 1456 l 2
 476 1456 458 1430 458 1403 c 0
 458 1376 476 1349 514 1349 c 2
 876 1349 l 2
859 437 m 2
 859 779 l 2
 859 811 842 834 811 834 c 0
 782 834 759 813 756 787 c 2
 743 660 l 1
 473 660 l 1
 473 1050 l 1
 1006 1050 l 1
 1035 827 l 2
 1039.92 789.149 1064.95 769.427 1090.1 769.427 c 0
 1118.47 769.427 1147 794.522 1147 847 c 2
 1147 1117 l 2
 1147 1151 1124 1171 1091 1171 c 2
 191 1171 l 2
 159 1171 141 1143 141 1113 c 0
 141 1079 154 1050 189 1050 c 2
 314 1050 l 1
 314 120 l 1
 154 120 l 2
 119 120 104 91 104 57 c 0
 104 27 123 0 155 0 c 2
 1103 0 l 2
 1136 0 1149 20 1159 53 c 1
 1159 323 l 2
 1159 377.474 1130.02 402.517 1100.88 402.517 c 0
 1074.92 402.517 1048.84 382.644 1043 346 c 2
 1007 120 l 1
 473 120 l 1
 473 556 l 1
 743 556 l 1
 756 429 l 2
 759 403 782 383 811 383 c 0
 842 383 859 405 859 437 c 2
EndSplineSet
EndChar

StartChar: Eng
Encoding: 330 330 31
Width: 1240
VWidth: 0
Flags: W
PickledData: "(dp1
S'com.typemytype.robofont.layerData'
p2
(dp3
s."
LayerCount: 2
Fore
SplineSet
46 1113 m 0
 46 1079 61 1050 96 1050 c 2
 232 1050 l 1
 232 120 l 1
 96 120 l 2
 61 120 46 91 46 57 c 0
 46 27 65 0 97 0 c 2
 494 0 l 2
 526 0 545 27 545 57 c 0
 545 91 531 120 496 120 c 2
 376 120 l 1
 376 994 l 1
 1054 35 l 1
 1054 -51 l 2
 1054 -229 968 -286 898 -286 c 0
 848 -286 806 -260 805 -231 c 1
 805 -154 l 2
 805 -116 770 -96 731 -96 c 0
 680 -96 660 -120 660 -167 c 2
 660 -249 l 2
 660 -334 765 -401 889 -401 c 0
 1062 -401 1195 -291 1195 -36 c 2
 1195 1050 l 1
 1331 1050 l 2
 1366 1050 1380 1079 1380 1113 c 0
 1380 1143 1362 1171 1330 1171 c 2
 932 1171 l 2
 900 1171 882 1143 882 1113 c 0
 882 1079 896 1050 931 1050 c 2
 1054 1050 l 1
 1054 291 l 1
 454 1147 l 1
 446 1164 435 1171 413 1171 c 2
 97 1171 l 2
 65 1171 46 1143 46 1113 c 0
EndSplineSet
EndChar

StartChar: Eogonek
Encoding: 280 280 32
Width: 1240
VWidth: 0
Flags: W
PickledData: "(dp1
S'com.typemytype.robofont.layerData'
p2
(dp3
s."
LayerCount: 2
Fore
SplineSet
580 -360 m 0
 644 -360 702 -318 702 -283 c 0
 702 -242 608 -260 608 -184 c 0
 608 -119 690 12 684 12 c 2
 630 12 l 1
 514 -84 469 -204 469 -253 c 0
 469 -332 517 -360 580 -360 c 0
859 437 m 2
 859 779 l 2
 859 811 842 834 811 834 c 0
 782 834 759 813 756 787 c 2
 743 660 l 1
 473 660 l 1
 473 1050 l 1
 1006 1050 l 1
 1035 827 l 2
 1039.92 789.149 1064.95 769.427 1090.1 769.427 c 0
 1118.47 769.427 1147 794.522 1147 847 c 2
 1147 1117 l 2
 1147 1151 1124 1171 1091 1171 c 2
 191 1171 l 2
 159 1171 141 1143 141 1113 c 0
 141 1079 154 1050 189 1050 c 2
 314 1050 l 1
 314 120 l 1
 154 120 l 2
 119 120 104 91 104 57 c 0
 104 27 123 0 155 0 c 2
 1103 0 l 2
 1136 0 1149 20 1159 53 c 1
 1159 323 l 2
 1159 377.474 1130.02 402.517 1100.88 402.517 c 0
 1074.92 402.517 1048.84 382.644 1043 346 c 2
 1007 120 l 1
 473 120 l 1
 473 556 l 1
 743 556 l 1
 756 429 l 2
 759 403 782 383 811 383 c 0
 842 383 859 405 859 437 c 2
EndSplineSet
EndChar

StartChar: Eth
Encoding: 208 208 33
Width: 1240
VWidth: 0
Flags: W
PickledData: "(dp1
S'com.typemytype.robofont.layerData'
p2
(dp3
s."
LayerCount: 2
Fore
SplineSet
1279 591 m 0
 1279 982 1005 1171 610 1171 c 2
 137 1171 l 2
 105 1171 87 1143 87 1113 c 0
 87 1079 100 1050 135 1050 c 2
 274 1050 l 1
 274 659 l 1
 168 659 l 2
 134 659 116 634 116 607 c 0
 116 580 134 553 172 553 c 2
 274 553 l 1
 274 120 l 1
 91 120 l 2
 56 120 42 91 42 57 c 0
 42 27 60 0 92 0 c 2
 610 0 l 2
 997 0 1279 205 1279 591 c 0
1113 591 m 0
 1113 236 874 117 527 117 c 0
 496 117 466 118 434 120 c 1
 434 553 l 1
 605 553 l 2
 638 553 656 580 656 607 c 0
 656 634 640 659 607 659 c 2
 434 659 l 1
 434 1050 l 1
 629 1050 l 2
 925 1050 1113 885 1113 591 c 0
EndSplineSet
EndChar

StartChar: Euro
Encoding: 8364 8364 34
Width: 1240
VWidth: 0
Flags: W
PickledData: "(dp1
S'com.typemytype.robofont.layerData'
p2
(dp3
s."
LayerCount: 2
Fore
SplineSet
1333 368 m 1
 1333 373 l 2
 1333 411 1302 430 1270 430 c 0
 1241 430 1213 414 1205 382 c 0
 1165 222 1049 117 856 117 c 0
 643 117 494 225 436 410 c 1
 681 410 l 2
 721 410 740 435 740 460 c 0
 740 485 721 511 681 511 c 2
 415 511 l 1
 412 539 410 569 410 600 c 0
 410 616 411 633 412 649 c 1
 681 649 l 2
 721 649 740 675 740 700 c 0
 740 726 721 751 681 751 c 2
 431 751 l 1
 485 936 640 1059 856 1059 c 0
 1027 1059 1128 977 1195 867 c 1
 1211 844 1221 814 1252 814 c 0
 1282 814 1309 833 1309 865 c 2
 1309 1120 l 2
 1309 1152 1282 1171 1252 1171 c 0
 1218 1171 1189 1156 1189 1121 c 2
 1189 1050 l 1
 1107 1134 1005 1188 856 1188 c 0
 559 1188 347 1013 287 751 c 1
 159 751 l 2
 119 751 98 726 98 700 c 0
 98 675 119 649 159 649 c 2
 272 649 l 1
 271 631 270 612 270 594 c 0
 270 565 271 538 273 511 c 1
 159 511 l 2
 119 511 98 485 98 460 c 0
 98 435 119 410 159 410 c 2
 290 410 l 1
 353 140 559 -17 844 -17 c 0
 1151 -17 1319 175 1333 368 c 1
EndSplineSet
EndChar

StartChar: F
Encoding: 70 70 35
Width: 1240
VWidth: 0
Flags: W
PickledData: "(dp1
S'com.typemytype.robofont.layerData'
p2
(dp3
s."
LayerCount: 2
Fore
SplineSet
733 0 m 2
 765 0 784 27 784 57 c 0
 784 91 770 120 735 120 c 2
 508 120 l 1
 508 535 l 1
 831 535 l 1
 855 408 l 2
 860 382 881 362 910 362 c 0
 941 362 958 385 958 417 c 2
 958 753 l 2
 958 785 941 807 910 807 c 0
 881 807 860 787 855 761 c 2
 831 634 l 1
 508 634 l 1
 508 1050 l 1
 1073 1050 l 1
 1094 816 l 1
 1103 744 1210 734 1210 841 c 2
 1210 1117 l 2
 1210 1150 1187 1171 1154 1171 c 2
 184 1171 l 2
 152 1171 133 1143 133 1113 c 0
 133 1079 148 1050 183 1050 c 2
 349 1050 l 1
 349 120 l 1
 180 120 l 2
 145 120 130 91 130 57 c 0
 130 27 149 0 181 0 c 2
 733 0 l 2
EndSplineSet
EndChar

StartChar: G
Encoding: 71 71 36
Width: 1240
VWidth: 0
Flags: W
PickledData: "(dp1
S'com.typemytype.robofont.layerData'
p2
(dp3
s."
LayerCount: 2
Fore
SplineSet
734.962 111.445 m 2
 450.436 111.445 292 293.655 292 581 c 0
 292 862 456.391 1059 733 1059 c 0
 914 1059 1044 943.375 1070 859 c 1
 1083.34 819.366 1110.93 797.356 1134.71 797.356 c 0
 1161.93 797.356 1185 817.617 1185 862 c 2
 1185 1120 l 2
 1185 1152 1158 1171 1128 1171 c 0
 1094 1171 1065 1156 1065 1121 c 2
 1065 1050 l 1
 976.68 1136 871.8 1188 720 1188 c 0
 365.693 1188 114 948 114 581 c 0
 114 218 356.797 -17 706 -17 c 0
 877.562 -17 1015.74 26 1089 135 c 1
 1089 51 l 2
 1089 19 1116 0 1146 0 c 0
 1180 0 1209 14 1209 49 c 2
 1209 475 l 1
 1266 475 l 2
 1298 475 1317 503 1317 533 c 0
 1317 567 1303 596 1268 596 c 2
 984 596 l 2
 949 596 935 567 935 533 c 0
 935 503 953 475 985 475 c 2
 1089 475 l 1
 1089 389 l 2
 1089 182.606 921.926 111.445 734.962 111.445 c 2
 734.962 111.445 l 2
EndSplineSet
EndChar

StartChar: Gbreve
Encoding: 286 286 37
Width: 1240
VWidth: 0
Flags: W
PickledData: "(dp1
S'com.typemytype.robofont.layerData'
p2
(dp3
s."
LayerCount: 2
Fore
SplineSet
547 1544 m 0
 543 1555 534 1558 525 1558 c 0
 507 1558 487 1541 487 1526 c 0
 487 1382 588 1310 689 1310 c 0
 790 1310 892 1382 892 1526 c 0
 892 1541 872 1558 854 1558 c 0
 845 1558 835 1555 831 1544 c 0
 800 1462 744 1421 689 1421 c 0
 634 1421 578 1462 547 1544 c 0
734.962 111.445 m 0
 450.436 111.445 292 293.654 292 581 c 0
 292 862 456.391 1059 733 1059 c 0
 914 1059 1044 943.375 1070 859 c 1
 1083.34 819.366 1110.92 797.356 1134.71 797.356 c 0
 1161.93 797.356 1185 817.616 1185 862 c 2
 1185 1120 l 2
 1185 1152 1158 1171 1128 1171 c 0
 1094 1171 1065 1156 1065 1121 c 2
 1065 1050 l 1
 976.68 1136 871.8 1188 720 1188 c 0
 365.693 1188 114 948 114 581 c 0
 114 218 356.798 -17 706 -17 c 0
 877.562 -17 1015.74 26 1089 135 c 1
 1089 51 l 2
 1089 19 1116 0 1146 0 c 0
 1180 0 1209 14 1209 49 c 2
 1209 475 l 1
 1266 475 l 2
 1298 475 1317 503 1317 533 c 0
 1317 567 1303 596 1268 596 c 2
 984 596 l 2
 949 596 935 567 935 533 c 0
 935 503 953 475 985 475 c 2
 1089 475 l 1
 1089 389 l 2
 1089 182.606 921.926 111.445 734.962 111.445 c 0
EndSplineSet
EndChar

StartChar: Gcircumflex
Encoding: 284 284 38
Width: 1240
VWidth: 0
Flags: W
PickledData: "(dp1
S'com.typemytype.robofont.layerData'
p2
(dp3
s."
LayerCount: 2
Fore
SplineSet
691 1657 m 0
 678 1657 665 1653 660 1645 c 2
 476 1362 l 1
 471 1357 469 1350 469 1345 c 0
 469 1329 488 1316 506 1316 c 0
 514 1316 524 1317 529 1325 c 2
 691 1534 l 1
 854 1325 l 2
 859 1317 869 1316 877 1316 c 0
 895 1316 914 1329 914 1345 c 0
 914 1350 912 1357 907 1362 c 1
 723 1645 l 2
 718 1653 704 1657 691 1657 c 0
734.962 111.445 m 0
 450.436 111.445 292 293.654 292 581 c 0
 292 862 456.391 1059 733 1059 c 0
 914 1059 1044 943.375 1070 859 c 1
 1083.34 819.366 1110.92 797.356 1134.71 797.356 c 0
 1161.93 797.356 1185 817.616 1185 862 c 2
 1185 1120 l 2
 1185 1152 1158 1171 1128 1171 c 0
 1094 1171 1065 1156 1065 1121 c 2
 1065 1050 l 1
 976.68 1136 871.8 1188 720 1188 c 0
 365.693 1188 114 948 114 581 c 0
 114 218 356.798 -17 706 -17 c 0
 877.562 -17 1015.74 26 1089 135 c 1
 1089 51 l 2
 1089 19 1116 0 1146 0 c 0
 1180 0 1209 14 1209 49 c 2
 1209 475 l 1
 1266 475 l 2
 1298 475 1317 503 1317 533 c 0
 1317 567 1303 596 1268 596 c 2
 984 596 l 2
 949 596 935 567 935 533 c 0
 935 503 953 475 985 475 c 2
 1089 475 l 1
 1089 389 l 2
 1089 182.606 921.926 111.445 734.962 111.445 c 0
EndSplineSet
EndChar

StartChar: Gcommaaccent
Encoding: 290 290 39
Width: 1240
VWidth: 0
Flags: W
PickledData: "(dp1
S'com.typemytype.robofont.layerData'
p2
(dp3
s."
LayerCount: 2
Fore
SplineSet
579 -515 m 0
 742 -515 843 -401 843 -253 c 0
 843 -170 800 -100 715 -100 c 0
 617 -100 564 -147 564 -225 c 0
 564 -269 604 -319 674 -319 c 0
 692 -319 712 -316 732 -309 c 1
 732 -437 538 -385 538 -472 c 0
 538 -496 551 -515 579 -515 c 0
734.962 111.445 m 0
 450.436 111.445 292 293.654 292 581 c 0
 292 862 456.391 1059 733 1059 c 0
 914 1059 1044 943.375 1070 859 c 1
 1083.34 819.366 1110.92 797.356 1134.71 797.356 c 0
 1161.93 797.356 1185 817.616 1185 862 c 2
 1185 1120 l 2
 1185 1152 1158 1171 1128 1171 c 0
 1094 1171 1065 1156 1065 1121 c 2
 1065 1050 l 1
 976.68 1136 871.8 1188 720 1188 c 0
 365.693 1188 114 948 114 581 c 0
 114 218 356.798 -17 706 -17 c 0
 877.562 -17 1015.74 26 1089 135 c 1
 1089 51 l 2
 1089 19 1116 0 1146 0 c 0
 1180 0 1209 14 1209 49 c 2
 1209 475 l 1
 1266 475 l 2
 1298 475 1317 503 1317 533 c 0
 1317 567 1303 596 1268 596 c 2
 984 596 l 2
 949 596 935 567 935 533 c 0
 935 503 953 475 985 475 c 2
 1089 475 l 1
 1089 389 l 2
 1089 182.606 921.926 111.445 734.962 111.445 c 0
EndSplineSet
EndChar

StartChar: Gdotaccent
Encoding: 288 288 40
Width: 1240
VWidth: 0
Flags: W
PickledData: "(dp1
S'com.typemytype.robofont.layerData'
p2
(dp3
s."
LayerCount: 2
Fore
SplineSet
793 1378 m 0
 793 1429 755 1477 692 1477 c 0
 621 1477 588 1428 588 1378 c 0
 588 1325 625 1271 691 1271 c 0
 752 1271 793 1325 793 1378 c 0
734.962 111.445 m 0
 450.436 111.445 292 293.654 292 581 c 0
 292 862 456.391 1059 733 1059 c 0
 914 1059 1044 943.375 1070 859 c 1
 1083.34 819.366 1110.92 797.356 1134.71 797.356 c 0
 1161.93 797.356 1185 817.616 1185 862 c 2
 1185 1120 l 2
 1185 1152 1158 1171 1128 1171 c 0
 1094 1171 1065 1156 1065 1121 c 2
 1065 1050 l 1
 976.68 1136 871.8 1188 720 1188 c 0
 365.693 1188 114 948 114 581 c 0
 114 218 356.798 -17 706 -17 c 0
 877.562 -17 1015.74 26 1089 135 c 1
 1089 51 l 2
 1089 19 1116 0 1146 0 c 0
 1180 0 1209 14 1209 49 c 2
 1209 475 l 1
 1266 475 l 2
 1298 475 1317 503 1317 533 c 0
 1317 567 1303 596 1268 596 c 2
 984 596 l 2
 949 596 935 567 935 533 c 0
 935 503 953 475 985 475 c 2
 1089 475 l 1
 1089 389 l 2
 1089 182.606 921.926 111.445 734.962 111.445 c 0
EndSplineSet
EndChar

StartChar: H
Encoding: 72 72 41
Width: 1240
VWidth: 0
Flags: W
PickledData: "(dp1
S'com.typemytype.robofont.layerData'
p2
(dp3
s."
LayerCount: 2
Fore
SplineSet
81 57 m 0
 81 27 99 0 131 0 c 2
 509 0 l 2
 541 0 559 27 559 57 c 0
 559 91 546 120 511 120 c 2
 411 120 l 1
 411 538 l 1
 851 538 l 1
 851 120 l 1
 751 120 l 2
 716 120 703 91 703 57 c 0
 703 27 721 0 753 0 c 2
 1109 0 l 2
 1141 0 1159 27 1159 57 c 0
 1159 91 1144 120 1109 120 c 2
 1009 120 l 1
 1009 1050 l 1
 1109 1050 l 2
 1144 1050 1159 1079 1159 1113 c 0
 1159 1143 1141 1171 1109 1171 c 2
 753 1171 l 2
 721 1171 703 1143 703 1113 c 0
 703 1079 716 1050 751 1050 c 2
 851 1050 l 1
 851 658 l 1
 411 658 l 1
 411 1050 l 1
 511 1050 l 2
 546 1050 559 1079 559 1113 c 0
 559 1143 541 1171 509 1171 c 2
 145 1171 l 2
 113 1171 95 1143 95 1113 c 0
 95 1079 110 1050 145 1050 c 2
 253 1050 l 1
 253 120 l 1
 129 120 l 2
 94 120 81 91 81 57 c 0
EndSplineSet
EndChar

StartChar: Hbar
Encoding: 294 294 42
Width: 1240
VWidth: 0
Flags: W
PickledData: "(dp1
S'com.typemytype.robofont.layerData'
p2
(dp3
s."
LayerCount: 2
Fore
SplineSet
1022 799 m 1
 1022 658 l 1
 386 658 l 1
 386 799 l 1
 1022 799 l 1
25 57 m 0
 25 27 43 0 75 0 c 2
 523 0 l 2
 555 0 573 27 573 57 c 0
 573 91 560 120 525 120 c 2
 386 120 l 1
 386 538 l 1
 1022 538 l 1
 1022 120 l 1
 884 120 l 2
 849 120 835 91 835 57 c 0
 835 27 853 0 885 0 c 2
 1305 0 l 2
 1337 0 1355 27 1355 57 c 0
 1355 91 1341 120 1306 120 c 2
 1182 120 l 1
 1182 799 l 1
 1277 799 l 2
 1310 799 1327 826 1327 853 c 0
 1327 879 1311 905 1278 905 c 2
 1182 905 l 1
 1182 1050 l 1
 1306 1050 l 2
 1341 1050 1355 1079 1355 1113 c 0
 1355 1143 1337 1171 1305 1171 c 2
 885 1171 l 2
 853 1171 835 1143 835 1113 c 0
 835 1079 849 1050 884 1050 c 2
 1022 1050 l 1
 1022 905 l 1
 386 905 l 1
 386 1050 l 1
 525 1050 l 2
 560 1050 573 1079 573 1113 c 0
 573 1143 555 1171 523 1171 c 2
 89 1171 l 2
 57 1171 39 1143 39 1113 c 0
 39 1079 53 1050 88 1050 c 2
 226 1050 l 1
 226 905 l 1
 124 905 l 2
 89 905 71 879 71 853 c 0
 71 826 90 799 128 799 c 2
 226 799 l 1
 226 120 l 1
 74 120 l 2
 39 120 25 91 25 57 c 0
EndSplineSet
EndChar

StartChar: Hcircumflex
Encoding: 292 292 43
Width: 1240
VWidth: 0
Flags: W
PickledData: "(dp1
S'com.typemytype.robofont.layerData'
p2
(dp3
s."
LayerCount: 2
Fore
SplineSet
717.5 1657 m 0
 704.5 1657 691.5 1653 686.5 1645 c 2
 502.5 1362 l 1
 497.5 1357 495.5 1350 495.5 1345 c 0
 495.5 1329 514.5 1316 532.5 1316 c 0
 540.5 1316 550.5 1317 555.5 1325 c 2
 717.5 1534 l 1
 880.5 1325 l 2
 885.5 1317 895.5 1316 903.5 1316 c 0
 921.5 1316 940.5 1329 940.5 1345 c 0
 940.5 1350 938.5 1357 933.5 1362 c 1
 749.5 1645 l 2
 744.5 1653 730.5 1657 717.5 1657 c 0
64 57 m 0
 64 27 82 0 114 0 c 2
 512 0 l 2
 544 0 562 27 562 57 c 0
 562 91 549 120 514 120 c 2
 394 120 l 1
 394 538 l 1
 874 538 l 1
 874 120 l 1
 754 120 l 2
 719 120 706 91 706 57 c 0
 706 27 724 0 756 0 c 2
 1132 0 l 2
 1164 0 1182 27 1182 57 c 0
 1182 91 1167 120 1132 120 c 2
 1032 120 l 1
 1032 1050 l 1
 1132 1050 l 2
 1167 1050 1182 1079 1182 1113 c 0
 1182 1143 1164 1171 1132 1171 c 2
 756 1171 l 2
 724 1171 706 1143 706 1113 c 0
 706 1079 719 1050 754 1050 c 2
 874 1050 l 1
 874 658 l 1
 394 658 l 1
 394 1050 l 1
 514 1050 l 2
 549 1050 562 1079 562 1113 c 0
 562 1143 544 1171 512 1171 c 2
 128 1171 l 2
 96 1171 78 1143 78 1113 c 0
 78 1079 93 1050 128 1050 c 2
 236 1050 l 1
 236 120 l 1
 112 120 l 2
 77 120 64 91 64 57 c 0
EndSplineSet
EndChar

StartChar: I
Encoding: 73 73 44
Width: 1240
VWidth: 0
Flags: W
PickledData: "(dp1
S'com.typemytype.robofont.layerData'
p2
(dp3
s."
LayerCount: 2
Fore
SplineSet
265 57 m 0
 265 27 283 0 315 0 c 2
 1064 0 l 2
 1096 0 1114 27 1114 57 c 0
 1114 91 1100 120 1065 120 c 2
 779 120 l 1
 779 1050 l 1
 1065 1050 l 2
 1100 1050 1114 1079 1114 1113 c 0
 1114 1143 1096 1171 1064 1171 c 2
 315 1171 l 2
 283 1171 265 1143 265 1113 c 0
 265 1079 279 1050 314 1050 c 2
 619 1050 l 1
 619 120 l 1
 314 120 l 2
 279 120 265 91 265 57 c 0
EndSplineSet
EndChar

StartChar: IJ
Encoding: 306 306 45
Width: 1240
VWidth: 0
Flags: W
PickledData: "(dp1
S'com.typemytype.robofont.layerData'
p2
(dp3
s."
LayerCount: 2
Fore
SplineSet
1701 303 m 2
 1701 1050 l 1
 1882 1050 l 2
 1917 1050 1931 1079 1931 1113 c 0
 1931 1143 1913 1171 1881 1171 c 2
 1323 1171 l 2
 1291 1171 1274 1143 1274 1113 c 0
 1274 1079 1287 1050 1322 1050 c 2
 1542 1050 l 1
 1542 285 l 2
 1542 84 1446 21 1367 21 c 0
 1311 21 1264 50 1263 83 c 1
 1263 170 l 2
 1263 212 1224 234 1180 234 c 0
 1123 234 1100 207 1100 154 c 2
 1100 64 l 2
 1100 -32 1218 -108 1357 -108 c 0
 1551 -108 1701 17 1701 303 c 2
481.5 57 m 0
 481.5 27 499.5 0 531.5 0 c 2
 1280.5 0 l 2
 1312.5 0 1330.5 27 1330.5 57 c 0
 1330.5 91 1316.5 120 1281.5 120 c 2
 995.5 120 l 1
 995.5 1050 l 1
 1281.5 1050 l 2
 1316.5 1050 1330.5 1079 1330.5 1113 c 0
 1330.5 1143 1312.5 1171 1280.5 1171 c 2
 531.5 1171 l 2
 499.5 1171 481.5 1143 481.5 1113 c 0
 481.5 1079 495.5 1050 530.5 1050 c 2
 835.5 1050 l 1
 835.5 120 l 1
 530.5 120 l 2
 495.5 120 481.5 91 481.5 57 c 0
EndSplineSet
EndChar

StartChar: Iacute
Encoding: 205 205 46
Width: 1240
VWidth: 0
Flags: W
PickledData: "(dp1
S'com.typemytype.robofont.layerData'
p2
(dp3
s."
LayerCount: 2
Fore
SplineSet
996 1611 m 0
 985 1611 976 1608 968 1601 c 0
 875 1521 763 1433 661 1365 c 0
 653 1360 649 1354 649 1344 c 0
 649 1327 665 1309 683 1309 c 0
 686 1309 691 1310 696 1313 c 0
 807 1377 928 1455 1036 1523 c 0
 1048 1531 1053 1542 1053 1554 c 0
 1053 1582 1025 1611 996 1611 c 0
265 57 m 0
 265 27 283 0 315 0 c 2
 1064 0 l 2
 1096 0 1114 27 1114 57 c 0
 1114 91 1100 120 1065 120 c 2
 779 120 l 1
 779 1050 l 1
 1065 1050 l 2
 1100 1050 1114 1079 1114 1113 c 0
 1114 1143 1096 1171 1064 1171 c 2
 315 1171 l 2
 283 1171 265 1143 265 1113 c 0
 265 1079 279 1050 314 1050 c 2
 619 1050 l 1
 619 120 l 1
 314 120 l 2
 279 120 265 91 265 57 c 0
EndSplineSet
EndChar

StartChar: Ibreve
Encoding: 300 300 47
Width: 1240
VWidth: 0
Flags: W
PickledData: "(dp1
S'com.typemytype.robofont.layerData'
p2
(dp3
s."
LayerCount: 2
Fore
SplineSet
561 1701 m 0
 557 1712 548 1715 539 1715 c 0
 521 1715 501 1698 501 1683 c 0
 501 1539 602 1467 703 1467 c 0
 804 1467 906 1539 906 1683 c 0
 906 1698 886 1715 868 1715 c 0
 859 1715 849 1712 845 1701 c 0
 814 1619 758 1578 703 1578 c 0
 648 1578 592 1619 561 1701 c 0
265 57 m 0
 265 27 283 0 315 0 c 2
 1064 0 l 2
 1096 0 1114 27 1114 57 c 0
 1114 91 1100 120 1065 120 c 2
 779 120 l 1
 779 1050 l 1
 1065 1050 l 2
 1100 1050 1114 1079 1114 1113 c 0
 1114 1143 1096 1171 1064 1171 c 2
 315 1171 l 2
 283 1171 265 1143 265 1113 c 0
 265 1079 279 1050 314 1050 c 2
 619 1050 l 1
 619 120 l 1
 314 120 l 2
 279 120 265 91 265 57 c 0
EndSplineSet
EndChar

StartChar: Icircumflex
Encoding: 206 206 48
Width: 1240
VWidth: 0
Flags: W
PickledData: "(dp1
S'com.typemytype.robofont.layerData'
p2
(dp3
s."
LayerCount: 2
Fore
SplineSet
689 1650 m 0
 676 1650 663 1646 658 1638 c 2
 474 1355 l 1
 469 1350 467 1343 467 1338 c 0
 467 1322 486 1309 504 1309 c 0
 512 1309 522 1310 527 1318 c 2
 689 1527 l 1
 852 1318 l 2
 857 1310 867 1309 875 1309 c 0
 893 1309 912 1322 912 1338 c 0
 912 1343 910 1350 905 1355 c 1
 721 1638 l 2
 716 1646 702 1650 689 1650 c 0
265 57 m 0
 265 27 283 0 315 0 c 2
 1064 0 l 2
 1096 0 1114 27 1114 57 c 0
 1114 91 1100 120 1065 120 c 2
 779 120 l 1
 779 1050 l 1
 1065 1050 l 2
 1100 1050 1114 1079 1114 1113 c 0
 1114 1143 1096 1171 1064 1171 c 2
 315 1171 l 2
 283 1171 265 1143 265 1113 c 0
 265 1079 279 1050 314 1050 c 2
 619 1050 l 1
 619 120 l 1
 314 120 l 2
 279 120 265 91 265 57 c 0
EndSplineSet
EndChar

StartChar: Idieresis
Encoding: 207 207 49
Width: 1240
VWidth: 0
Flags: W
PickledData: "(dp1
S'com.typemytype.robofont.layerData'
p2
(dp3
s."
LayerCount: 2
Fore
SplineSet
522 1309 m 0
 572 1309 613 1350 613 1400 c 0
 613 1450 572 1491 522 1491 c 0
 472 1491 431 1450 431 1400 c 0
 431 1350 472 1309 522 1309 c 0
857 1309 m 0
 907 1309 948 1350 948 1400 c 0
 948 1450 907 1491 857 1491 c 0
 807 1491 767 1450 767 1400 c 0
 767 1350 807 1309 857 1309 c 0
265 57 m 0
 265 27 283 0 315 0 c 2
 1064 0 l 2
 1096 0 1114 27 1114 57 c 0
 1114 91 1100 120 1065 120 c 2
 779 120 l 1
 779 1050 l 1
 1065 1050 l 2
 1100 1050 1114 1079 1114 1113 c 0
 1114 1143 1096 1171 1064 1171 c 2
 315 1171 l 2
 283 1171 265 1143 265 1113 c 0
 265 1079 279 1050 314 1050 c 2
 619 1050 l 1
 619 120 l 1
 314 120 l 2
 279 120 265 91 265 57 c 0
EndSplineSet
EndChar

StartChar: Idotaccent
Encoding: 304 304 50
Width: 1240
VWidth: 0
Flags: W
PickledData: "(dp1
S'com.typemytype.robofont.layerData'
p2
(dp3
s."
LayerCount: 2
Fore
SplineSet
802 1952 m 0
 802 2003 764 2051 701 2051 c 0
 630 2051 597 2002 597 1952 c 0
 597 1899 634 1845 700 1845 c 0
 761 1845 802 1899 802 1952 c 0
265 57 m 0
 265 27 283 0 315 0 c 2
 1064 0 l 2
 1096 0 1114 27 1114 57 c 0
 1114 91 1100 120 1065 120 c 2
 779 120 l 1
 779 1050 l 1
 1065 1050 l 2
 1100 1050 1114 1079 1114 1113 c 0
 1114 1143 1096 1171 1064 1171 c 2
 315 1171 l 2
 283 1171 265 1143 265 1113 c 0
 265 1079 279 1050 314 1050 c 2
 619 1050 l 1
 619 120 l 1
 314 120 l 2
 279 120 265 91 265 57 c 0
EndSplineSet
EndChar

StartChar: Igrave
Encoding: 204 204 51
Width: 1240
VWidth: 0
Flags: W
PickledData: "(dp1
S'com.typemytype.robofont.layerData'
p2
(dp3
s."
LayerCount: 2
Fore
SplineSet
728.5 1344 m 0
 728.5 1354 726.5 1360 718.5 1365 c 0
 616.5 1433 503.5 1521 410.5 1601 c 0
 402.5 1608 393.5 1611 382.5 1611 c 0
 353.5 1611 324.5 1582 324.5 1554 c 0
 324.5 1542 331.5 1531 343.5 1523 c 0
 450.5 1456 572.5 1377 683.5 1313 c 1
 686.5 1310 690.5 1309 695.5 1309 c 0
 713.5 1309 728.5 1327 728.5 1344 c 0
265 57 m 0
 265 27 283 0 315 0 c 2
 1064 0 l 2
 1096 0 1114 27 1114 57 c 0
 1114 91 1100 120 1065 120 c 2
 779 120 l 1
 779 1050 l 1
 1065 1050 l 2
 1100 1050 1114 1079 1114 1113 c 0
 1114 1143 1096 1171 1064 1171 c 2
 315 1171 l 2
 283 1171 265 1143 265 1113 c 0
 265 1079 279 1050 314 1050 c 2
 619 1050 l 1
 619 120 l 1
 314 120 l 2
 279 120 265 91 265 57 c 0
EndSplineSet
EndChar

StartChar: Imacron
Encoding: 298 298 52
Width: 1240
VWidth: 0
Flags: W
PickledData: "(dp1
S'com.typemytype.robofont.layerData'
p2
(dp3
s."
LayerCount: 2
Fore
SplineSet
891 1506 m 2
 924 1506 942 1533 942 1560 c 0
 942 1587 925 1613 892 1613 c 2
 525 1613 l 2
 491 1613 473 1587 473 1560 c 0
 473 1533 491 1506 529 1506 c 2
 891 1506 l 2
265 57 m 0
 265 27 283 0 315 0 c 2
 1064 0 l 2
 1096 0 1114 27 1114 57 c 0
 1114 91 1100 120 1065 120 c 2
 779 120 l 1
 779 1050 l 1
 1065 1050 l 2
 1100 1050 1114 1079 1114 1113 c 0
 1114 1143 1096 1171 1064 1171 c 2
 315 1171 l 2
 283 1171 265 1143 265 1113 c 0
 265 1079 279 1050 314 1050 c 2
 619 1050 l 1
 619 120 l 1
 314 120 l 2
 279 120 265 91 265 57 c 0
EndSplineSet
EndChar

StartChar: Iogonek
Encoding: 302 302 53
Width: 1240
VWidth: 0
Flags: W
PickledData: "(dp1
S'com.typemytype.robofont.layerData'
p2
(dp3
s."
LayerCount: 2
Fore
SplineSet
875.5 -363.8 m 0
 939.5 -363.8 997.5 -321.8 997.5 -286.8 c 0
 997.5 -245.8 903.5 -263.8 903.5 -187.8 c 0
 903.5 -122.8 985.5 8.2002 979.5 8.2002 c 2
 925.5 8.2002 l 1
 809.5 -87.7998 764.5 -207.8 764.5 -256.8 c 0
 764.5 -335.8 812.5 -363.8 875.5 -363.8 c 0
265 57 m 0
 265 27 283 0 315 0 c 2
 1064 0 l 2
 1096 0 1114 27 1114 57 c 0
 1114 91 1100 120 1065 120 c 2
 779 120 l 1
 779 1050 l 1
 1065 1050 l 2
 1100 1050 1114 1079 1114 1113 c 0
 1114 1143 1096 1171 1064 1171 c 2
 315 1171 l 2
 283 1171 265 1143 265 1113 c 0
 265 1079 279 1050 314 1050 c 2
 619 1050 l 1
 619 120 l 1
 314 120 l 2
 279 120 265 91 265 57 c 0
EndSplineSet
EndChar

StartChar: Itilde
Encoding: 296 296 54
Width: 1240
VWidth: 0
Flags: W
PickledData: "(dp1
S'com.typemytype.robofont.layerData'
p2
(dp3
s."
LayerCount: 2
Fore
SplineSet
448.5 1546 m 0
 448.5 1521 471.5 1509 498.5 1509 c 0
 526.5 1509 526.5 1606 584.5 1606 c 0
 637.5 1606 714.5 1509 793.5 1509 c 0
 879.5 1509 947.5 1584 947.5 1690 c 0
 947.5 1715 924.5 1727 897.5 1727 c 0
 864.5 1727 862.5 1630 801.5 1630 c 0
 763.5 1630 684.5 1727 578.5 1727 c 0
 506.5 1727 448.5 1652 448.5 1546 c 0
265 57 m 0
 265 27 283 0 315 0 c 2
 1064 0 l 2
 1096 0 1114 27 1114 57 c 0
 1114 91 1100 120 1065 120 c 2
 779 120 l 1
 779 1050 l 1
 1065 1050 l 2
 1100 1050 1114 1079 1114 1113 c 0
 1114 1143 1096 1171 1064 1171 c 2
 315 1171 l 2
 283 1171 265 1143 265 1113 c 0
 265 1079 279 1050 314 1050 c 2
 619 1050 l 1
 619 120 l 1
 314 120 l 2
 279 120 265 91 265 57 c 0
EndSplineSet
EndChar

StartChar: J
Encoding: 74 74 55
Width: 1240
VWidth: 0
Flags: W
PickledData: "(dp1
S'com.typemytype.robofont.layerData'
p2
(dp3
s."
LayerCount: 2
Fore
SplineSet
659 303 m 2
 659 1050 l 1
 840 1050 l 2
 875 1050 889 1079 889 1113 c 0
 889 1143 871 1171 839 1171 c 2
 281 1171 l 2
 249 1171 232 1143 232 1113 c 0
 232 1079 245 1050 280 1050 c 2
 500 1050 l 1
 500 285 l 2
 500 84 404 21 325 21 c 0
 269 21 222 50 221 83 c 1
 221 170 l 2
 221 212 182 234 138 234 c 0
 81 234 58 207 58 154 c 2
 58 64 l 2
 58 -32 176 -108 315 -108 c 0
 509 -108 659 17 659 303 c 2
EndSplineSet
EndChar

StartChar: Jcircumflex
Encoding: 308 308 56
Width: 1240
VWidth: 0
Flags: W
PickledData: "(dp1
S'com.typemytype.robofont.layerData'
p2
(dp3
s."
LayerCount: 2
Fore
SplineSet
569 1657 m 0
 556 1657 543 1653 538 1645 c 2
 354 1362 l 1
 349 1357 347 1350 347 1345 c 0
 347 1329 366 1316 384 1316 c 0
 392 1316 402 1317 407 1325 c 2
 569 1534 l 1
 732 1325 l 2
 737 1317 747 1316 755 1316 c 0
 773 1316 792 1329 792 1345 c 0
 792 1350 790 1357 785 1362 c 1
 601 1645 l 2
 596 1653 582 1657 569 1657 c 0
659 303 m 2
 659 1050 l 1
 840 1050 l 2
 875 1050 889 1079 889 1113 c 0
 889 1143 871 1171 839 1171 c 2
 281 1171 l 2
 249 1171 232 1143 232 1113 c 0
 232 1079 245 1050 280 1050 c 2
 500 1050 l 1
 500 285 l 2
 500 84 404 21 325 21 c 0
 269 21 222 50 221 83 c 1
 221 170 l 2
 221 212 182 234 138 234 c 0
 81 234 58 207 58 154 c 2
 58 64 l 2
 58 -32 176 -108 315 -108 c 0
 509 -108 659 17 659 303 c 2
EndSplineSet
EndChar

StartChar: K
Encoding: 75 75 57
Width: 1240
VWidth: 0
Flags: W
PickledData: "(dp1
S'com.typemytype.robofont.layerData'
p2
(dp3
s."
LayerCount: 2
Fore
SplineSet
33 57 m 0
 33 27 52 0 84 0 c 2
 585 0 l 2
 617 0 635 27 635 57 c 0
 635 91 621 120 586 120 c 2
 392 120 l 1
 392 452 l 1
 613 622 l 1
 1065 120 l 1
 929 120 l 2
 894 120 880 91 880 57 c 0
 880 27 898 0 930 0 c 2
 1348 0 l 2
 1380 0 1397 27 1397 57 c 0
 1397 91 1384 120 1349 120 c 2
 1252 120 l 1
 715 694 l 1
 1129 1050 l 1
 1237 1050 l 2
 1272 1050 1285 1079 1285 1113 c 0
 1285 1143 1268 1171 1236 1171 c 2
 874 1171 l 2
 842 1171 824 1143 824 1113 c 0
 824 1077 840 1060 873 1060 c 2
 921 1060 l 2
 936 1060 943 1055 943 1045 c 0
 943 1036 937 1028 933 1024 c 2
 392 575 l 1
 392 1050 l 1
 531 1050 l 2
 566 1050 579 1079 579 1113 c 0
 579 1143 561 1171 529 1171 c 2
 84 1171 l 2
 52 1171 33 1143 33 1113 c 0
 33 1079 48 1050 83 1050 c 2
 232 1050 l 1
 232 120 l 1
 83 120 l 2
 48 120 33 91 33 57 c 0
EndSplineSet
EndChar

StartChar: Kcommaaccent
Encoding: 310 310 58
Width: 1240
VWidth: 0
Flags: W
PickledData: "(dp1
S'com.typemytype.robofont.layerData'
p2
(dp3
s."
LayerCount: 2
Fore
SplineSet
604 -498 m 0
 767 -498 868 -384 868 -236 c 0
 868 -153 825 -83 740 -83 c 0
 642 -83 589 -130 589 -208 c 0
 589 -252 629 -302 699 -302 c 0
 717 -302 737 -299 757 -292 c 1
 757 -420 563 -368 563 -455 c 0
 563 -479 576 -498 604 -498 c 0
33 57 m 0
 33 27 52 0 84 0 c 2
 585 0 l 2
 617 0 635 27 635 57 c 0
 635 91 621 120 586 120 c 2
 392 120 l 1
 392 452 l 1
 613 622 l 1
 1065 120 l 1
 929 120 l 2
 894 120 880 91 880 57 c 0
 880 27 898 0 930 0 c 2
 1348 0 l 2
 1380 0 1397 27 1397 57 c 0
 1397 91 1384 120 1349 120 c 2
 1252 120 l 1
 715 694 l 1
 1129 1050 l 1
 1237 1050 l 2
 1272 1050 1285 1079 1285 1113 c 0
 1285 1143 1268 1171 1236 1171 c 2
 874 1171 l 2
 842 1171 824 1143 824 1113 c 0
 824 1077 840 1060 873 1060 c 2
 921 1060 l 2
 936 1060 943 1055 943 1045 c 0
 943 1036 937 1028 933 1024 c 2
 392 575 l 1
 392 1050 l 1
 531 1050 l 2
 566 1050 579 1079 579 1113 c 0
 579 1143 561 1171 529 1171 c 2
 84 1171 l 2
 52 1171 33 1143 33 1113 c 0
 33 1079 48 1050 83 1050 c 2
 232 1050 l 1
 232 120 l 1
 83 120 l 2
 48 120 33 91 33 57 c 0
EndSplineSet
EndChar

StartChar: L
Encoding: 76 76 59
Width: 1240
VWidth: 0
Flags: W
PickledData: "(dp1
S'com.typemytype.robofont.layerData'
p2
(dp3
s."
LayerCount: 2
Fore
SplineSet
691 1113 m 0
 691 1143 672 1171 640 1171 c 2
 167 1171 l 2
 135 1171 117 1143 117 1113 c 0
 117 1079 131 1050 166 1050 c 2
 329 1050 l 1
 329 120 l 1
 124 120 l 2
 89 120 74 91 74 57 c 0
 74 27 93 0 125 0 c 2
 1061 0 l 2
 1086 0 1100 20 1103 46 c 2
 1133 387 l 1
 1133 423 1099.32 442 1061 442 c 0
 1023.29 442 998.536 429 995 399 c 2
 975 207 l 1
 971.531 135 935.102 120 890 120 c 2
 489 120 l 1
 489 1050 l 1
 641 1050 l 2
 676 1050 691 1079 691 1113 c 0
EndSplineSet
EndChar

StartChar: Lacute
Encoding: 313 313 60
Width: 1240
VWidth: 0
Flags: W
PickledData: "(dp1
S'com.typemytype.robofont.layerData'
p2
(dp3
s."
LayerCount: 2
Fore
SplineSet
1073.5 1614 m 0
 1062.5 1614 1053.5 1611 1045.5 1604 c 0
 952.5 1524 840.5 1436 738.5 1368 c 0
 730.5 1363 726.5 1357 726.5 1347 c 0
 726.5 1330 742.5 1312 760.5 1312 c 0
 763.5 1312 768.5 1313 773.5 1316 c 0
 884.5 1380 1005.5 1458 1113.5 1526 c 0
 1125.5 1534 1130.5 1545 1130.5 1557 c 0
 1130.5 1585 1102.5 1614 1073.5 1614 c 0
691 1113 m 0
 691 1143 672 1171 640 1171 c 2
 167 1171 l 2
 135 1171 117 1143 117 1113 c 0
 117 1079 131 1050 166 1050 c 2
 329 1050 l 1
 329 120 l 1
 124 120 l 2
 89 120 74 91 74 57 c 0
 74 27 93 0 125 0 c 2
 1061 0 l 2
 1086 0 1100 20 1103 46 c 2
 1133 387 l 1
 1133 423 1099.32 442 1061 442 c 0
 1023.29 442 998.536 429 995 399 c 2
 975 207 l 1
 971.53 135 935.102 120 890 120 c 2
 489 120 l 1
 489 1050 l 1
 641 1050 l 2
 676 1050 691 1079 691 1113 c 0
EndSplineSet
EndChar

StartChar: Lcaron
Encoding: 317 317 61
Width: 1240
VWidth: 0
Flags: W
PickledData: "(dp1
S'com.typemytype.robofont.layerData'
p2
(dp3
s."
LayerCount: 2
Fore
SplineSet
1536.5 1187 m 0
 1476.5 1187 1420.5 1151 1420.5 1081 c 0
 1420.5 1011 1474.5 979 1548.5 979 c 1
 1548.5 901 1479.5 856 1426.5 821 c 0
 1411.5 811 1405.5 798 1405.5 786 c 0
 1405.5 762 1427.5 739 1456.5 739 c 0
 1466.5 739 1477.5 742 1488.5 748 c 0
 1591.5 800 1676.5 892 1676.5 1036 c 0
 1676.5 1137 1611.5 1187 1536.5 1187 c 0
691 1113 m 0
 691 1143 672 1171 640 1171 c 2
 167 1171 l 2
 135 1171 117 1143 117 1113 c 0
 117 1079 131 1050 166 1050 c 2
 329 1050 l 1
 329 120 l 1
 124 120 l 2
 89 120 74 91 74 57 c 0
 74 27 93 0 125 0 c 2
 1061 0 l 2
 1086 0 1100 20 1103 46 c 2
 1133 387 l 1
 1133 423 1099.32 442 1061 442 c 0
 1023.29 442 998.536 429 995 399 c 2
 975 207 l 1
 971.53 135 935.102 120 890 120 c 2
 489 120 l 1
 489 1050 l 1
 641 1050 l 2
 676 1050 691 1079 691 1113 c 0
EndSplineSet
EndChar

StartChar: Lcommaaccent
Encoding: 315 315 62
Width: 1240
VWidth: 0
Flags: W
PickledData: "(dp1
S'com.typemytype.robofont.layerData'
p2
(dp3
s."
LayerCount: 2
Fore
SplineSet
513 -498 m 0
 676 -498 777 -384 777 -236 c 0
 777 -153 734 -83 649 -83 c 0
 551 -83 498 -130 498 -208 c 0
 498 -252 538 -302 608 -302 c 0
 626 -302 646 -299 666 -292 c 1
 666 -420 472 -368 472 -455 c 0
 472 -479 485 -498 513 -498 c 0
691 1113 m 0
 691 1143 672 1171 640 1171 c 2
 167 1171 l 2
 135 1171 117 1143 117 1113 c 0
 117 1079 131 1050 166 1050 c 2
 329 1050 l 1
 329 120 l 1
 124 120 l 2
 89 120 74 91 74 57 c 0
 74 27 93 0 125 0 c 2
 1061 0 l 2
 1086 0 1100 20 1103 46 c 2
 1133 387 l 1
 1133 423 1099.32 442 1061 442 c 0
 1023.29 442 998.536 429 995 399 c 2
 975 207 l 1
 971.53 135 935.102 120 890 120 c 2
 489 120 l 1
 489 1050 l 1
 641 1050 l 2
 676 1050 691 1079 691 1113 c 0
EndSplineSet
EndChar

StartChar: Ldot
Encoding: 319 319 63
Width: 1240
VWidth: 0
Flags: W
PickledData: "(dp1
S'com.typemytype.robofont.layerData'
p2
(dp3
s."
LayerCount: 2
Fore
SplineSet
624 450 m 0
 707 450 769 511 769 594 c 0
 769 677 707 738 624 738 c 0
 541 738 480 677 480 594 c 0
 480 511 541 450 624 450 c 0
691 1113 m 0
 691 1143 672 1171 640 1171 c 2
 167 1171 l 2
 135 1171 117 1143 117 1113 c 0
 117 1079 131 1050 166 1050 c 2
 329 1050 l 1
 329 120 l 1
 124 120 l 2
 89 120 74 91 74 57 c 0
 74 27 93 0 125 0 c 2
 1061 0 l 2
 1086 0 1100 20 1103 46 c 2
 1133 387 l 1
 1133 423 1099.32 442 1061 442 c 0
 1023.29 442 998.536 429 995 399 c 2
 975 207 l 1
 971.53 135 935.102 120 890 120 c 2
 489 120 l 1
 489 1050 l 1
 641 1050 l 2
 676 1050 691 1079 691 1113 c 0
EndSplineSet
EndChar

StartChar: Lslash
Encoding: 321 321 64
Width: 1240
VWidth: 0
Flags: W
PickledData: "(dp1
S'com.typemytype.robofont.layerData'
p2
(dp3
s."
LayerCount: 2
Fore
SplineSet
663 1113 m 0
 663 1143 644 1171 612 1171 c 2
 139 1171 l 2
 107 1171 89 1143 89 1113 c 0
 89 1079 103 1050 138 1050 c 2
 301 1050 l 1
 301 723 l 1
 152 666 l 1
 134 661 122 636 122 613 c 0
 122 590 134 569 170 569 c 0
 182 569 196 571 212 576 c 1
 301 610 l 1
 301 120 l 1
 96 120 l 2
 61 120 46 91 46 57 c 0
 46 27 65 0 97 0 c 2
 1155 0 l 2
 1180 0 1194 20 1197 46 c 2
 1227 387 l 1
 1227 423 1198 442 1165 442 c 0
 1133 442 1112 429 1109 399 c 2
 1089 207 l 1
 1083 135 1020 120 942 120 c 2
 461 120 l 1
 461 672 l 1
 694 762 l 1
 710 767 724 792 724 816 c 0
 724 839 712 860 678 860 c 0
 667 860 654 858 640 854 c 1
 461 785 l 1
 461 1050 l 1
 613 1050 l 2
 648 1050 663 1079 663 1113 c 0
EndSplineSet
EndChar

StartChar: M
Encoding: 77 77 65
Width: 1240
VWidth: 0
Flags: W
PickledData: "(dp1
S'com.typemytype.robofont.layerData'
p2
(dp3
s."
LayerCount: 2
Fore
SplineSet
766 57 m 0
 766 27 785.5 0 817 0 c 2
 1170 0 l 2
 1202 0 1220 27 1220 57 c 0
 1220 91 1207 120 1172 120 c 2
 1053 120 l 1
 1053 1050 l 1
 1157 1050 l 2
 1192 1050 1207 1079 1207 1113 c 0
 1207 1143 1188 1171 1156 1171 c 2
 958 1171 l 2
 935.5 1171 920.5 1158 913 1141 c 2
 627 524 l 1
 331 1136 l 2
 321.5 1154 309.5 1171 285 1171 c 2
 84 1171 l 2
 52 1171 34 1143 34 1113 c 0
 34 1079 48 1050 83 1050 c 2
 192 1050 l 1
 192 120 l 1
 69 120 l 2
 34 120 20 91 20 57 c 0
 20 27 38 0 70 0 c 2
 417 0 l 2
 449.5 0 468 27 468 57 c 0
 468 91 453.5 120 418 120 c 2
 335 120 l 1
 335 853 l 1
 565 363 l 2
 573.5 345 599 325 627 325 c 0
 658 325 682 346 691 370 c 1
 908 844 l 1
 908 120 l 1
 815 120 l 2
 779.5 120 766 91 766 57 c 0
EndSplineSet
EndChar

StartChar: N
Encoding: 78 78 66
Width: 1240
VWidth: 0
Flags: W
PickledData: "(dp1
S'com.typemytype.robofont.layerData'
p2
(dp3
s."
LayerCount: 2
Fore
SplineSet
69 1113 m 0
 69 1079 83 1050 118 1050 c 2
 244 1050 l 1
 244 120 l 1
 148 120 l 2
 113 120 99 91 99 57 c 0
 99 27 117 0 149 0 c 2
 507 0 l 2
 539 0 557 27 557 57 c 0
 557 91 543 120 508 120 c 2
 388 120 l 1
 388 1024 l 1
 923 11 l 2
 934 -9 957 -25 986 -25 c 0
 1019 -25 1048 1 1048 36 c 2
 1048 1050 l 1
 1124 1050 l 2
 1159 1050 1172 1079 1172 1113 c 0
 1172 1143 1154 1171 1122 1171 c 2
 785 1171 l 2
 753 1171 734 1143 734 1113 c 0
 734 1079 748 1050 783 1050 c 2
 906 1050 l 1
 906 321 l 1
 466 1147 l 2
 458 1164 448 1171 426 1171 c 2
 119 1171 l 2
 87 1171 69 1143 69 1113 c 0
EndSplineSet
EndChar

StartChar: Nacute
Encoding: 323 323 67
Width: 1240
VWidth: 0
Flags: W
PickledData: "(dp1
S'com.typemytype.robofont.layerData'
p2
(dp3
s."
LayerCount: 2
Fore
SplineSet
996.5 1614 m 0
 985.5 1614 976.5 1611 968.5 1604 c 0
 875.5 1524 763.5 1436 661.5 1368 c 0
 653.5 1363 649.5 1357 649.5 1347 c 0
 649.5 1330 665.5 1312 683.5 1312 c 0
 686.5 1312 691.5 1313 696.5 1316 c 0
 807.5 1380 928.5 1458 1036.5 1526 c 0
 1048.5 1534 1053.5 1545 1053.5 1557 c 0
 1053.5 1585 1025.5 1614 996.5 1614 c 0
69 1113 m 0
 69 1079 83 1050 118 1050 c 2
 244 1050 l 1
 244 120 l 1
 148 120 l 2
 113 120 99 91 99 57 c 0
 99 27 117 0 149 0 c 2
 507 0 l 2
 539 0 557 27 557 57 c 0
 557 91 543 120 508 120 c 2
 388 120 l 1
 388 1024 l 1
 923 11 l 2
 934 -9 957 -25 986 -25 c 0
 1019 -25 1048 1 1048 36 c 2
 1048 1050 l 1
 1124 1050 l 2
 1159 1050 1172 1079 1172 1113 c 0
 1172 1143 1154 1171 1122 1171 c 2
 785 1171 l 2
 753 1171 734 1143 734 1113 c 0
 734 1079 748 1050 783 1050 c 2
 906 1050 l 1
 906 321 l 1
 466 1147 l 2
 458 1164 448 1171 426 1171 c 2
 119 1171 l 2
 87 1171 69 1143 69 1113 c 0
EndSplineSet
EndChar

StartChar: Ncaron
Encoding: 327 327 68
Width: 1240
VWidth: 0
Flags: W
PickledData: "(dp1
S'com.typemytype.robofont.layerData'
p2
(dp3
s."
LayerCount: 2
Fore
SplineSet
695 1316 m 0
 708 1316 722 1319 727 1327 c 2
 911 1610 l 1
 916 1615 918 1622 918 1627 c 0
 918 1643 899 1657 881 1657 c 0
 873 1657 863 1656 858 1648 c 2
 695 1439 l 1
 533 1648 l 2
 528 1656 518 1657 510 1657 c 0
 492 1657 473 1643 473 1627 c 0
 473 1622 475 1615 480 1610 c 1
 664 1327 l 2
 669 1319 682 1316 695 1316 c 0
69 1113 m 0
 69 1079 83 1050 118 1050 c 2
 244 1050 l 1
 244 120 l 1
 148 120 l 2
 113 120 99 91 99 57 c 0
 99 27 117 0 149 0 c 2
 507 0 l 2
 539 0 557 27 557 57 c 0
 557 91 543 120 508 120 c 2
 388 120 l 1
 388 1024 l 1
 923 11 l 2
 934 -9 957 -25 986 -25 c 0
 1019 -25 1048 1 1048 36 c 2
 1048 1050 l 1
 1124 1050 l 2
 1159 1050 1172 1079 1172 1113 c 0
 1172 1143 1154 1171 1122 1171 c 2
 785 1171 l 2
 753 1171 734 1143 734 1113 c 0
 734 1079 748 1050 783 1050 c 2
 906 1050 l 1
 906 321 l 1
 466 1147 l 2
 458 1164 448 1171 426 1171 c 2
 119 1171 l 2
 87 1171 69 1143 69 1113 c 0
EndSplineSet
EndChar

StartChar: Ncommaaccent
Encoding: 325 325 69
Width: 1240
VWidth: 0
Flags: W
PickledData: "(dp1
S'com.typemytype.robofont.layerData'
p2
(dp3
s."
LayerCount: 2
Fore
SplineSet
588 -524 m 0
 751 -524 852 -410 852 -262 c 0
 852 -179 809 -109 724 -109 c 0
 626 -109 573 -156 573 -234 c 0
 573 -278 613 -328 683 -328 c 0
 701 -328 721 -325 741 -318 c 1
 741 -446 547 -394 547 -481 c 0
 547 -505 560 -524 588 -524 c 0
69 1113 m 0
 69 1079 83 1050 118 1050 c 2
 244 1050 l 1
 244 120 l 1
 148 120 l 2
 113 120 99 91 99 57 c 0
 99 27 117 0 149 0 c 2
 507 0 l 2
 539 0 557 27 557 57 c 0
 557 91 543 120 508 120 c 2
 388 120 l 1
 388 1024 l 1
 923 11 l 2
 934 -9 957 -25 986 -25 c 0
 1019 -25 1048 1 1048 36 c 2
 1048 1050 l 1
 1124 1050 l 2
 1159 1050 1172 1079 1172 1113 c 0
 1172 1143 1154 1171 1122 1171 c 2
 785 1171 l 2
 753 1171 734 1143 734 1113 c 0
 734 1079 748 1050 783 1050 c 2
 906 1050 l 1
 906 321 l 1
 466 1147 l 2
 458 1164 448 1171 426 1171 c 2
 119 1171 l 2
 87 1171 69 1143 69 1113 c 0
EndSplineSet
EndChar

StartChar: Ntilde
Encoding: 209 209 70
Width: 1240
VWidth: 0
Flags: W
PickledData: "(dp1
S'com.typemytype.robofont.layerData'
p2
(dp3
s."
LayerCount: 2
Fore
SplineSet
371 1346 m 0
 371 1321 394 1309 421 1309 c 0
 449 1309 449 1406 507 1406 c 0
 560 1406 637 1309 716 1309 c 0
 802 1309 870 1384 870 1490 c 0
 870 1515 847 1527 820 1527 c 0
 787 1527 785 1430 724 1430 c 0
 686 1430 607 1527 501 1527 c 0
 429 1527 371 1452 371 1346 c 0
69 1113 m 0
 69 1079 83 1050 118 1050 c 2
 244 1050 l 1
 244 120 l 1
 148 120 l 2
 113 120 99 91 99 57 c 0
 99 27 117 0 149 0 c 2
 507 0 l 2
 539 0 557 27 557 57 c 0
 557 91 543 120 508 120 c 2
 388 120 l 1
 388 1024 l 1
 923 11 l 2
 934 -9 957 -25 986 -25 c 0
 1019 -25 1048 1 1048 36 c 2
 1048 1050 l 1
 1124 1050 l 2
 1159 1050 1172 1079 1172 1113 c 0
 1172 1143 1154 1171 1122 1171 c 2
 785 1171 l 2
 753 1171 734 1143 734 1113 c 0
 734 1079 748 1050 783 1050 c 2
 906 1050 l 1
 906 321 l 1
 466 1147 l 2
 458 1164 448 1171 426 1171 c 2
 119 1171 l 2
 87 1171 69 1143 69 1113 c 0
EndSplineSet
EndChar

StartChar: O
Encoding: 79 79 71
Width: 1240
VWidth: 0
Flags: W
PickledData: "(dp1
S'com.typemytype.robofont.layerData'
p2
(dp3
s."
LayerCount: 2
Fore
SplineSet
620 1059 m 0
 850.505 1059 968 821 968 582 c 0
 968 347 854.093 111 620 111 c 0
 385.907 111 272 347 272 582 c 0
 272 821 389.495 1059 620 1059 c 0
620 -17 m 0
 961.334 -17 1132 281 1132 582 c 0
 1132 883 961.334 1187 620 1187 c 0
 278.666 1187 108 883 108 582 c 0
 108 281 278.666 -17 620 -17 c 0
EndSplineSet
EndChar

StartChar: OE
Encoding: 338 338 72
Width: 1240
VWidth: 0
Flags: W
PickledData: "(dp1
S'com.typemytype.robofont.layerData'
p2
(dp3
s."
LayerCount: 2
Fore
SplineSet
649 -17 m 0
 834 -17 1028 73 1085 212 c 1
 1085 0 l 1
 1931 0 l 2
 1964 0 1977 20 1987 53 c 1
 2030 320 l 1
 2033 328 2034 337 2034 347 c 0
 2034 378 2014 398 1984 398 c 0
 1948 398 1927 375 1914 346 c 1
 1835 120 l 1
 1244 120 l 1
 1244 562 l 1
 1473 562 l 1
 1507 435 l 1
 1515 410 1533 389 1562 389 c 0
 1593 389 1610 411 1610 443 c 1
 1600 614 l 1
 1610 779 l 1
 1610 811 1593 834 1562 834 c 0
 1533 834 1515 812 1507 787 c 1
 1473 660 l 1
 1244 660 l 1
 1244 1050 l 1
 1835 1050 l 1
 1908 876 l 2
 1920 847 1945 824 1979 824 c 0
 2008 824 2029 844 2029 874 c 0
 2029 882 2027 891 2024 901 c 2
 1959 1117 l 1
 1948 1149 1936 1171 1903 1171 c 2
 1085 1171 l 1
 1085 947 l 1
 1014 1099 835 1188 649 1188 c 0
 297 1188 51 944 51 581 c 0
 51 219 297 -17 649 -17 c 0
643 1059 m 0
 920 1059 1085 862 1085 579 c 0
 1085 299 924 112 654 112 c 0
 379 112 221 304 221 581 c 0
 221 858 376 1059 643 1059 c 0
EndSplineSet
EndChar

StartChar: Oacute
Encoding: 211 211 73
Width: 1240
VWidth: 0
Flags: W
PickledData: "(dp1
S'com.typemytype.robofont.layerData'
p2
(dp3
s."
LayerCount: 2
Fore
SplineSet
926.5 1611 m 0
 915.5 1611 906.5 1608 898.5 1601 c 0
 805.5 1521 693.5 1433 591.5 1365 c 0
 583.5 1360 579.5 1354 579.5 1344 c 0
 579.5 1327 595.5 1309 613.5 1309 c 0
 616.5 1309 621.5 1310 626.5 1313 c 0
 737.5 1377 858.5 1455 966.5 1523 c 0
 978.5 1531 983.5 1542 983.5 1554 c 0
 983.5 1582 955.5 1611 926.5 1611 c 0
620 1059 m 0
 850.506 1059 968 821 968 582 c 0
 968 347 854.093 111 620 111 c 0
 385.907 111 272 347 272 582 c 0
 272 821 389.494 1059 620 1059 c 0
620 -17 m 0
 961.334 -17 1132 281 1132 582 c 0
 1132 883 961.334 1187 620 1187 c 0
 278.666 1187 108 883 108 582 c 0
 108 281 278.666 -17 620 -17 c 0
EndSplineSet
EndChar

StartChar: Obreve
Encoding: 334 334 74
Width: 1240
VWidth: 0
Flags: W
PickledData: "(dp1
S'com.typemytype.robofont.layerData'
p2
(dp3
s."
LayerCount: 2
Fore
SplineSet
477.5 1544 m 0
 473.5 1555 464.5 1558 455.5 1558 c 0
 437.5 1558 417.5 1541 417.5 1526 c 0
 417.5 1382 518.5 1310 619.5 1310 c 0
 720.5 1310 822.5 1382 822.5 1526 c 0
 822.5 1541 802.5 1558 784.5 1558 c 0
 775.5 1558 765.5 1555 761.5 1544 c 0
 730.5 1462 674.5 1421 619.5 1421 c 0
 564.5 1421 508.5 1462 477.5 1544 c 0
620 1059 m 0
 850.506 1059 968 821 968 582 c 0
 968 347 854.093 111 620 111 c 0
 385.907 111 272 347 272 582 c 0
 272 821 389.494 1059 620 1059 c 0
620 -17 m 0
 961.334 -17 1132 281 1132 582 c 0
 1132 883 961.334 1187 620 1187 c 0
 278.666 1187 108 883 108 582 c 0
 108 281 278.666 -17 620 -17 c 0
EndSplineSet
EndChar

StartChar: Ocircumflex
Encoding: 212 212 75
Width: 1240
VWidth: 0
Flags: W
PickledData: "(dp1
S'com.typemytype.robofont.layerData'
p2
(dp3
s."
LayerCount: 2
Fore
SplineSet
619.5 1650 m 0
 606.5 1650 593.5 1646 588.5 1638 c 2
 404.5 1355 l 1
 399.5 1350 397.5 1343 397.5 1338 c 0
 397.5 1322 416.5 1309 434.5 1309 c 0
 442.5 1309 452.5 1310 457.5 1318 c 2
 619.5 1527 l 1
 782.5 1318 l 2
 787.5 1310 797.5 1309 805.5 1309 c 0
 823.5 1309 842.5 1322 842.5 1338 c 0
 842.5 1343 840.5 1350 835.5 1355 c 1
 651.5 1638 l 2
 646.5 1646 632.5 1650 619.5 1650 c 0
620 1059 m 0
 850.506 1059 968 821 968 582 c 0
 968 347 854.093 111 620 111 c 0
 385.907 111 272 347 272 582 c 0
 272 821 389.494 1059 620 1059 c 0
620 -17 m 0
 961.334 -17 1132 281 1132 582 c 0
 1132 883 961.334 1187 620 1187 c 0
 278.666 1187 108 883 108 582 c 0
 108 281 278.666 -17 620 -17 c 0
EndSplineSet
EndChar

StartChar: Odieresis
Encoding: 214 214 76
Width: 1240
VWidth: 0
Flags: W
PickledData: "(dp1
S'com.typemytype.robofont.layerData'
p2
(dp3
s."
LayerCount: 2
Fore
SplineSet
452.5 1309 m 0
 502.5 1309 543.5 1350 543.5 1400 c 0
 543.5 1450 502.5 1491 452.5 1491 c 0
 402.5 1491 361.5 1450 361.5 1400 c 0
 361.5 1350 402.5 1309 452.5 1309 c 0
787.5 1309 m 0
 837.5 1309 878.5 1350 878.5 1400 c 0
 878.5 1450 837.5 1491 787.5 1491 c 0
 737.5 1491 697.5 1450 697.5 1400 c 0
 697.5 1350 737.5 1309 787.5 1309 c 0
620 1059 m 0
 850.506 1059 968 821 968 582 c 0
 968 347 854.093 111 620 111 c 0
 385.907 111 272 347 272 582 c 0
 272 821 389.494 1059 620 1059 c 0
620 -17 m 0
 961.334 -17 1132 281 1132 582 c 0
 1132 883 961.334 1187 620 1187 c 0
 278.666 1187 108 883 108 582 c 0
 108 281 278.666 -17 620 -17 c 0
EndSplineSet
EndChar

StartChar: Ograve
Encoding: 210 210 77
Width: 1240
VWidth: 0
Flags: W
PickledData: "(dp1
S'com.typemytype.robofont.layerData'
p2
(dp3
s."
LayerCount: 2
Fore
SplineSet
659 1344 m 0
 659 1354 657 1360 649 1365 c 0
 547 1433 434 1521 341 1601 c 0
 333 1608 324 1611 313 1611 c 0
 284 1611 255 1582 255 1554 c 0
 255 1542 262 1531 274 1523 c 0
 381 1456 503 1377 614 1313 c 1
 617 1310 621 1309 626 1309 c 0
 644 1309 659 1327 659 1344 c 0
620 1059 m 0
 850.506 1059 968 821 968 582 c 0
 968 347 854.093 111 620 111 c 0
 385.907 111 272 347 272 582 c 0
 272 821 389.494 1059 620 1059 c 0
620 -17 m 0
 961.334 -17 1132 281 1132 582 c 0
 1132 883 961.334 1187 620 1187 c 0
 278.666 1187 108 883 108 582 c 0
 108 281 278.666 -17 620 -17 c 0
EndSplineSet
EndChar

StartChar: Ohungarumlaut
Encoding: 336 336 78
Width: 1240
VWidth: 0
Flags: W
PickledData: "(dp1
S'com.typemytype.robofont.layerData'
p2
(dp3
s."
LayerCount: 2
Fore
SplineSet
847.5 1614 m 0
 836.5 1614 827.5 1611 819.5 1604 c 0
 726.5 1524 614.5 1436 512.5 1368 c 0
 504.5 1363 500.5 1357 500.5 1347 c 0
 500.5 1330 516.5 1312 534.5 1312 c 0
 537.5 1312 542.5 1313 547.5 1316 c 0
 658.5 1380 779.5 1458 887.5 1526 c 0
 899.5 1534 904.5 1545 904.5 1557 c 0
 904.5 1585 876.5 1614 847.5 1614 c 0
1103.5 1614 m 0
 1092.5 1614 1083.5 1611 1075.5 1604 c 0
 982.5 1524 870.5 1436 768.5 1368 c 0
 760.5 1363 756.5 1357 756.5 1347 c 0
 756.5 1330 772.5 1312 790.5 1312 c 0
 793.5 1312 798.5 1313 803.5 1316 c 0
 914.5 1380 1034.5 1458 1142.5 1526 c 0
 1154.5 1534 1161.5 1545 1161.5 1557 c 0
 1161.5 1585 1132.5 1614 1103.5 1614 c 0
620 1059 m 0
 850.506 1059 968 821 968 582 c 0
 968 347 854.093 111 620 111 c 0
 385.907 111 272 347 272 582 c 0
 272 821 389.494 1059 620 1059 c 0
620 -17 m 0
 961.334 -17 1132 281 1132 582 c 0
 1132 883 961.334 1187 620 1187 c 0
 278.666 1187 108 883 108 582 c 0
 108 281 278.666 -17 620 -17 c 0
EndSplineSet
EndChar

StartChar: Omacron
Encoding: 332 332 79
Width: 1240
VWidth: 0
Flags: W
PickledData: "(dp1
S'com.typemytype.robofont.layerData'
p2
(dp3
s."
LayerCount: 2
Fore
SplineSet
806.5 1349 m 2
 839.5 1349 857.5 1376 857.5 1403 c 0
 857.5 1430 840.5 1456 807.5 1456 c 2
 440.5 1456 l 2
 406.5 1456 388.5 1430 388.5 1403 c 0
 388.5 1376 406.5 1349 444.5 1349 c 2
 806.5 1349 l 2
620 1059 m 0
 850.506 1059 968 821 968 582 c 0
 968 347 854.093 111 620 111 c 0
 385.907 111 272 347 272 582 c 0
 272 821 389.494 1059 620 1059 c 0
620 -17 m 0
 961.334 -17 1132 281 1132 582 c 0
 1132 883 961.334 1187 620 1187 c 0
 278.666 1187 108 883 108 582 c 0
 108 281 278.666 -17 620 -17 c 0
EndSplineSet
EndChar

StartChar: Oslash
Encoding: 216 216 80
Width: 1240
VWidth: 0
Flags: W
PickledData: "(dp1
S'com.typemytype.robofont.layerData'
p2
(dp3
s."
LayerCount: 2
Fore
SplineSet
654 1059 m 0
 712 1059 765 1051 813 1035 c 1
 406 184 l 1
 288 264 223 406 223 581 c 0
 223 858 381 1059 654 1059 c 0
665 112 m 0
 610 112 561 119 516 133 c 1
 921 981 l 1
 1038 898 1103 755 1103 579 c 0
 1103 299 939 112 665 112 c 0
341 -233 m 2
 457 11 l 1
 520 -7 588 -17 660 -17 c 0
 1021 -17 1272 219 1272 581 c 0
 1272 822 1162 1010 982 1110 c 1
 1093 1343 l 2
 1096 1350 1098 1356 1098 1363 c 0
 1098 1397 1059 1421 1028 1421 c 0
 1008 1421 994 1413 986 1395 c 2
 872 1157 l 1
 807 1177 736 1188 660 1188 c 0
 302 1188 53 944 53 581 c 0
 53 339 164 153 345 57 c 1
 229 -186 l 2
 226 -193 223 -199 223 -207 c 0
 223 -240 263 -266 295 -266 c 0
 319 -266 331 -253 341 -233 c 2
EndSplineSet
EndChar

StartChar: Otilde
Encoding: 213 213 81
Width: 1240
VWidth: 0
Flags: W
PickledData: "(dp1
S'com.typemytype.robofont.layerData'
p2
(dp3
s."
LayerCount: 2
Fore
SplineSet
370.5 1346 m 0
 370.5 1321 393.5 1309 420.5 1309 c 0
 448.5 1309 448.5 1406 506.5 1406 c 0
 559.5 1406 636.5 1309 715.5 1309 c 0
 801.5 1309 869.5 1384 869.5 1490 c 0
 869.5 1515 846.5 1527 819.5 1527 c 0
 786.5 1527 784.5 1430 723.5 1430 c 0
 685.5 1430 606.5 1527 500.5 1527 c 0
 428.5 1527 370.5 1452 370.5 1346 c 0
620 1059 m 0
 850.506 1059 968 821 968 582 c 0
 968 347 854.093 111 620 111 c 0
 385.907 111 272 347 272 582 c 0
 272 821 389.494 1059 620 1059 c 0
620 -17 m 0
 961.334 -17 1132 281 1132 582 c 0
 1132 883 961.334 1187 620 1187 c 0
 278.666 1187 108 883 108 582 c 0
 108 281 278.666 -17 620 -17 c 0
EndSplineSet
EndChar

StartChar: P
Encoding: 80 80 82
Width: 1240
VWidth: 0
Flags: W
PickledData: "(dp1
S'com.typemytype.robofont.layerData'
p2
(dp3
s."
LayerCount: 2
Fore
SplineSet
923 843 m 0
 923 616.316 756 607 580 607 c 2
 486 607 l 1
 486 1050 l 1
 538 1050 l 2
 712 1050 923 1050 923 843 c 0
1084 833 m 0
 1084 1153.42 803 1171 518 1171 c 2
 188 1171 l 2
 156 1171 138 1143 138 1113 c 0
 138 1079 152 1050 187 1050 c 2
 326 1050 l 1
 326 120 l 1
 173 120 l 2
 138 120 123 91 123 57 c 0
 123 27 142 0 174 0 c 2
 770 0 l 2
 802 0 820 27 820 57 c 0
 820 91 806 120 771 120 c 2
 486 120 l 1
 486 495 l 1
 544 495 l 2
 816 495 1084 509.339 1084 833 c 0
EndSplineSet
EndChar

StartChar: Q
Encoding: 81 81 83
Width: 1240
VWidth: 0
Flags: W
PickledData: "(dp1
S'com.typemytype.robofont.layerData'
p2
(dp3
s."
LayerCount: 2
Fore
SplineSet
620 1059 m 0
 850.505 1059 968 821 968 582 c 0
 968 347 854.093 111 620 111 c 0
 385.907 111 272 347 272 582 c 0
 272 821 389.495 1059 620 1059 c 0
620 -17 m 0
 961.334 -17 1132 281 1132 582 c 0
 1132 883 961.334 1187 620 1187 c 0
 278.666 1187 108 883 108 582 c 0
 108 281 278.666 -17 620 -17 c 0
665 5 m 1
 486 0 l 1
 611.8 -49.9355 687.65 -258 856 -258 c 0
 927 -258 1112 -210 1112 -126 c 0
 1112 -88 1076 -53 1038 -53 c 0
 1028 -53 1018 -56 1010 -61 c 0
 954 -101 905 -121 864 -121 c 0
 838 -121 813 -118 790 -106 c 1
 665 5 l 1
EndSplineSet
EndChar

StartChar: R
Encoding: 82 82 84
Width: 1240
VWidth: 0
Flags: W
PickledData: "(dp1
S'com.typemytype.robofont.layerData'
p2
(dp3
s."
LayerCount: 2
Fore
SplineSet
517 643 m 2
 430 643 l 1
 430 1050 l 1
 492 1050 l 2
 668.838 1050 857 1050 857 846 c 0
 857 647 696.492 643 517 643 c 2
1023 853 m 0
 1023 1146 781.564 1171 513 1171 c 2
 178 1171 l 2
 146 1171 127 1143 127 1113 c 0
 127 1079 142 1050 177 1050 c 2
 270 1050 l 1
 270 121 l 1
 149 121 l 2
 114 121 99 91 99 57 c 0
 99 27 118 0 150 0 c 2
 609 0 l 2
 641 0 659 27 659 57 c 0
 659 91 645 121 610 121 c 2
 430 121 l 1
 430 522 l 1
 585 522 l 2
 738.849 522 771.697 435.865 826 314 c 2
 912 121 l 1
 861 121 l 2
 826 121 812 91 812 57 c 0
 812 27 831 0 863 0 c 2
 1151 0 l 2
 1194 0 1224 6 1224 57 c 0
 1224 104 1205 121 1150 121 c 2
 1066 121 l 1
 963 369 l 1
 912.195 482.848 891.544 528.846 803 558 c 1
 922.39 588.895 1023 667.628 1023 853 c 0
EndSplineSet
EndChar

StartChar: Racute
Encoding: 340 340 85
Width: 1240
VWidth: 0
Flags: W
PickledData: "(dp1
S'com.typemytype.robofont.layerData'
p2
(dp3
s."
LayerCount: 2
Fore
SplineSet
981 1614 m 0
 970 1614 961 1611 953 1604 c 0
 860 1524 748 1436 646 1368 c 0
 638 1363 634 1357 634 1347 c 0
 634 1330 650 1312 668 1312 c 0
 671 1312 676 1313 681 1316 c 0
 792 1380 913 1458 1021 1526 c 0
 1033 1534 1038 1545 1038 1557 c 0
 1038 1585 1010 1614 981 1614 c 0
517 643 m 2
 430 643 l 1
 430 1050 l 1
 492 1050 l 2
 668.838 1050 857 1050 857 846 c 0
 857 647 696.492 643 517 643 c 2
1023 853 m 0
 1023 1146 781.563 1171 513 1171 c 2
 178 1171 l 2
 146 1171 127 1143 127 1113 c 0
 127 1079 142 1050 177 1050 c 2
 270 1050 l 1
 270 121 l 1
 149 121 l 2
 114 121 99 91 99 57 c 0
 99 27 118 0 150 0 c 2
 609 0 l 2
 641 0 659 27 659 57 c 0
 659 91 645 121 610 121 c 2
 430 121 l 1
 430 522 l 1
 585 522 l 2
 738.849 522 771.697 435.865 826 314 c 2
 912 121 l 1
 861 121 l 2
 826 121 812 91 812 57 c 0
 812 27 831 0 863 0 c 2
 1151 0 l 2
 1194 0 1224 6 1224 57 c 0
 1224 104 1205 121 1150 121 c 2
 1066 121 l 1
 963 369 l 1
 912.194 482.849 891.544 528.846 803 558 c 1
 922.391 588.896 1023 667.628 1023 853 c 0
EndSplineSet
EndChar

StartChar: Rcaron
Encoding: 344 344 86
Width: 1240
VWidth: 0
Flags: W
PickledData: "(dp1
S'com.typemytype.robofont.layerData'
p2
(dp3
s."
LayerCount: 2
Fore
SplineSet
1167 1316 m 0
 1180 1316 1194 1319 1199 1327 c 2
 1383 1610 l 1
 1388 1615 1390 1622 1390 1627 c 0
 1390 1643 1371 1657 1353 1657 c 0
 1345 1657 1335 1656 1330 1648 c 2
 1167 1439 l 1
 1005 1648 l 2
 1000 1656 990 1657 982 1657 c 0
 964 1657 945 1643 945 1627 c 0
 945 1622 947 1615 952 1610 c 1
 1136 1327 l 2
 1141 1319 1154 1316 1167 1316 c 0
517 643 m 2
 430 643 l 1
 430 1050 l 1
 492 1050 l 2
 668.838 1050 857 1050 857 846 c 0
 857 647 696.492 643 517 643 c 2
1023 853 m 0
 1023 1146 781.563 1171 513 1171 c 2
 178 1171 l 2
 146 1171 127 1143 127 1113 c 0
 127 1079 142 1050 177 1050 c 2
 270 1050 l 1
 270 121 l 1
 149 121 l 2
 114 121 99 91 99 57 c 0
 99 27 118 0 150 0 c 2
 609 0 l 2
 641 0 659 27 659 57 c 0
 659 91 645 121 610 121 c 2
 430 121 l 1
 430 522 l 1
 585 522 l 2
 738.849 522 771.697 435.865 826 314 c 2
 912 121 l 1
 861 121 l 2
 826 121 812 91 812 57 c 0
 812 27 831 0 863 0 c 2
 1151 0 l 2
 1194 0 1224 6 1224 57 c 0
 1224 104 1205 121 1150 121 c 2
 1066 121 l 1
 963 369 l 1
 912.194 482.849 891.544 528.846 803 558 c 1
 922.391 588.896 1023 667.628 1023 853 c 0
EndSplineSet
EndChar

StartChar: Rcommaaccent
Encoding: 342 342 87
Width: 1240
VWidth: 0
Flags: W
PickledData: "(dp1
S'com.typemytype.robofont.layerData'
p2
(dp3
s."
LayerCount: 2
Fore
SplineSet
1075 -84 m 0
 1015 -84 959 -120 959 -190 c 0
 959 -260 1013 -292 1087 -292 c 1
 1087 -370 1018 -415 965 -450 c 0
 950 -460 944 -473 944 -485 c 0
 944 -509 966 -532 995 -532 c 0
 1005 -532 1016 -529 1027 -523 c 0
 1130 -471 1215 -379 1215 -235 c 0
 1215 -134 1150 -84 1075 -84 c 0
517 643 m 2
 430 643 l 1
 430 1050 l 1
 492 1050 l 2
 668.838 1050 857 1050 857 846 c 0
 857 647 696.492 643 517 643 c 2
1023 853 m 0
 1023 1146 781.563 1171 513 1171 c 2
 178 1171 l 2
 146 1171 127 1143 127 1113 c 0
 127 1079 142 1050 177 1050 c 2
 270 1050 l 1
 270 121 l 1
 149 121 l 2
 114 121 99 91 99 57 c 0
 99 27 118 0 150 0 c 2
 609 0 l 2
 641 0 659 27 659 57 c 0
 659 91 645 121 610 121 c 2
 430 121 l 1
 430 522 l 1
 585 522 l 2
 738.849 522 771.697 435.865 826 314 c 2
 912 121 l 1
 861 121 l 2
 826 121 812 91 812 57 c 0
 812 27 831 0 863 0 c 2
 1151 0 l 2
 1194 0 1224 6 1224 57 c 0
 1224 104 1205 121 1150 121 c 2
 1066 121 l 1
 963 369 l 1
 912.194 482.849 891.544 528.846 803 558 c 1
 922.391 588.896 1023 667.628 1023 853 c 0
EndSplineSet
EndChar

StartChar: S
Encoding: 83 83 88
Width: 1240
VWidth: 0
Flags: W
PickledData: "(dp1
S'com.typemytype.robofont.layerData'
p2
(dp3
s."
LayerCount: 2
Fore
SplineSet
630 1080 m 0
 747 1080 866 1041 878 937 c 1
 880 858 l 1
 883 828 906 815 938 815 c 0
 974 815 1001 831 1001 871 c 2
 996 1142 l 1
 993 1169 968 1187 941 1187 c 0
 903 1187 877 1149 877 1111 c 1
 811 1166 703 1188 607 1188 c 0
 419.233 1188 268 1068 268 868 c 0
 268 684 394 617 551 563 c 2
 715 507 l 1
 813.99 467.55 903 441.642 903 313 c 0
 903 142 782.464 102 678 102 c 0
 511.944 102 350.599 195 340 280 c 2
 329 375 l 2
 326 402 302 419 275 419 c 0
 231 419 209 401 209 365 c 1
 248 27 l 2
 251 -4 272 -17 305 -17 c 0
 336 -17 351 34 354 65 c 1
 450.3 5 567.631 -18 675 -18 c 0
 867.418 -18 1043 76 1043 313 c 0
 1043 531.251 931.725 592.162 739 662 c 1
 603 709 l 2
 477 753 419 790 419 879 c 0
 419 983 458.708 1080 630 1080 c 0
EndSplineSet
EndChar

StartChar: Sacute
Encoding: 346 346 89
Width: 1240
VWidth: 0
Flags: W
PickledData: "(dp1
S'com.typemytype.robofont.layerData'
p2
(dp3
s."
LayerCount: 2
Fore
SplineSet
1019 1614 m 0
 1008 1614 999 1611 991 1604 c 0
 898 1524 786 1436 684 1368 c 0
 676 1363 672 1357 672 1347 c 0
 672 1330 688 1312 706 1312 c 0
 709 1312 714 1313 719 1316 c 0
 830 1380 951 1458 1059 1526 c 0
 1071 1534 1076 1545 1076 1557 c 0
 1076 1585 1048 1614 1019 1614 c 0
630 1080 m 0
 747 1080 866 1041 878 937 c 1
 880 858 l 1
 883 828 906 815 938 815 c 0
 974 815 1001 831 1001 871 c 2
 996 1142 l 1
 993 1169 968 1187 941 1187 c 0
 903 1187 877 1149 877 1111 c 1
 811 1166 703 1188 607 1188 c 0
 419.233 1188 268 1068 268 868 c 0
 268 684 394 617 551 563 c 2
 715 507 l 1
 813.99 467.55 903 441.642 903 313 c 0
 903 142 782.464 102 678 102 c 0
 511.944 102 350.6 195 340 280 c 2
 329 375 l 2
 326 402 302 419 275 419 c 0
 231 419 209 401 209 365 c 1
 248 27 l 2
 251 -4 272 -17 305 -17 c 0
 336 -17 351 34 354 65 c 1
 450.3 5 567.631 -18 675 -18 c 0
 867.418 -18 1043 76 1043 313 c 0
 1043 531.251 931.725 592.162 739 662 c 1
 603 709 l 2
 477 753 419 790 419 879 c 0
 419 983 458.708 1080 630 1080 c 0
EndSplineSet
EndChar

StartChar: Scaron
Encoding: 352 352 90
Width: 1240
VWidth: 0
Flags: W
PickledData: "(dp1
S'com.typemytype.robofont.layerData'
p2
(dp3
s."
LayerCount: 2
Fore
SplineSet
1205 1316 m 0
 1218 1316 1232 1319 1237 1327 c 2
 1421 1610 l 1
 1426 1615 1428 1622 1428 1627 c 0
 1428 1643 1409 1657 1391 1657 c 0
 1383 1657 1373 1656 1368 1648 c 2
 1205 1439 l 1
 1043 1648 l 2
 1038 1656 1028 1657 1020 1657 c 0
 1002 1657 983 1643 983 1627 c 0
 983 1622 985 1615 990 1610 c 1
 1174 1327 l 2
 1179 1319 1192 1316 1205 1316 c 0
630 1080 m 0
 747 1080 866 1041 878 937 c 1
 880 858 l 1
 883 828 906 815 938 815 c 0
 974 815 1001 831 1001 871 c 2
 996 1142 l 1
 993 1169 968 1187 941 1187 c 0
 903 1187 877 1149 877 1111 c 1
 811 1166 703 1188 607 1188 c 0
 419.233 1188 268 1068 268 868 c 0
 268 684 394 617 551 563 c 2
 715 507 l 1
 813.99 467.55 903 441.642 903 313 c 0
 903 142 782.464 102 678 102 c 0
 511.944 102 350.6 195 340 280 c 2
 329 375 l 2
 326 402 302 419 275 419 c 0
 231 419 209 401 209 365 c 1
 248 27 l 2
 251 -4 272 -17 305 -17 c 0
 336 -17 351 34 354 65 c 1
 450.3 5 567.631 -18 675 -18 c 0
 867.418 -18 1043 76 1043 313 c 0
 1043 531.251 931.725 592.162 739 662 c 1
 603 709 l 2
 477 753 419 790 419 879 c 0
 419 983 458.708 1080 630 1080 c 0
EndSplineSet
EndChar

StartChar: Scedilla
Encoding: 350 350 91
Width: 1240
VWidth: 0
Flags: W
PickledData: "(dp1
S'com.typemytype.robofont.layerData'
p2
(dp3
s."
LayerCount: 2
Fore
SplineSet
799 0 m 1
 712 0 l 1
 692 -33 585 -322 585 -367 c 0
 585 -429 621 -461 661 -461 c 0
 705 -461 753 -423 758 -342 c 1
 799 0 l 1
630 1080 m 0
 747 1080 866 1041 878 937 c 1
 880 858 l 1
 883 828 906 815 938 815 c 0
 974 815 1001 831 1001 871 c 2
 996 1142 l 1
 993 1169 968 1187 941 1187 c 0
 903 1187 877 1149 877 1111 c 1
 811 1166 703 1188 607 1188 c 0
 419.233 1188 268 1068 268 868 c 0
 268 684 394 617 551 563 c 2
 715 507 l 1
 813.99 467.55 903 441.642 903 313 c 0
 903 142 782.464 102 678 102 c 0
 511.944 102 350.6 195 340 280 c 2
 329 375 l 2
 326 402 302 419 275 419 c 0
 231 419 209 401 209 365 c 1
 248 27 l 2
 251 -4 272 -17 305 -17 c 0
 336 -17 351 34 354 65 c 1
 450.3 5 567.631 -18 675 -18 c 0
 867.418 -18 1043 76 1043 313 c 0
 1043 531.251 931.725 592.162 739 662 c 1
 603 709 l 2
 477 753 419 790 419 879 c 0
 419 983 458.708 1080 630 1080 c 0
EndSplineSet
EndChar

StartChar: Scircumflex
Encoding: 348 348 92
Width: 1240
VWidth: 0
Flags: W
PickledData: "(dp1
S'com.typemytype.robofont.layerData'
p2
(dp3
s."
LayerCount: 2
Fore
SplineSet
1201 1657 m 0
 1188 1657 1175 1653 1170 1645 c 2
 986 1362 l 1
 981 1357 979 1350 979 1345 c 0
 979 1329 998 1316 1016 1316 c 0
 1024 1316 1034 1317 1039 1325 c 2
 1201 1534 l 1
 1364 1325 l 2
 1369 1317 1379 1316 1387 1316 c 0
 1405 1316 1424 1329 1424 1345 c 0
 1424 1350 1422 1357 1417 1362 c 1
 1233 1645 l 2
 1228 1653 1214 1657 1201 1657 c 0
630 1080 m 0
 747 1080 866 1041 878 937 c 1
 880 858 l 1
 883 828 906 815 938 815 c 0
 974 815 1001 831 1001 871 c 2
 996 1142 l 1
 993 1169 968 1187 941 1187 c 0
 903 1187 877 1149 877 1111 c 1
 811 1166 703 1188 607 1188 c 0
 419.233 1188 268 1068 268 868 c 0
 268 684 394 617 551 563 c 2
 715 507 l 1
 813.99 467.55 903 441.642 903 313 c 0
 903 142 782.464 102 678 102 c 0
 511.944 102 350.6 195 340 280 c 2
 329 375 l 2
 326 402 302 419 275 419 c 0
 231 419 209 401 209 365 c 1
 248 27 l 2
 251 -4 272 -17 305 -17 c 0
 336 -17 351 34 354 65 c 1
 450.3 5 567.631 -18 675 -18 c 0
 867.418 -18 1043 76 1043 313 c 0
 1043 531.251 931.725 592.162 739 662 c 1
 603 709 l 2
 477 753 419 790 419 879 c 0
 419 983 458.708 1080 630 1080 c 0
EndSplineSet
EndChar

StartChar: Scommaaccent
Encoding: 536 536 93
Width: 1240
VWidth: 0
Flags: W
PickledData: "(dp1
S'com.typemytype.robofont.layerData'
p2
(dp3
s."
LayerCount: 2
Fore
SplineSet
1141 -102 m 0
 1081 -102 1025 -138 1025 -208 c 0
 1025 -278 1079 -310 1153 -310 c 1
 1153 -388 1084 -433 1031 -468 c 0
 1016 -478 1010 -491 1010 -503 c 0
 1010 -527 1032 -550 1061 -550 c 0
 1071 -550 1082 -547 1093 -541 c 0
 1196 -489 1281 -397 1281 -253 c 0
 1281 -152 1216 -102 1141 -102 c 0
630 1080 m 0
 747 1080 866 1041 878 937 c 1
 880 858 l 1
 883 828 906 815 938 815 c 0
 974 815 1001 831 1001 871 c 2
 996 1142 l 1
 993 1169 968 1187 941 1187 c 0
 903 1187 877 1149 877 1111 c 1
 811 1166 703 1188 607 1188 c 0
 419.233 1188 268 1068 268 868 c 0
 268 684 394 617 551 563 c 2
 715 507 l 1
 813.99 467.55 903 441.642 903 313 c 0
 903 142 782.464 102 678 102 c 0
 511.944 102 350.6 195 340 280 c 2
 329 375 l 2
 326 402 302 419 275 419 c 0
 231 419 209 401 209 365 c 1
 248 27 l 2
 251 -4 272 -17 305 -17 c 0
 336 -17 351 34 354 65 c 1
 450.3 5 567.631 -18 675 -18 c 0
 867.418 -18 1043 76 1043 313 c 0
 1043 531.251 931.725 592.162 739 662 c 1
 603 709 l 2
 477 753 419 790 419 879 c 0
 419 983 458.708 1080 630 1080 c 0
EndSplineSet
EndChar

StartChar: T
Encoding: 84 84 94
Width: 1240
VWidth: 0
Flags: W
PickledData: "(dp1
S'com.typemytype.robofont.layerData'
p2
(dp3
s."
LayerCount: 2
Fore
SplineSet
176.5 769 m 0
 208.5 769 229.5 779 232.5 814 c 1
 243.5 1050 l 1
 538.5 1050 l 1
 538.5 120 l 1
 327.5 120 l 2
 292.5 120 278.5 91 278.5 57 c 0
 278.5 27 298 0 329.5 0 c 2
 906.5 0 l 2
 938 0 956.5 27 956.5 57 c 0
 956.5 91 943.5 120 908.5 120 c 2
 697.5 120 l 1
 697.5 1050 l 1
 995.5 1050 l 1
 1005.5 814 l 1
 1008.5 780 1029.5 769 1061.5 769 c 0
 1097.88 769 1118.5 790 1118.5 823 c 2
 1118.5 1117 l 2
 1118 1152 1106.5 1171 1077.5 1171 c 2
 162.5 1171 l 2
 131.5 1171 120 1153 120.5 1117 c 2
 120.5 823 l 2
 120.5 790 139.978 769 176.5 769 c 0
EndSplineSet
EndChar

StartChar: Tcaron
Encoding: 356 356 95
Width: 1240
VWidth: 0
Flags: W
PickledData: "(dp1
S'com.typemytype.robofont.layerData'
p2
(dp3
s."
LayerCount: 2
Fore
SplineSet
1134 1316 m 0
 1147 1316 1161 1319 1166 1327 c 2
 1350 1610 l 1
 1355 1615 1357 1622 1357 1627 c 0
 1357 1643 1338 1657 1320 1657 c 0
 1312 1657 1302 1656 1297 1648 c 2
 1134 1439 l 1
 972 1648 l 2
 967 1656 957 1657 949 1657 c 0
 931 1657 912 1643 912 1627 c 0
 912 1622 914 1615 919 1610 c 1
 1103 1327 l 2
 1108 1319 1121 1316 1134 1316 c 0
176.5 769 m 0
 208.5 769 229.5 779 232.5 814 c 1
 243.5 1050 l 1
 538.5 1050 l 1
 538.5 120 l 1
 327.5 120 l 2
 292.5 120 278.5 91 278.5 57 c 0
 278.5 27 298 0 329.5 0 c 2
 906.5 0 l 2
 938 0 956.5 27 956.5 57 c 0
 956.5 91 943.5 120 908.5 120 c 2
 697.5 120 l 1
 697.5 1050 l 1
 995.5 1050 l 1
 1005.5 814 l 1
 1008.5 780 1029.5 769 1061.5 769 c 0
 1097.88 769 1118.5 790 1118.5 823 c 2
 1118.5 1117 l 2
 1118 1152 1106.5 1171 1077.5 1171 c 2
 162.5 1171 l 2
 131.5 1171 120 1153 120.5 1117 c 2
 120.5 823 l 2
 120.5 790 139.979 769 176.5 769 c 0
EndSplineSet
EndChar

StartChar: Tcommaaccent
Encoding: 65537 -1 96
Width: 1240
VWidth: 0
Flags: W
PickledData: "(dp1
S'com.typemytype.robofont.layerData'
p2
(dp3
s."
LayerCount: 2
Fore
SplineSet
1043 0 m 1
 956 0 l 1
 936 -33 829 -322 829 -367 c 0
 829 -429 865 -461 905 -461 c 0
 949 -461 997 -423 1002 -342 c 1
 1043 0 l 1
176.5 769 m 0
 208.5 769 229.5 779 232.5 814 c 1
 243.5 1050 l 1
 538.5 1050 l 1
 538.5 120 l 1
 327.5 120 l 2
 292.5 120 278.5 91 278.5 57 c 0
 278.5 27 298 0 329.5 0 c 2
 906.5 0 l 2
 938 0 956.5 27 956.5 57 c 0
 956.5 91 943.5 120 908.5 120 c 2
 697.5 120 l 1
 697.5 1050 l 1
 995.5 1050 l 1
 1005.5 814 l 1
 1008.5 780 1029.5 769 1061.5 769 c 0
 1097.88 769 1118.5 790 1118.5 823 c 2
 1118.5 1117 l 2
 1118 1152 1106.5 1171 1077.5 1171 c 2
 162.5 1171 l 2
 131.5 1171 120 1153 120.5 1117 c 2
 120.5 823 l 2
 120.5 790 139.979 769 176.5 769 c 0
EndSplineSet
EndChar

StartChar: Thorn
Encoding: 222 222 97
Width: 1240
VWidth: 0
Flags: W
PickledData: "(dp1
S'com.typemytype.robofont.layerData'
p2
(dp3
s."
LayerCount: 2
Fore
SplineSet
1055 619 m 0
 1055 927 750 928 436 928 c 1
 436 1049 l 1
 580 1049 l 2
 615 1049 629 1078 629 1112 c 0
 629 1142 614 1169 588 1169 c 2
 111 1169 l 2
 79 1169 60 1142 60 1112 c 0
 60 1078 74 1049 109 1049 c 2
 276 1049 l 1
 276 120 l 1
 96 120 l 2
 61 120 46 91 46 57 c 0
 46 27 65 0 97 0 c 2
 643 0 l 2
 675 0 693 27 693 57 c 0
 693 91 679 120 644 120 c 2
 436 120 l 1
 436 314 l 1
 731 314 1055 321 1055 619 c 0
894 626 m 0
 894 433 755 426 436 426 c 1
 436 813 l 1
 747 813 894 802 894 626 c 0
EndSplineSet
EndChar

StartChar: U
Encoding: 85 85 98
Width: 1240
VWidth: 0
Flags: W
PickledData: "(dp1
S'com.typemytype.robofont.layerData'
p2
(dp3
s."
LayerCount: 2
Fore
SplineSet
675 -17 m 0
 916.094 -17 1080 157 1080 411 c 2
 1080 1050 l 1
 1174 1050 l 2
 1223.29 1050 1243 1079 1243 1113 c 0
 1243 1143 1217.8 1171 1173 1171 c 2
 840 1171 l 2
 808 1171 789 1143 789 1113 c 0
 789 1079 804 1050 839 1050 c 2
 949 1050 l 1
 949 411 l 2
 949 232 841.823 105 675 105 c 0
 490.876 105 389 218 389 413 c 2
 389 1050 l 1
 507 1050 l 2
 542 1050 556 1079 556 1113 c 0
 556 1143 538 1171 506 1171 c 2
 105 1171 l 2
 73 1171 55 1143 55 1113 c 0
 55 1079 69 1050 104 1050 c 2
 229 1050 l 1
 229 413 l 2
 229 142 411.803 -17 675 -17 c 0
EndSplineSet
EndChar

StartChar: Uacute
Encoding: 218 218 99
Width: 1240
VWidth: 0
Flags: W
PickledData: "(dp1
S'com.typemytype.robofont.layerData'
p2
(dp3
s."
LayerCount: 2
Fore
SplineSet
955.5 1611 m 0
 944.5 1611 935.5 1608 927.5 1601 c 0
 834.5 1521 722.5 1433 620.5 1365 c 0
 612.5 1360 608.5 1354 608.5 1344 c 0
 608.5 1327 624.5 1309 642.5 1309 c 0
 645.5 1309 650.5 1310 655.5 1313 c 0
 766.5 1377 887.5 1455 995.5 1523 c 0
 1007.5 1531 1012.5 1542 1012.5 1554 c 0
 1012.5 1582 984.5 1611 955.5 1611 c 0
675 -17 m 0
 916.094 -17 1080 157 1080 411 c 2
 1080 1050 l 1
 1174 1050 l 2
 1223.29 1050 1243 1079 1243 1113 c 0
 1243 1143 1217.8 1171 1173 1171 c 2
 840 1171 l 2
 808 1171 789 1143 789 1113 c 0
 789 1079 804 1050 839 1050 c 2
 949 1050 l 1
 949 411 l 2
 949 232 841.823 105 675 105 c 0
 490.876 105 389 218 389 413 c 2
 389 1050 l 1
 507 1050 l 2
 542 1050 556 1079 556 1113 c 0
 556 1143 538 1171 506 1171 c 2
 105 1171 l 2
 73 1171 55 1143 55 1113 c 0
 55 1079 69 1050 104 1050 c 2
 229 1050 l 1
 229 413 l 2
 229 142 411.803 -17 675 -17 c 0
EndSplineSet
EndChar

StartChar: Ubreve
Encoding: 364 364 100
Width: 1240
VWidth: 0
Flags: W
PickledData: "(dp1
S'com.typemytype.robofont.layerData'
p2
(dp3
s."
LayerCount: 2
Fore
SplineSet
1054.5 1544 m 0
 1050.5 1555 1041.5 1558 1032.5 1558 c 0
 1014.5 1558 994.5 1541 994.5 1526 c 0
 994.5 1382 1095.5 1310 1196.5 1310 c 0
 1297.5 1310 1399.5 1382 1399.5 1526 c 0
 1399.5 1541 1379.5 1558 1361.5 1558 c 0
 1352.5 1558 1342.5 1555 1338.5 1544 c 0
 1307.5 1462 1251.5 1421 1196.5 1421 c 0
 1141.5 1421 1085.5 1462 1054.5 1544 c 0
675 -17 m 0
 916.094 -17 1080 157 1080 411 c 2
 1080 1050 l 1
 1174 1050 l 2
 1223.29 1050 1243 1079 1243 1113 c 0
 1243 1143 1217.8 1171 1173 1171 c 2
 840 1171 l 2
 808 1171 789 1143 789 1113 c 0
 789 1079 804 1050 839 1050 c 2
 949 1050 l 1
 949 411 l 2
 949 232 841.823 105 675 105 c 0
 490.876 105 389 218 389 413 c 2
 389 1050 l 1
 507 1050 l 2
 542 1050 556 1079 556 1113 c 0
 556 1143 538 1171 506 1171 c 2
 105 1171 l 2
 73 1171 55 1143 55 1113 c 0
 55 1079 69 1050 104 1050 c 2
 229 1050 l 1
 229 413 l 2
 229 142 411.803 -17 675 -17 c 0
EndSplineSet
EndChar

StartChar: Ucircumflex
Encoding: 219 219 101
Width: 1240
VWidth: 0
Flags: W
PickledData: "(dp1
S'com.typemytype.robofont.layerData'
p2
(dp3
s."
LayerCount: 2
Fore
SplineSet
648.5 1650 m 0
 635.5 1650 622.5 1646 617.5 1638 c 2
 433.5 1355 l 1
 428.5 1350 426.5 1343 426.5 1338 c 0
 426.5 1322 445.5 1309 463.5 1309 c 0
 471.5 1309 481.5 1310 486.5 1318 c 2
 648.5 1527 l 1
 811.5 1318 l 2
 816.5 1310 826.5 1309 834.5 1309 c 0
 852.5 1309 871.5 1322 871.5 1338 c 0
 871.5 1343 869.5 1350 864.5 1355 c 1
 680.5 1638 l 2
 675.5 1646 661.5 1650 648.5 1650 c 0
675 -17 m 0
 916.094 -17 1080 157 1080 411 c 2
 1080 1050 l 1
 1174 1050 l 2
 1223.29 1050 1243 1079 1243 1113 c 0
 1243 1143 1217.8 1171 1173 1171 c 2
 840 1171 l 2
 808 1171 789 1143 789 1113 c 0
 789 1079 804 1050 839 1050 c 2
 949 1050 l 1
 949 411 l 2
 949 232 841.823 105 675 105 c 0
 490.876 105 389 218 389 413 c 2
 389 1050 l 1
 507 1050 l 2
 542 1050 556 1079 556 1113 c 0
 556 1143 538 1171 506 1171 c 2
 105 1171 l 2
 73 1171 55 1143 55 1113 c 0
 55 1079 69 1050 104 1050 c 2
 229 1050 l 1
 229 413 l 2
 229 142 411.803 -17 675 -17 c 0
EndSplineSet
EndChar

StartChar: Udieresis
Encoding: 220 220 102
Width: 1240
VWidth: 0
Flags: W
PickledData: "(dp1
S'com.typemytype.robofont.layerData'
p2
(dp3
s."
LayerCount: 2
Fore
SplineSet
481.5 1309 m 0
 531.5 1309 572.5 1350 572.5 1400 c 0
 572.5 1450 531.5 1491 481.5 1491 c 0
 431.5 1491 390.5 1450 390.5 1400 c 0
 390.5 1350 431.5 1309 481.5 1309 c 0
816.5 1309 m 0
 866.5 1309 907.5 1350 907.5 1400 c 0
 907.5 1450 866.5 1491 816.5 1491 c 0
 766.5 1491 726.5 1450 726.5 1400 c 0
 726.5 1350 766.5 1309 816.5 1309 c 0
675 -17 m 0
 916.094 -17 1080 157 1080 411 c 2
 1080 1050 l 1
 1174 1050 l 2
 1223.29 1050 1243 1079 1243 1113 c 0
 1243 1143 1217.8 1171 1173 1171 c 2
 840 1171 l 2
 808 1171 789 1143 789 1113 c 0
 789 1079 804 1050 839 1050 c 2
 949 1050 l 1
 949 411 l 2
 949 232 841.823 105 675 105 c 0
 490.876 105 389 218 389 413 c 2
 389 1050 l 1
 507 1050 l 2
 542 1050 556 1079 556 1113 c 0
 556 1143 538 1171 506 1171 c 2
 105 1171 l 2
 73 1171 55 1143 55 1113 c 0
 55 1079 69 1050 104 1050 c 2
 229 1050 l 1
 229 413 l 2
 229 142 411.803 -17 675 -17 c 0
EndSplineSet
EndChar

StartChar: Ugrave
Encoding: 217 217 103
Width: 1240
VWidth: 0
Flags: W
PickledData: "(dp1
S'com.typemytype.robofont.layerData'
p2
(dp3
s."
LayerCount: 2
Fore
SplineSet
688 1344 m 0
 688 1354 686 1360 678 1365 c 0
 576 1433 463 1521 370 1601 c 0
 362 1608 353 1611 342 1611 c 0
 313 1611 284 1582 284 1554 c 0
 284 1542 291 1531 303 1523 c 0
 410 1456 532 1377 643 1313 c 1
 646 1310 650 1309 655 1309 c 0
 673 1309 688 1327 688 1344 c 0
675 -17 m 0
 916.094 -17 1080 157 1080 411 c 2
 1080 1050 l 1
 1174 1050 l 2
 1223.29 1050 1243 1079 1243 1113 c 0
 1243 1143 1217.8 1171 1173 1171 c 2
 840 1171 l 2
 808 1171 789 1143 789 1113 c 0
 789 1079 804 1050 839 1050 c 2
 949 1050 l 1
 949 411 l 2
 949 232 841.823 105 675 105 c 0
 490.876 105 389 218 389 413 c 2
 389 1050 l 1
 507 1050 l 2
 542 1050 556 1079 556 1113 c 0
 556 1143 538 1171 506 1171 c 2
 105 1171 l 2
 73 1171 55 1143 55 1113 c 0
 55 1079 69 1050 104 1050 c 2
 229 1050 l 1
 229 413 l 2
 229 142 411.803 -17 675 -17 c 0
EndSplineSet
EndChar

StartChar: Uhungarumlaut
Encoding: 368 368 104
Width: 1240
VWidth: 0
Flags: W
PickledData: "(dp1
S'com.typemytype.robofont.layerData'
p2
(dp3
s."
LayerCount: 2
Fore
SplineSet
936 1614 m 0
 925 1614 916 1611 908 1604 c 0
 815 1524 703 1436 601 1368 c 0
 593 1363 589 1357 589 1347 c 0
 589 1330 605 1312 623 1312 c 0
 626 1312 631 1313 636 1316 c 0
 747 1380 868 1458 976 1526 c 0
 988 1534 993 1545 993 1557 c 0
 993 1585 965 1614 936 1614 c 0
1192 1614 m 0
 1181 1614 1172 1611 1164 1604 c 0
 1071 1524 959 1436 857 1368 c 0
 849 1363 845 1357 845 1347 c 0
 845 1330 861 1312 879 1312 c 0
 882 1312 887 1313 892 1316 c 0
 1003 1380 1123 1458 1231 1526 c 0
 1243 1534 1250 1545 1250 1557 c 0
 1250 1585 1221 1614 1192 1614 c 0
675 -17 m 0
 916.094 -17 1080 157 1080 411 c 2
 1080 1050 l 1
 1174 1050 l 2
 1223.29 1050 1243 1079 1243 1113 c 0
 1243 1143 1217.8 1171 1173 1171 c 2
 840 1171 l 2
 808 1171 789 1143 789 1113 c 0
 789 1079 804 1050 839 1050 c 2
 949 1050 l 1
 949 411 l 2
 949 232 841.823 105 675 105 c 0
 490.876 105 389 218 389 413 c 2
 389 1050 l 1
 507 1050 l 2
 542 1050 556 1079 556 1113 c 0
 556 1143 538 1171 506 1171 c 2
 105 1171 l 2
 73 1171 55 1143 55 1113 c 0
 55 1079 69 1050 104 1050 c 2
 229 1050 l 1
 229 413 l 2
 229 142 411.803 -17 675 -17 c 0
EndSplineSet
EndChar

StartChar: Umacron
Encoding: 362 362 105
Width: 1240
VWidth: 0
Flags: W
PickledData: "(dp1
S'com.typemytype.robofont.layerData'
p2
(dp3
s."
LayerCount: 2
Fore
SplineSet
1244 1349 m 2
 1277 1349 1295 1376 1295 1403 c 0
 1295 1430 1278 1456 1245 1456 c 2
 878 1456 l 2
 844 1456 826 1430 826 1403 c 0
 826 1376 844 1349 882 1349 c 2
 1244 1349 l 2
675 -17 m 0
 916.094 -17 1080 157 1080 411 c 2
 1080 1050 l 1
 1174 1050 l 2
 1223.29 1050 1243 1079 1243 1113 c 0
 1243 1143 1217.8 1171 1173 1171 c 2
 840 1171 l 2
 808 1171 789 1143 789 1113 c 0
 789 1079 804 1050 839 1050 c 2
 949 1050 l 1
 949 411 l 2
 949 232 841.823 105 675 105 c 0
 490.876 105 389 218 389 413 c 2
 389 1050 l 1
 507 1050 l 2
 542 1050 556 1079 556 1113 c 0
 556 1143 538 1171 506 1171 c 2
 105 1171 l 2
 73 1171 55 1143 55 1113 c 0
 55 1079 69 1050 104 1050 c 2
 229 1050 l 1
 229 413 l 2
 229 142 411.803 -17 675 -17 c 0
EndSplineSet
EndChar

StartChar: Uogonek
Encoding: 370 370 106
Width: 1240
VWidth: 0
Flags: W
PickledData: "(dp1
S'com.typemytype.robofont.layerData'
p2
(dp3
s."
LayerCount: 2
Fore
SplineSet
1083 -352 m 0
 1147 -352 1205 -310 1205 -275 c 0
 1205 -234 1111 -252 1111 -176 c 0
 1111 -111 1193 20 1187 20 c 2
 1133 20 l 1
 1017 -76 972 -196 972 -245 c 0
 972 -324 1020 -352 1083 -352 c 0
675 -17 m 0
 916.094 -17 1080 157 1080 411 c 2
 1080 1050 l 1
 1174 1050 l 2
 1223.29 1050 1243 1079 1243 1113 c 0
 1243 1143 1217.8 1171 1173 1171 c 2
 840 1171 l 2
 808 1171 789 1143 789 1113 c 0
 789 1079 804 1050 839 1050 c 2
 949 1050 l 1
 949 411 l 2
 949 232 841.823 105 675 105 c 0
 490.876 105 389 218 389 413 c 2
 389 1050 l 1
 507 1050 l 2
 542 1050 556 1079 556 1113 c 0
 556 1143 538 1171 506 1171 c 2
 105 1171 l 2
 73 1171 55 1143 55 1113 c 0
 55 1079 69 1050 104 1050 c 2
 229 1050 l 1
 229 413 l 2
 229 142 411.803 -17 675 -17 c 0
EndSplineSet
EndChar

StartChar: Uring
Encoding: 366 366 107
Width: 1240
VWidth: 0
Flags: W
PickledData: "(dp1
S'com.typemytype.robofont.layerData'
p2
(dp3
s."
LayerCount: 2
Fore
SplineSet
1301.5 1686 m 0
 1187.5 1686 1127.5 1600 1127.5 1514 c 0
 1127.5 1430 1185.5 1346 1298.5 1346 c 0
 1411.5 1346 1470.5 1432 1470.5 1517 c 0
 1470.5 1602 1414.5 1686 1301.5 1686 c 0
1303.5 1411 m 0
 1240.5 1411 1203.5 1460 1203.5 1515 c 0
 1203.5 1571 1234.5 1620 1300.5 1620 c 0
 1365.5 1620 1397.5 1571 1397.5 1515 c 0
 1397.5 1459 1367.5 1411 1303.5 1411 c 0
675 -17 m 0
 916.094 -17 1080 157 1080 411 c 2
 1080 1050 l 1
 1174 1050 l 2
 1223.29 1050 1243 1079 1243 1113 c 0
 1243 1143 1217.8 1171 1173 1171 c 2
 840 1171 l 2
 808 1171 789 1143 789 1113 c 0
 789 1079 804 1050 839 1050 c 2
 949 1050 l 1
 949 411 l 2
 949 232 841.823 105 675 105 c 0
 490.876 105 389 218 389 413 c 2
 389 1050 l 1
 507 1050 l 2
 542 1050 556 1079 556 1113 c 0
 556 1143 538 1171 506 1171 c 2
 105 1171 l 2
 73 1171 55 1143 55 1113 c 0
 55 1079 69 1050 104 1050 c 2
 229 1050 l 1
 229 413 l 2
 229 142 411.803 -17 675 -17 c 0
EndSplineSet
EndChar

StartChar: Utilde
Encoding: 360 360 108
Width: 1240
VWidth: 0
Flags: W
PickledData: "(dp1
S'com.typemytype.robofont.layerData'
p2
(dp3
s."
LayerCount: 2
Fore
SplineSet
799.5 1389 m 0
 799.5 1364 822.5 1352 849.5 1352 c 0
 877.5 1352 877.5 1449 935.5 1449 c 0
 988.5 1449 1065.5 1352 1144.5 1352 c 0
 1230.5 1352 1298.5 1427 1298.5 1533 c 0
 1298.5 1558 1275.5 1570 1248.5 1570 c 0
 1215.5 1570 1213.5 1473 1152.5 1473 c 0
 1114.5 1473 1035.5 1570 929.5 1570 c 0
 857.5 1570 799.5 1495 799.5 1389 c 0
675 -17 m 0
 916.094 -17 1080 157 1080 411 c 2
 1080 1050 l 1
 1174 1050 l 2
 1223.29 1050 1243 1079 1243 1113 c 0
 1243 1143 1217.8 1171 1173 1171 c 2
 840 1171 l 2
 808 1171 789 1143 789 1113 c 0
 789 1079 804 1050 839 1050 c 2
 949 1050 l 1
 949 411 l 2
 949 232 841.823 105 675 105 c 0
 490.876 105 389 218 389 413 c 2
 389 1050 l 1
 507 1050 l 2
 542 1050 556 1079 556 1113 c 0
 556 1143 538 1171 506 1171 c 2
 105 1171 l 2
 73 1171 55 1143 55 1113 c 0
 55 1079 69 1050 104 1050 c 2
 229 1050 l 1
 229 413 l 2
 229 142 411.803 -17 675 -17 c 0
EndSplineSet
EndChar

StartChar: V
Encoding: 86 86 109
Width: 1240
VWidth: 0
Flags: W
PickledData: "(dp1
S'com.typemytype.robofont.layerData'
p2
(dp3
s."
LayerCount: 2
Fore
SplineSet
1161 1113 m 0
 1161 1143 1143 1171 1111 1171 c 2
 827 1171 l 2
 795 1171 776 1143 776 1113 c 0
 776 1079 791 1050 826 1050 c 2
 916 1050 l 1
 680 268 l 1
 408 1050 l 1
 499 1050 l 2
 534 1050 548 1079 548 1113 c 0
 548 1143 530 1171 498 1171 c 2
 158 1171 l 2
 126 1171 108 1143 108 1113 c 0
 108 1079 121 1050 156 1050 c 2
 240 1050 l 1
 602 20 l 2
 614 -13 630 -36 666 -36 c 0
 702 -36 714 -16 730 20 c 1
 1056 1050 l 1
 1112 1050 l 2
 1147 1050 1161 1079 1161 1113 c 0
EndSplineSet
EndChar

StartChar: W
Encoding: 87 87 110
Width: 1240
VWidth: 0
Flags: W
PickledData: "(dp1
S'com.typemytype.robofont.layerData'
p2
(dp3
s."
LayerCount: 2
Fore
SplineSet
812 1108 m 0
 812 1078 830 1050 862 1050 c 2
 945 1050 l 1
 859 354 l 1
 699 910 l 1
 591 910 l 1
 420 340 l 1
 336 1050 l 1
 400 1050 l 2
 432 1050 451 1078 451 1108 c 0
 451 1142 437 1171 402 1171 c 2
 112 1171 l 2
 77 1171 63 1142 63 1108 c 0
 63 1078 81 1050 113 1050 c 2
 175 1050 l 1
 337 35 l 1
 341.577 -1 367.211 -18 402 -18 c 0
 424.667 -18 448 2 454 27 c 1
 639 675 l 1
 811 35 l 1
 817.118 1.08 836.235 -18 863 -18 c 0
 887.933 -18 914 1 918 27 c 2
 1086 1050 l 1
 1149 1050 l 2
 1181 1050 1200 1078 1200 1108 c 0
 1200 1142 1185 1171 1150 1171 c 2
 861 1171 l 2
 826 1171 812 1142 812 1108 c 0
EndSplineSet
EndChar

StartChar: Wacute
Encoding: 7810 7810 111
Width: 1240
VWidth: 0
Flags: W
PickledData: "(dp1
S'com.typemytype.robofont.layerData'
p2
(dp3
s."
LayerCount: 2
Fore
SplineSet
1018.5 1614 m 0
 1007.5 1614 998.5 1611 990.5 1604 c 0
 897.5 1524 785.5 1436 683.5 1368 c 0
 675.5 1363 671.5 1357 671.5 1347 c 0
 671.5 1330 687.5 1312 705.5 1312 c 0
 708.5 1312 713.5 1313 718.5 1316 c 0
 829.5 1380 950.5 1458 1058.5 1526 c 0
 1070.5 1534 1075.5 1545 1075.5 1557 c 0
 1075.5 1585 1047.5 1614 1018.5 1614 c 0
812 1108 m 0
 812 1078 830 1050 862 1050 c 2
 945 1050 l 1
 859 354 l 1
 699 910 l 1
 591 910 l 1
 420 340 l 1
 336 1050 l 1
 400 1050 l 2
 432 1050 451 1078 451 1108 c 0
 451 1142 437 1171 402 1171 c 2
 112 1171 l 2
 77 1171 63 1142 63 1108 c 0
 63 1078 81 1050 113 1050 c 2
 175 1050 l 1
 337 35 l 1
 341.577 -1 367.211 -18 402 -18 c 0
 424.667 -18 448 2 454 27 c 1
 639 675 l 1
 811 35 l 1
 817.117 1.08008 836.235 -18 863 -18 c 0
 887.934 -18 914 1 918 27 c 2
 1086 1050 l 1
 1149 1050 l 2
 1181 1050 1200 1078 1200 1108 c 0
 1200 1142 1185 1171 1150 1171 c 2
 861 1171 l 2
 826 1171 812 1142 812 1108 c 0
EndSplineSet
EndChar

StartChar: Wcircumflex
Encoding: 372 372 112
Width: 1240
VWidth: 0
Flags: W
PickledData: "(dp1
S'com.typemytype.robofont.layerData'
p2
(dp3
s."
LayerCount: 2
Fore
SplineSet
1210 1657 m 0
 1197 1657 1184 1653 1179 1645 c 2
 995 1362 l 1
 990 1357 988 1350 988 1345 c 0
 988 1329 1007 1316 1025 1316 c 0
 1033 1316 1043 1317 1048 1325 c 2
 1210 1534 l 1
 1373 1325 l 2
 1378 1317 1388 1316 1396 1316 c 0
 1414 1316 1433 1329 1433 1345 c 0
 1433 1350 1431 1357 1426 1362 c 1
 1242 1645 l 2
 1237 1653 1223 1657 1210 1657 c 0
812 1108 m 0
 812 1078 830 1050 862 1050 c 2
 945 1050 l 1
 859 354 l 1
 699 910 l 1
 591 910 l 1
 420 340 l 1
 336 1050 l 1
 400 1050 l 2
 432 1050 451 1078 451 1108 c 0
 451 1142 437 1171 402 1171 c 2
 112 1171 l 2
 77 1171 63 1142 63 1108 c 0
 63 1078 81 1050 113 1050 c 2
 175 1050 l 1
 337 35 l 1
 341.577 -1 367.211 -18 402 -18 c 0
 424.667 -18 448 2 454 27 c 1
 639 675 l 1
 811 35 l 1
 817.117 1.08008 836.235 -18 863 -18 c 0
 887.934 -18 914 1 918 27 c 2
 1086 1050 l 1
 1149 1050 l 2
 1181 1050 1200 1078 1200 1108 c 0
 1200 1142 1185 1171 1150 1171 c 2
 861 1171 l 2
 826 1171 812 1142 812 1108 c 0
EndSplineSet
EndChar

StartChar: Wdieresis
Encoding: 7812 7812 113
Width: 1240
VWidth: 0
Flags: W
PickledData: "(dp1
S'com.typemytype.robofont.layerData'
p2
(dp3
s."
LayerCount: 2
Fore
SplineSet
948 1315 m 0
 998 1315 1039 1356 1039 1406 c 0
 1039 1456 998 1497 948 1497 c 0
 898 1497 857 1456 857 1406 c 0
 857 1356 898 1315 948 1315 c 0
1283 1315 m 0
 1333 1315 1374 1356 1374 1406 c 0
 1374 1456 1333 1497 1283 1497 c 0
 1233 1497 1193 1456 1193 1406 c 0
 1193 1356 1233 1315 1283 1315 c 0
812 1108 m 0
 812 1078 830 1050 862 1050 c 2
 945 1050 l 1
 859 354 l 1
 699 910 l 1
 591 910 l 1
 420 340 l 1
 336 1050 l 1
 400 1050 l 2
 432 1050 451 1078 451 1108 c 0
 451 1142 437 1171 402 1171 c 2
 112 1171 l 2
 77 1171 63 1142 63 1108 c 0
 63 1078 81 1050 113 1050 c 2
 175 1050 l 1
 337 35 l 1
 341.577 -1 367.211 -18 402 -18 c 0
 424.667 -18 448 2 454 27 c 1
 639 675 l 1
 811 35 l 1
 817.117 1.08008 836.235 -18 863 -18 c 0
 887.934 -18 914 1 918 27 c 2
 1086 1050 l 1
 1149 1050 l 2
 1181 1050 1200 1078 1200 1108 c 0
 1200 1142 1185 1171 1150 1171 c 2
 861 1171 l 2
 826 1171 812 1142 812 1108 c 0
EndSplineSet
EndChar

StartChar: Wgrave
Encoding: 7808 7808 114
Width: 1240
VWidth: 0
Flags: W
PickledData: "(dp1
S'com.typemytype.robofont.layerData'
p2
(dp3
s."
LayerCount: 2
Fore
SplineSet
753 1347 m 0
 753 1357 751 1363 743 1368 c 0
 641 1436 528 1524 435 1604 c 0
 427 1611 418 1614 407 1614 c 0
 378 1614 349 1585 349 1557 c 0
 349 1545 356 1534 368 1526 c 0
 475 1459 597 1380 708 1316 c 1
 711 1313 715 1312 720 1312 c 0
 738 1312 753 1330 753 1347 c 0
812 1108 m 0
 812 1078 830 1050 862 1050 c 2
 945 1050 l 1
 859 354 l 1
 699 910 l 1
 591 910 l 1
 420 340 l 1
 336 1050 l 1
 400 1050 l 2
 432 1050 451 1078 451 1108 c 0
 451 1142 437 1171 402 1171 c 2
 112 1171 l 2
 77 1171 63 1142 63 1108 c 0
 63 1078 81 1050 113 1050 c 2
 175 1050 l 1
 337 35 l 1
 341.577 -1 367.211 -18 402 -18 c 0
 424.667 -18 448 2 454 27 c 1
 639 675 l 1
 811 35 l 1
 817.117 1.08008 836.235 -18 863 -18 c 0
 887.934 -18 914 1 918 27 c 2
 1086 1050 l 1
 1149 1050 l 2
 1181 1050 1200 1078 1200 1108 c 0
 1200 1142 1185 1171 1150 1171 c 2
 861 1171 l 2
 826 1171 812 1142 812 1108 c 0
EndSplineSet
EndChar

StartChar: X
Encoding: 88 88 115
Width: 1240
VWidth: 0
Flags: W
PickledData: "(dp1
S'com.typemytype.robofont.layerData'
p2
(dp3
s."
LayerCount: 2
Fore
SplineSet
1167 1113 m 0
 1167 1143 1149 1171 1117 1171 c 2
 828 1171 l 2
 796 1171 778 1143 778 1113 c 0
 778 1079 792 1050 827 1050 c 2
 908 1050 l 1
 659 692 l 1
 420 1050 l 1
 524 1050 l 2
 559 1050 573 1079 573 1113 c 0
 573 1143 555 1171 523 1171 c 2
 187 1171 l 2
 155 1171 137 1143 137 1113 c 0
 137 1079 151 1050 186 1050 c 2
 248 1050 l 1
 569 600 l 1
 239 120 l 1
 164 120 l 2
 129 120 115 91 115 57 c 0
 115 27 133 0 165 0 c 2
 513 0 l 2
 545 0 563 27 563 57 c 0
 563 91 549 120 514 120 c 2
 385 120 l 1
 641 509 l 1
 898 120 l 1
 788 120 l 2
 753 120 739 91 739 57 c 0
 739 27 757 0 789 0 c 2
 1121 0 l 2
 1153 0 1172 27 1172 57 c 0
 1172 91 1158 120 1123 120 c 2
 1070 120 l 1
 727 597 l 1
 1055 1050 l 1
 1118 1050 l 2
 1153 1050 1167 1079 1167 1113 c 0
EndSplineSet
EndChar

StartChar: Y
Encoding: 89 89 116
Width: 1240
VWidth: 0
Flags: W
PickledData: "(dp1
S'com.typemytype.robofont.layerData'
p2
(dp3
s."
LayerCount: 2
Fore
SplineSet
1128 1113 m 0
 1128 1143 1109 1171 1077 1171 c 2
 811 1171 l 2
 779 1171 761 1143 761 1113 c 0
 761 1079 775 1050 810 1050 c 2
 891 1050 l 1
 671 657 l 1
 438 1050 l 1
 524 1050 l 2
 559 1050 574 1079 574 1113 c 0
 574 1143 555 1171 523 1171 c 2
 187 1171 l 2
 155 1171 137 1143 137 1113 c 0
 137 1079 151 1050 186 1050 c 2
 270 1050 l 1
 565 553 l 1
 565 120 l 1
 324 120 l 2
 289 120 275 91 275 57 c 0
 275 27 294 0 326 0 c 2
 935 0 l 2
 967 0 985 27 985 57 c 0
 985 91 972 120 937 120 c 2
 724 120 l 1
 724 542 l 1
 1024 1050 l 1
 1079 1050 l 2
 1114 1050 1128 1079 1128 1113 c 0
EndSplineSet
EndChar

StartChar: Yacute
Encoding: 221 221 117
Width: 1240
VWidth: 0
Flags: W
PickledData: "(dp1
S'com.typemytype.robofont.layerData'
p2
(dp3
s."
LayerCount: 2
Fore
SplineSet
939 1611 m 0
 928 1611 919 1608 911 1601 c 0
 818 1521 706 1433 604 1365 c 0
 596 1360 592 1354 592 1344 c 0
 592 1327 608 1309 626 1309 c 0
 629 1309 634 1310 639 1313 c 0
 750 1377 871 1455 979 1523 c 0
 991 1531 996 1542 996 1554 c 0
 996 1582 968 1611 939 1611 c 0
1128 1113 m 0
 1128 1143 1109 1171 1077 1171 c 2
 811 1171 l 2
 779 1171 761 1143 761 1113 c 0
 761 1079 775 1050 810 1050 c 2
 891 1050 l 1
 671 657 l 1
 438 1050 l 1
 524 1050 l 2
 559 1050 574 1079 574 1113 c 0
 574 1143 555 1171 523 1171 c 2
 187 1171 l 2
 155 1171 137 1143 137 1113 c 0
 137 1079 151 1050 186 1050 c 2
 270 1050 l 1
 565 553 l 1
 565 120 l 1
 324 120 l 2
 289 120 275 91 275 57 c 0
 275 27 294 0 326 0 c 2
 935 0 l 2
 967 0 985 27 985 57 c 0
 985 91 972 120 937 120 c 2
 724 120 l 1
 724 542 l 1
 1024 1050 l 1
 1079 1050 l 2
 1114 1050 1128 1079 1128 1113 c 0
EndSplineSet
EndChar

StartChar: Ycircumflex
Encoding: 374 374 118
Width: 1240
VWidth: 0
Flags: W
PickledData: "(dp1
S'com.typemytype.robofont.layerData'
p2
(dp3
s."
LayerCount: 2
Fore
SplineSet
1218.5 1657 m 0
 1205.5 1657 1192.5 1653 1187.5 1645 c 2
 1003.5 1362 l 1
 998.5 1357 996.5 1350 996.5 1345 c 0
 996.5 1329 1015.5 1316 1033.5 1316 c 0
 1041.5 1316 1051.5 1317 1056.5 1325 c 2
 1218.5 1534 l 1
 1381.5 1325 l 2
 1386.5 1317 1396.5 1316 1404.5 1316 c 0
 1422.5 1316 1441.5 1329 1441.5 1345 c 0
 1441.5 1350 1439.5 1357 1434.5 1362 c 1
 1250.5 1645 l 2
 1245.5 1653 1231.5 1657 1218.5 1657 c 0
1128 1113 m 0
 1128 1143 1109 1171 1077 1171 c 2
 811 1171 l 2
 779 1171 761 1143 761 1113 c 0
 761 1079 775 1050 810 1050 c 2
 891 1050 l 1
 671 657 l 1
 438 1050 l 1
 524 1050 l 2
 559 1050 574 1079 574 1113 c 0
 574 1143 555 1171 523 1171 c 2
 187 1171 l 2
 155 1171 137 1143 137 1113 c 0
 137 1079 151 1050 186 1050 c 2
 270 1050 l 1
 565 553 l 1
 565 120 l 1
 324 120 l 2
 289 120 275 91 275 57 c 0
 275 27 294 0 326 0 c 2
 935 0 l 2
 967 0 985 27 985 57 c 0
 985 91 972 120 937 120 c 2
 724 120 l 1
 724 542 l 1
 1024 1050 l 1
 1079 1050 l 2
 1114 1050 1128 1079 1128 1113 c 0
EndSplineSet
EndChar

StartChar: Ydieresis
Encoding: 376 376 119
Width: 1240
VWidth: 0
Flags: W
PickledData: "(dp1
S'com.typemytype.robofont.layerData'
p2
(dp3
s."
LayerCount: 2
Fore
SplineSet
956.5 1315 m 0
 1006.5 1315 1047.5 1356 1047.5 1406 c 0
 1047.5 1456 1006.5 1497 956.5 1497 c 0
 906.5 1497 865.5 1456 865.5 1406 c 0
 865.5 1356 906.5 1315 956.5 1315 c 0
1291.5 1315 m 0
 1341.5 1315 1382.5 1356 1382.5 1406 c 0
 1382.5 1456 1341.5 1497 1291.5 1497 c 0
 1241.5 1497 1201.5 1456 1201.5 1406 c 0
 1201.5 1356 1241.5 1315 1291.5 1315 c 0
1128 1113 m 0
 1128 1143 1109 1171 1077 1171 c 2
 811 1171 l 2
 779 1171 761 1143 761 1113 c 0
 761 1079 775 1050 810 1050 c 2
 891 1050 l 1
 671 657 l 1
 438 1050 l 1
 524 1050 l 2
 559 1050 574 1079 574 1113 c 0
 574 1143 555 1171 523 1171 c 2
 187 1171 l 2
 155 1171 137 1143 137 1113 c 0
 137 1079 151 1050 186 1050 c 2
 270 1050 l 1
 565 553 l 1
 565 120 l 1
 324 120 l 2
 289 120 275 91 275 57 c 0
 275 27 294 0 326 0 c 2
 935 0 l 2
 967 0 985 27 985 57 c 0
 985 91 972 120 937 120 c 2
 724 120 l 1
 724 542 l 1
 1024 1050 l 1
 1079 1050 l 2
 1114 1050 1128 1079 1128 1113 c 0
EndSplineSet
EndChar

StartChar: Ygrave
Encoding: 7922 7922 120
Width: 1240
VWidth: 0
Flags: W
PickledData: "(dp1
S'com.typemytype.robofont.layerData'
p2
(dp3
s."
LayerCount: 2
Fore
SplineSet
771 1347 m 0
 771 1357 769 1363 761 1368 c 0
 659 1436 546 1524 453 1604 c 0
 445 1611 436 1614 425 1614 c 0
 396 1614 367 1585 367 1557 c 0
 367 1545 374 1534 386 1526 c 0
 493 1459 615 1380 726 1316 c 1
 729 1313 733 1312 738 1312 c 0
 756 1312 771 1330 771 1347 c 0
1128 1113 m 0
 1128 1143 1109 1171 1077 1171 c 2
 811 1171 l 2
 779 1171 761 1143 761 1113 c 0
 761 1079 775 1050 810 1050 c 2
 891 1050 l 1
 671 657 l 1
 438 1050 l 1
 524 1050 l 2
 559 1050 574 1079 574 1113 c 0
 574 1143 555 1171 523 1171 c 2
 187 1171 l 2
 155 1171 137 1143 137 1113 c 0
 137 1079 151 1050 186 1050 c 2
 270 1050 l 1
 565 553 l 1
 565 120 l 1
 324 120 l 2
 289 120 275 91 275 57 c 0
 275 27 294 0 326 0 c 2
 935 0 l 2
 967 0 985 27 985 57 c 0
 985 91 972 120 937 120 c 2
 724 120 l 1
 724 542 l 1
 1024 1050 l 1
 1079 1050 l 2
 1114 1050 1128 1079 1128 1113 c 0
EndSplineSet
EndChar

StartChar: Z
Encoding: 90 90 121
Width: 1240
VWidth: 0
Flags: W
PickledData: "(dp1
S'com.typemytype.robofont.layerData'
p2
(dp3
s."
LayerCount: 2
Fore
SplineSet
250 806 m 2
 250 777 275.52 756 308 756 c 0
 337 756 362 779 364 808 c 2
 383 1050 l 1
 807 1050 l 1
 252 145 l 2
 236 119 221 94 221 70 c 0
 221 37 244 0 273 0 c 2
 987 0 l 2
 1019 0 1033 20 1043 53 c 1
 1043 358 l 2
 1042.25 366 1042 375 1042 385 c 0
 1042 416 1020 436 991 436 c 0
 959.464 436 935.348 414 927 384 c 1
 905 120 l 1
 415 120 l 1
 991 1069 l 1
 999 1079 1002 1095 1002 1113 c 0
 1002 1143 984 1171 952 1171 c 2
 320 1171 l 2
 267 1171 251 1144 250 1116 c 1
 250 806 l 2
EndSplineSet
EndChar

StartChar: Zacute
Encoding: 377 377 122
Width: 1240
VWidth: 0
Flags: W
PickledData: "(dp1
S'com.typemytype.robofont.layerData'
p2
(dp3
s."
LayerCount: 2
Fore
SplineSet
1058 1614 m 0
 1047 1614 1038 1611 1030 1604 c 0
 937 1524 825 1436 723 1368 c 0
 715 1363 711 1357 711 1347 c 0
 711 1330 727 1312 745 1312 c 0
 748 1312 753 1313 758 1316 c 0
 869 1380 990 1458 1098 1526 c 0
 1110 1534 1115 1545 1115 1557 c 0
 1115 1585 1087 1614 1058 1614 c 0
250 806 m 2
 250 777 275.52 756 308 756 c 0
 337 756 362 779 364 808 c 2
 383 1050 l 1
 807 1050 l 1
 252 145 l 2
 236 119 221 94 221 70 c 0
 221 37 244 0 273 0 c 2
 987 0 l 2
 1019 0 1033 20 1043 53 c 1
 1043 358 l 2
 1042.25 366 1042 375 1042 385 c 0
 1042 416 1020 436 991 436 c 0
 959.464 436 935.348 414 927 384 c 1
 905 120 l 1
 415 120 l 1
 991 1069 l 1
 999 1079 1002 1095 1002 1113 c 0
 1002 1143 984 1171 952 1171 c 2
 320 1171 l 2
 267 1171 251 1144 250 1116 c 1
 250 806 l 2
EndSplineSet
EndChar

StartChar: Zcaron
Encoding: 381 381 123
Width: 1240
VWidth: 0
Flags: W
PickledData: "(dp1
S'com.typemytype.robofont.layerData'
p2
(dp3
s."
LayerCount: 2
Fore
SplineSet
1245 1316 m 0
 1258 1316 1272 1319 1277 1327 c 2
 1461 1610 l 1
 1466 1615 1468 1622 1468 1627 c 0
 1468 1643 1449 1657 1431 1657 c 0
 1423 1657 1413 1656 1408 1648 c 2
 1245 1439 l 1
 1083 1648 l 2
 1078 1656 1068 1657 1060 1657 c 0
 1042 1657 1023 1643 1023 1627 c 0
 1023 1622 1025 1615 1030 1610 c 1
 1214 1327 l 2
 1219 1319 1232 1316 1245 1316 c 0
250 806 m 2
 250 777 275.52 756 308 756 c 0
 337 756 362 779 364 808 c 2
 383 1050 l 1
 807 1050 l 1
 252 145 l 2
 236 119 221 94 221 70 c 0
 221 37 244 0 273 0 c 2
 987 0 l 2
 1019 0 1033 20 1043 53 c 1
 1043 358 l 2
 1042.25 366 1042 375 1042 385 c 0
 1042 416 1020 436 991 436 c 0
 959.464 436 935.348 414 927 384 c 1
 905 120 l 1
 415 120 l 1
 991 1069 l 1
 999 1079 1002 1095 1002 1113 c 0
 1002 1143 984 1171 952 1171 c 2
 320 1171 l 2
 267 1171 251 1144 250 1116 c 1
 250 806 l 2
EndSplineSet
EndChar

StartChar: Zdotaccent
Encoding: 379 379 124
Width: 1240
VWidth: 0
Flags: W
PickledData: "(dp1
S'com.typemytype.robofont.layerData'
p2
(dp3
s."
LayerCount: 2
Fore
SplineSet
1389 1406 m 0
 1389 1457 1351 1505 1288 1505 c 0
 1217 1505 1184 1456 1184 1406 c 0
 1184 1353 1221 1299 1287 1299 c 0
 1348 1299 1389 1353 1389 1406 c 0
250 806 m 2
 250 777 275.52 756 308 756 c 0
 337 756 362 779 364 808 c 2
 383 1050 l 1
 807 1050 l 1
 252 145 l 2
 236 119 221 94 221 70 c 0
 221 37 244 0 273 0 c 2
 987 0 l 2
 1019 0 1033 20 1043 53 c 1
 1043 358 l 2
 1042.25 366 1042 375 1042 385 c 0
 1042 416 1020 436 991 436 c 0
 959.464 436 935.348 414 927 384 c 1
 905 120 l 1
 415 120 l 1
 991 1069 l 1
 999 1079 1002 1095 1002 1113 c 0
 1002 1143 984 1171 952 1171 c 2
 320 1171 l 2
 267 1171 251 1144 250 1116 c 1
 250 806 l 2
EndSplineSet
EndChar

StartChar: a
Encoding: 97 97 125
Width: 1240
VWidth: 0
Flags: W
PickledData: "(dp1
S'com.typemytype.robofont.layerData'
p2
(dp3
s."
LayerCount: 2
Fore
SplineSet
1144 115 m 0
 1144 140 1115 174 1095 174 c 0
 1062 174 1004 100 963 100 c 0
 942 100 933 122 933 150 c 2
 933 494 l 2
 933 723 864 811 627 811 c 0
 500 811 291 783 291 673 c 0
 291 641 320 605 351 605 c 0
 359 605 367 608 375 613 c 0
 475 669 498 695 646 695 c 0
 719 695 797 672 797 600 c 2
 797 490 l 1
 548 470 251 455 251 210 c 0
 251 73 364 -19 515 -19 c 0
 648 -19 743 17 816 94 c 1
 832 19 877 -17 952 -17 c 0
 1014 -17 1144 42 1144 115 c 0
797 387 m 1
 797 189 l 1
 727 139 670 99 563 99 c 0
 473 99 398 136 398 214 c 0
 398 368 634 371 797 387 c 1
EndSplineSet
EndChar

StartChar: aacute
Encoding: 225 225 126
Width: 1240
VWidth: 0
Flags: W
PickledData: "(dp1
S'com.typemytype.robofont.layerData'
p2
(dp3
s."
LayerCount: 2
Fore
SplineSet
959.5 1235 m 0
 948.5 1235 939.5 1232 931.5 1225 c 0
 838.5 1145 726.5 1057 624.5 989 c 0
 616.5 984 612.5 978 612.5 968 c 0
 612.5 951 628.5 933 646.5 933 c 0
 649.5 933 654.5 934 659.5 937 c 0
 770.5 1001 891.5 1079 999.5 1147 c 0
 1011.5 1155 1016.5 1166 1016.5 1178 c 0
 1016.5 1206 988.5 1235 959.5 1235 c 0
1114 115 m 0
 1114 140 1085 174 1065 174 c 0
 1032 174 974 100 933 100 c 0
 912 100 903 122 903 150 c 2
 903 494 l 2
 903 723 834.432 811 597 811 c 0
 470.093 811 232 783 232 673 c 0
 232 641 261 605 292 605 c 0
 300 605 308 608 316 613 c 0
 416.385 669 468.308 695 616 695 c 0
 689.402 695 767 672 767 600 c 2
 767 490 l 1
 517.615 470 192 455 192 210 c 0
 192 73 304.524 -19 456 -19 c 0
 588.871 -19 713.029 17 786 94 c 1
 802 19 847 -17 922 -17 c 0
 984 -17 1114 42 1114 115 c 0
767 387 m 1
 767 189 l 1
 696.792 139 610.983 99 504 99 c 0
 414.104 99 339 136 339 214 c 0
 339 368 604.113 371 767 387 c 1
EndSplineSet
EndChar

StartChar: abreve
Encoding: 259 259 127
Width: 1240
VWidth: 0
Flags: W
PickledData: "(dp1
S'com.typemytype.robofont.layerData'
p2
(dp3
s."
LayerCount: 2
Fore
SplineSet
278 1148 m 0
 274 1159 265 1162 256 1162 c 0
 238 1162 218 1145 218 1130 c 0
 218 986 319 914 420 914 c 0
 521 914 623 986 623 1130 c 0
 623 1145 603 1162 585 1162 c 0
 576 1162 566 1159 562 1148 c 0
 531 1066 475 1025 420 1025 c 0
 365 1025 309 1066 278 1148 c 0
1114 115 m 0
 1114 140 1085 174 1065 174 c 0
 1032 174 974 100 933 100 c 0
 912 100 903 122 903 150 c 2
 903 494 l 2
 903 723 834.432 811 597 811 c 0
 470.093 811 232 783 232 673 c 0
 232 641 261 605 292 605 c 0
 300 605 308 608 316 613 c 0
 416.385 669 468.308 695 616 695 c 0
 689.402 695 767 672 767 600 c 2
 767 490 l 1
 517.615 470 192 455 192 210 c 0
 192 73 304.524 -19 456 -19 c 0
 588.871 -19 713.029 17 786 94 c 1
 802 19 847 -17 922 -17 c 0
 984 -17 1114 42 1114 115 c 0
767 387 m 1
 767 189 l 1
 696.792 139 610.983 99 504 99 c 0
 414.104 99 339 136 339 214 c 0
 339 368 604.113 371 767 387 c 1
EndSplineSet
EndChar

StartChar: acircumflex
Encoding: 226 226 128
Width: 1240
VWidth: 0
Flags: W
PickledData: "(dp1
S'com.typemytype.robofont.layerData'
p2
(dp3
s."
LayerCount: 2
Fore
SplineSet
652.5 1274 m 0
 639.5 1274 626.5 1270 621.5 1262 c 2
 437.5 979 l 1
 432.5 974 430.5 967 430.5 962 c 0
 430.5 946 449.5 933 467.5 933 c 0
 475.5 933 485.5 934 490.5 942 c 2
 652.5 1151 l 1
 815.5 942 l 2
 820.5 934 830.5 933 838.5 933 c 0
 856.5 933 875.5 946 875.5 962 c 0
 875.5 967 873.5 974 868.5 979 c 1
 684.5 1262 l 2
 679.5 1270 665.5 1274 652.5 1274 c 0
1114 115 m 0
 1114 140 1085 174 1065 174 c 0
 1032 174 974 100 933 100 c 0
 912 100 903 122 903 150 c 2
 903 494 l 2
 903 723 834.432 811 597 811 c 0
 470.093 811 232 783 232 673 c 0
 232 641 261 605 292 605 c 0
 300 605 308 608 316 613 c 0
 416.385 669 468.308 695 616 695 c 0
 689.402 695 767 672 767 600 c 2
 767 490 l 1
 517.615 470 192 455 192 210 c 0
 192 73 304.524 -19 456 -19 c 0
 588.871 -19 713.029 17 786 94 c 1
 802 19 847 -17 922 -17 c 0
 984 -17 1114 42 1114 115 c 0
767 387 m 1
 767 189 l 1
 696.792 139 610.983 99 504 99 c 0
 414.104 99 339 136 339 214 c 0
 339 368 604.113 371 767 387 c 1
EndSplineSet
EndChar

StartChar: acute
Encoding: 180 180 129
Width: 1240
VWidth: 0
Flags: W
PickledData: "(dp1
S'com.typemytype.robofont.layerData'
p2
(dp3
s."
LayerCount: 2
Fore
SplineSet
353 1277 m 0
 342 1277 333 1274 325 1267 c 0
 232 1187 120 1099 18 1031 c 0
 10 1026 6 1020 6 1010 c 0
 6 993 22 975 40 975 c 0
 43 975 48 976 53 979 c 0
 164 1043 285 1121 393 1189 c 0
 405 1197 410 1208 410 1220 c 0
 410 1248 382 1277 353 1277 c 0
EndSplineSet
EndChar

StartChar: adieresis
Encoding: 228 228 130
Width: 1240
VWidth: 0
Flags: W
PickledData: "(dp1
S'com.typemytype.robofont.layerData'
p2
(dp3
s."
LayerCount: 2
Fore
SplineSet
261 919 m 0
 311 919 352 960 352 1010 c 0
 352 1060 311 1101 261 1101 c 0
 211 1101 170 1060 170 1010 c 0
 170 960 211 919 261 919 c 0
596 919 m 0
 646 919 687 960 687 1010 c 0
 687 1060 646 1101 596 1101 c 0
 546 1101 506 1060 506 1010 c 0
 506 960 546 919 596 919 c 0
1114 115 m 0
 1114 140 1085 174 1065 174 c 0
 1032 174 974 100 933 100 c 0
 912 100 903 122 903 150 c 2
 903 494 l 2
 903 723 834.432 811 597 811 c 0
 470.093 811 232 783 232 673 c 0
 232 641 261 605 292 605 c 0
 300 605 308 608 316 613 c 0
 416.385 669 468.308 695 616 695 c 0
 689.402 695 767 672 767 600 c 2
 767 490 l 1
 517.615 470 192 455 192 210 c 0
 192 73 304.524 -19 456 -19 c 0
 588.871 -19 713.029 17 786 94 c 1
 802 19 847 -17 922 -17 c 0
 984 -17 1114 42 1114 115 c 0
767 387 m 1
 767 189 l 1
 696.792 139 610.983 99 504 99 c 0
 414.104 99 339 136 339 214 c 0
 339 368 604.113 371 767 387 c 1
EndSplineSet
EndChar

StartChar: ae
Encoding: 230 230 131
Width: 1240
VWidth: 0
Flags: W
PickledData: "(dp1
S'com.typemytype.robofont.layerData'
p2
(dp3
s."
LayerCount: 2
Fore
SplineSet
703 660 m 1
 661 767 581 811 426 811 c 0
 313 811 101 783 101 673 c 0
 101 633 130 613 168 613 c 0
 292 613 307 695 445 695 c 0
 588 695 616 625 616 486 c 1
 376 466 60 452 60 210 c 0
 60 60 187 -17 346 -17 c 0
 487 -17 631 37 681 184 c 1
 733 59 866 -17 1009 -17 c 0
 1127 -17 1310 58 1310 171 c 0
 1310 209 1281 232 1244 232 c 0
 1229 232 1215 226 1203 214 c 0
 1155 166 1107 119 1009 119 c 0
 858 119 760 231 757 396 c 1
 1197 428 l 1
 1258 434 1308 435 1308 497 c 0
 1308 680 1162 811 993 811 c 0
 854 811 759 754 703 660 c 1
615 393 m 1
 615 388 l 1
 615 369 l 2
 615 295 602 99 352 99 c 0
 273 99 207 136 207 214 c 0
 207 373 460 377 615 393 c 1
962 695 m 0
 1069 695 1154 649 1154 540 c 0
 1154 518 1129 513 1103 510 c 2
 757 483 l 1
 754 488 755 492 755 499 c 0
 755 625 851 695 962 695 c 0
EndSplineSet
EndChar

StartChar: agrave
Encoding: 224 224 132
Width: 1240
VWidth: 0
Flags: W
PickledData: "(dp1
S'com.typemytype.robofont.layerData'
p2
(dp3
s."
LayerCount: 2
Fore
SplineSet
692 968 m 0
 692 978 690 984 682 989 c 0
 580 1057 467 1145 374 1225 c 0
 366 1232 357 1235 346 1235 c 0
 317 1235 288 1206 288 1178 c 0
 288 1166 295 1155 307 1147 c 0
 414 1080 536 1001 647 937 c 1
 650 934 654 933 659 933 c 0
 677 933 692 951 692 968 c 0
1114 115 m 0
 1114 140 1085 174 1065 174 c 0
 1032 174 974 100 933 100 c 0
 912 100 903 122 903 150 c 2
 903 494 l 2
 903 723 834.432 811 597 811 c 0
 470.093 811 232 783 232 673 c 0
 232 641 261 605 292 605 c 0
 300 605 308 608 316 613 c 0
 416.385 669 468.308 695 616 695 c 0
 689.402 695 767 672 767 600 c 2
 767 490 l 1
 517.615 470 192 455 192 210 c 0
 192 73 304.524 -19 456 -19 c 0
 588.871 -19 713.029 17 786 94 c 1
 802 19 847 -17 922 -17 c 0
 984 -17 1114 42 1114 115 c 0
767 387 m 1
 767 189 l 1
 696.792 139 610.983 99 504 99 c 0
 414.104 99 339 136 339 214 c 0
 339 368 604.113 371 767 387 c 1
EndSplineSet
EndChar

StartChar: amacron
Encoding: 257 257 133
Width: 1240
VWidth: 0
Flags: W
PickledData: "(dp1
S'com.typemytype.robofont.layerData'
p2
(dp3
s."
LayerCount: 2
Fore
SplineSet
607 953 m 2
 640 953 658 980 658 1007 c 0
 658 1034 641 1060 608 1060 c 2
 241 1060 l 2
 207 1060 189 1034 189 1007 c 0
 189 980 207 953 245 953 c 2
 607 953 l 2
1114 115 m 0
 1114 140 1085 174 1065 174 c 0
 1032 174 974 100 933 100 c 0
 912 100 903 122 903 150 c 2
 903 494 l 2
 903 723 834.432 811 597 811 c 0
 470.093 811 232 783 232 673 c 0
 232 641 261 605 292 605 c 0
 300 605 308 608 316 613 c 0
 416.385 669 468.308 695 616 695 c 0
 689.402 695 767 672 767 600 c 2
 767 490 l 1
 517.615 470 192 455 192 210 c 0
 192 73 304.524 -19 456 -19 c 0
 588.871 -19 713.029 17 786 94 c 1
 802 19 847 -17 922 -17 c 0
 984 -17 1114 42 1114 115 c 0
767 387 m 1
 767 189 l 1
 696.792 139 610.983 99 504 99 c 0
 414.104 99 339 136 339 214 c 0
 339 368 604.113 371 767 387 c 1
EndSplineSet
EndChar

StartChar: ampersand
Encoding: 38 38 134
Width: 1240
VWidth: 0
Flags: W
PickledData: "(dp1
S'com.typemytype.robofont.layerData'
p2
(dp3
s."
LayerCount: 2
Fore
SplineSet
270 637 m 1
 163 571 59 500 59 348 c 0
 59 130 207 -18 430 -18 c 0
 566 -18 678 44 759 118 c 1
 837 63 920 15 1005 -27 c 0
 1017 -34 1031 -36 1048 -36 c 0
 1089 -36 1128 -14 1128 29 c 0
 1128 85 1085 86 1046 105 c 0
 977 138 911 177 849 221 c 1
 908 306 952 416 958 544 c 1
 1068 544 l 2
 1100 544 1118 572 1118 602 c 0
 1118 636 1105 665 1070 665 c 2
 745 665 l 2
 710 665 696 636 696 602 c 0
 696 572 715 544 747 544 c 2
 839 544 l 1
 834 453 805 363 759 289 c 1
 669 363 588 446 517 533 c 1
 493 560 467 590 441 623 c 1
 541 693 633 770 633 933 c 0
 633 1083 538 1189 384 1189 c 0
 239 1189 148 1086 148 936 c 0
 148 825 218 722 270 637 c 1
329 545 m 1
 423 410 539 289 670 185 c 1
 611 137 540 107 457 107 c 0
 305 107 214 204 214 361 c 0
 214 453 275 503 329 545 c 1
379 706 m 1
 332 778 296 859 296 944 c 0
 296 1010 326 1074 394 1074 c 0
 465 1074 505 999 505 926 c 0
 505 821 451 758 379 706 c 1
EndSplineSet
EndChar

StartChar: aogonek
Encoding: 261 261 135
Width: 1240
VWidth: 0
Flags: W
PickledData: "(dp1
S'com.typemytype.robofont.layerData'
p2
(dp3
s."
LayerCount: 2
Fore
SplineSet
694 -352 m 0
 758 -352 816 -310 816 -275 c 0
 816 -234 722 -252 722 -176 c 0
 722 -111 804 20 798 20 c 2
 744 20 l 1
 628 -76 583 -196 583 -245 c 0
 583 -324 631 -352 694 -352 c 0
1114 115 m 0
 1114 140 1085 174 1065 174 c 0
 1032 174 974 100 933 100 c 0
 912 100 903 122 903 150 c 2
 903 494 l 2
 903 723 834.432 811 597 811 c 0
 470.093 811 232 783 232 673 c 0
 232 641 261 605 292 605 c 0
 300 605 308 608 316 613 c 0
 416.385 669 468.308 695 616 695 c 0
 689.402 695 767 672 767 600 c 2
 767 490 l 1
 517.615 470 192 455 192 210 c 0
 192 73 304.524 -19 456 -19 c 0
 588.871 -19 713.029 17 786 94 c 1
 802 19 847 -17 922 -17 c 0
 984 -17 1114 42 1114 115 c 0
767 387 m 1
 767 189 l 1
 696.792 139 610.983 99 504 99 c 0
 414.104 99 339 136 339 214 c 0
 339 368 604.113 371 767 387 c 1
EndSplineSet
EndChar

StartChar: aring
Encoding: 229 229 136
Width: 1240
VWidth: 0
Flags: W
PickledData: "(dp1
S'com.typemytype.robofont.layerData'
p2
(dp3
s."
LayerCount: 2
Fore
SplineSet
428 1290 m 0
 314 1290 254 1204 254 1118 c 0
 254 1034 312 950 425 950 c 0
 538 950 597 1036 597 1121 c 0
 597 1206 541 1290 428 1290 c 0
430 1015 m 0
 367 1015 330 1064 330 1119 c 0
 330 1175 361 1224 427 1224 c 0
 492 1224 524 1175 524 1119 c 0
 524 1063 494 1015 430 1015 c 0
1114 115 m 0
 1114 140 1085 174 1065 174 c 0
 1032 174 974 100 933 100 c 0
 912 100 903 122 903 150 c 2
 903 494 l 2
 903 723 834.432 811 597 811 c 0
 470.093 811 232 783 232 673 c 0
 232 641 261 605 292 605 c 0
 300 605 308 608 316 613 c 0
 416.385 669 468.308 695 616 695 c 0
 689.402 695 767 672 767 600 c 2
 767 490 l 1
 517.615 470 192 455 192 210 c 0
 192 73 304.524 -19 456 -19 c 0
 588.871 -19 713.029 17 786 94 c 1
 802 19 847 -17 922 -17 c 0
 984 -17 1114 42 1114 115 c 0
767 387 m 1
 767 189 l 1
 696.792 139 610.983 99 504 99 c 0
 414.104 99 339 136 339 214 c 0
 339 368 604.113 371 767 387 c 1
EndSplineSet
EndChar

StartChar: asciicircum
Encoding: 94 94 137
Width: 1240
VWidth: 0
Flags: W
PickledData: "(dp1
S'com.typemytype.robofont.layerData'
p2
(dp3
s."
LayerCount: 2
Fore
SplineSet
768 436 m 0
 768 444 765 452 762 460 c 2
 524 969 l 2
 510 998 487 1032 451 1032 c 0
 412 1032 390 997 373 964 c 2
 133 477 l 2
 128 466 126 457 126 449 c 0
 126 414 157 387 191 387 c 0
 218 387 237 406 249 426 c 1
 471 859 l 1
 675 422 l 2
 683 406 699 391 720 391 c 0
 745 391 768 411 768 436 c 0
EndSplineSet
EndChar

StartChar: asciitilde
Encoding: 126 126 138
Width: 1240
VWidth: 0
Flags: W
PickledData: "(dp1
S'com.typemytype.robofont.layerData'
p2
(dp3
s."
LayerCount: 2
Fore
SplineSet
350 727 m 0
 350 702 374 691 400 691 c 0
 440 691 440 801 521 801 c 0
 609 801 739 678 872 678 c 0
 970 678 1048 758 1048 872 c 0
 1048 897 1025 908 998 908 c 0
 946 908 943 798 846 798 c 0
 787 798 665 922 501 922 c 0
 418 922 350 840 350 727 c 0
EndSplineSet
EndChar

StartChar: asterisk
Encoding: 42 42 139
Width: 1240
VWidth: 0
Flags: W
PickledData: "(dp1
S'com.typemytype.robofont.layerData'
p2
(dp3
s."
LayerCount: 2
Fore
SplineSet
1094 754 m 1
 847 725 l 2
 815 722 796 701 796 671 c 0
 796 641 815 621 847 618 c 2
 1094 589 l 1
 1135 589 1155 631 1155 671 c 0
 1155 711 1135 754 1094 754 c 1
305 589 m 1
 552 618 l 2
 584 621 603 641 603 671 c 0
 603 701 584 722 552 725 c 2
 305 754 l 1
 264 754 243 711 243 671 c 0
 243 631 264 589 305 589 c 1
974 344 m 0
 974 352 972 360 967 370 c 1
 819 570 l 2
 807 586 795 594 773 594 c 0
 745 594 720 573 720 544 c 0
 720 534 723 526 726 518 c 2
 823 288 l 2
 831 270 849 260 873 260 c 0
 919 260 974 297 974 344 c 0
425 999 m 0
 425 991 427 983 432 973 c 1
 580 774 l 2
 593 756 608 747 624 747 c 0
 629 747 633 748 638 750 c 2
 652 755 l 1
 666 764 679 776 679 798 c 0
 679 808 676 817 673 825 c 2
 576 1055 l 1
 566 1073 549 1083 526 1083 c 0
 478 1083 425 1047 425 999 c 0
525 260 m 0
 548 260 565 270 575 288 c 1
 672 518 l 2
 675 526 677 534 677 544 c 0
 677 573 652 594 623 594 c 0
 601 594 591 586 579 570 c 2
 431 370 l 1
 426 360 424 352 424 344 c 0
 424 296 477 260 525 260 c 0
871 1083 m 0
 847 1083 829 1073 821 1055 c 2
 724 825 l 2
 721 817 719 808 719 798 c 0
 719 769 744 747 772 747 c 0
 789 747 804 756 817 774 c 2
 965 973 l 1
 970 983 972 991 972 999 c 0
 972 1045 918 1083 871 1083 c 0
EndSplineSet
EndChar

StartChar: at
Encoding: 64 64 140
Width: 1240
VWidth: 0
Flags: W
PickledData: "(dp1
S'com.typemytype.robofont.layerData'
p2
(dp3
s."
LayerCount: 2
Fore
SplineSet
1003 825 m 1
 952 865 881 898 791 898 c 0
 578 898 424 672 424 460 c 0
 424 276 524 148 707 148 c 0
 822 148 901 216 949 284 c 1
 972 214 1025 163 1119 163 c 0
 1401 163 1527 414 1527 698 c 0
 1527 865 1443 1005 1348 1099 c 0
 1235 1210 1063 1295 841 1295 c 0
 495 1295 263 1092 135 867 c 0
 72 758 24 621 24 460 c 0
 24 242 120 79 240 -30 c 0
 362 -140 541 -223 763 -223 c 0
 1034 -223 1279 -127 1401 28 c 0
 1408 38 1410 45 1410 53 c 0
 1410 74 1388 94 1367 94 c 0
 1357 94 1349 90 1342 85 c 0
 1186 -15 1051 -120 783 -120 c 0
 430 -120 153 105 153 459 c 0
 153 862 455 1186 859 1186 c 0
 1176 1186 1406 1002 1406 694 c 0
 1406 490 1332 257 1133 257 c 0
 1063 257 1022 291 1022 355 c 0
 1022 370 1024 384 1027 396 c 2
 1126 825 l 2
 1136 867 1150 894 1150 926 c 0
 1150 931 1148 933 1143 933 c 0
 1127 933 1114 929 1094 929 c 0
 1043 929 1017 865 1003 825 c 1
818 794 m 0
 890 794 974 740 974 670 c 1
 966 619 l 2
 938 443 916 257 712 257 c 0
 612 257 556 352 556 452 c 0
 556 633 638 794 818 794 c 0
EndSplineSet
EndChar

StartChar: atilde
Encoding: 227 227 141
Width: 1240
VWidth: 0
Flags: W
PickledData: "(dp1
S'com.typemytype.robofont.layerData'
p2
(dp3
s."
LayerCount: 2
Fore
SplineSet
403.5 970 m 0
 403.5 945 426.5 933 453.5 933 c 0
 481.5 933 481.5 1030 539.5 1030 c 0
 592.5 1030 669.5 933 748.5 933 c 0
 834.5 933 902.5 1008 902.5 1114 c 0
 902.5 1139 879.5 1151 852.5 1151 c 0
 819.5 1151 817.5 1054 756.5 1054 c 0
 718.5 1054 639.5 1151 533.5 1151 c 0
 461.5 1151 403.5 1076 403.5 970 c 0
1114 115 m 0
 1114 140 1085 174 1065 174 c 0
 1032 174 974 100 933 100 c 0
 912 100 903 122 903 150 c 2
 903 494 l 2
 903 723 834.432 811 597 811 c 0
 470.093 811 232 783 232 673 c 0
 232 641 261 605 292 605 c 0
 300 605 308 608 316 613 c 0
 416.385 669 468.308 695 616 695 c 0
 689.402 695 767 672 767 600 c 2
 767 490 l 1
 517.615 470 192 455 192 210 c 0
 192 73 304.524 -19 456 -19 c 0
 588.871 -19 713.029 17 786 94 c 1
 802 19 847 -17 922 -17 c 0
 984 -17 1114 42 1114 115 c 0
767 387 m 1
 767 189 l 1
 696.792 139 610.983 99 504 99 c 0
 414.104 99 339 136 339 214 c 0
 339 368 604.113 371 767 387 c 1
EndSplineSet
EndChar

StartChar: b
Encoding: 98 98 142
Width: 1240
VWidth: 0
Flags: W
PickledData: "(dp1
S'com.typemytype.robofont.layerData'
p2
(dp3
s."
LayerCount: 2
Fore
SplineSet
852 398 m 0
 852 237 772 99 613 99 c 0
 502 99 425 151 377 221 c 1
 377 602 l 1
 432 659 509 695 620 695 c 0
 774 695 852 556 852 398 c 0
1003 398 m 0
 1003 635 859 811 626 811 c 0
 513 811 442 770 377 707 c 1
 377 1154 l 2
 377 1174 359 1188 340 1188 c 0
 335 1188 333 1187 331 1186 c 2
 68 1111 l 2
 38 1102 14 1095 14 1056 c 0
 14 1028 40 997 69 997 c 0
 73 997 72 999 76 999 c 1
 237 1041 l 1
 237 80 l 2
 237 35 251 -5 297 -5 c 0
 350 -5 363 46 363 102 c 1
 420 37 510 -17 623 -17 c 0
 862 -17 1003 156 1003 398 c 0
EndSplineSet
EndChar

StartChar: backslash
Encoding: 92 92 143
Width: 1240
VWidth: 0
Flags: W
PickledData: "(dp1
S'com.typemytype.robofont.layerData'
p2
(dp3
s."
LayerCount: 2
Fore
SplineSet
-33 1232 m 0
 -33 1225 -32 1220 -29 1213 c 2
 723 -363 l 2
 733 -383 746 -396 770 -396 c 0
 802 -396 841 -370 841 -337 c 0
 841 -329 838 -323 835 -316 c 2
 79 1264 l 1
 69 1282 55 1291 37 1291 c 0
 5 1291 -33 1266 -33 1232 c 0
EndSplineSet
EndChar

StartChar: bar
Encoding: 124 124 144
Width: 1240
VWidth: 0
Flags: W
PickledData: "(dp1
S'com.typemytype.robofont.layerData'
p2
(dp3
s."
LayerCount: 2
Fore
SplineSet
701 1257 m 0
 670 1257 639 1241 639 1208 c 2
 639 -56 l 2
 639 -97 663 -112 699 -112 c 0
 726 -112 759 -96 759 -67 c 2
 759 1208 l 1
 756 1239 734 1257 701 1257 c 0
EndSplineSet
EndChar

StartChar: braceleft
Encoding: 123 123 145
Width: 1240
VWidth: 0
Flags: W
PickledData: "(dp1
S'com.typemytype.robofont.layerData'
p2
(dp3
s."
LayerCount: 2
Fore
SplineSet
389 648 m 0
 389 777 329 930 329 1048 c 0
 329 1146 379 1216 576 1216 c 0
 614 1216 646 1247 646 1285 c 0
 646 1322 613 1356 576 1356 c 0
 254 1356 178 1229 178 1074 c 0
 178 931 240 763 240 647 c 0
 240 597 215 561 117 561 c 0
 79 561 47 530 47 492 c 2
 47 491 l 2
 47 453 79 421 117 421 c 0
 215 421 240 385 240 335 c 0
 240 219 178 51 178 -92 c 0
 178 -247 254 -373 576 -373 c 0
 613 -373 646 -340 646 -303 c 0
 646 -265 614 -233 576 -233 c 0
 379 -233 329 -163 329 -65 c 0
 329 53 389 206 389 335 c 0
 389 396 372 472 264 492 c 1
 372 512 389 587 389 648 c 0
EndSplineSet
EndChar

StartChar: braceright
Encoding: 125 125 146
Width: 1240
VWidth: 0
Flags: W
PickledData: "(dp1
S'com.typemytype.robofont.layerData'
p2
(dp3
s."
LayerCount: 2
Fore
SplineSet
313 648 m 0
 313 587 330 512 438 492 c 1
 330 472 313 396 313 335 c 0
 313 206 373 53 373 -65 c 0
 373 -163 323 -233 126 -233 c 0
 88 -233 56 -265 56 -303 c 0
 56 -340 89 -373 126 -373 c 0
 448 -373 525 -247 525 -92 c 0
 525 51 462 219 462 335 c 0
 462 385 487 421 585 421 c 0
 623 421 655 453 655 491 c 2
 655 492 l 2
 655 530 623 561 585 561 c 0
 487 561 462 597 462 647 c 0
 462 763 525 931 525 1074 c 0
 525 1229 448 1356 126 1356 c 0
 89 1356 56 1322 56 1285 c 0
 56 1247 88 1216 126 1216 c 0
 323 1216 373 1146 373 1048 c 0
 373 930 313 777 313 648 c 0
EndSplineSet
EndChar

StartChar: bracketleft
Encoding: 91 91 147
Width: 1240
VWidth: 0
Flags: W
PickledData: "(dp1
S'com.typemytype.robofont.layerData'
p2
(dp3
s."
LayerCount: 2
Fore
SplineSet
188 -354 m 2
 461 -354 l 2
 498 -354 531 -321 531 -284 c 0
 531 -246 499 -214 461 -214 c 2
 269 -214 l 1
 269 1277 l 1
 461 1277 l 2
 499 1277 531 1309 531 1347 c 0
 531 1384 498 1417 461 1417 c 2
 188 1417 l 2
 151 1417 118 1387 118 1350 c 1
 145 531 l 1
 118 -287 l 1
 118 -325 150 -354 188 -354 c 2
EndSplineSet
EndChar

StartChar: bracketright
Encoding: 93 93 148
Width: 1240
VWidth: 0
Flags: W
PickledData: "(dp1
S'com.typemytype.robofont.layerData'
p2
(dp3
s."
LayerCount: 2
Fore
SplineSet
434 -354 m 2
 472 -354 503 -325 503 -287 c 1
 476 531 l 1
 503 1350 l 1
 503 1387 471 1417 434 1417 c 2
 161 1417 l 2
 124 1417 91 1384 91 1347 c 0
 91 1309 123 1277 161 1277 c 2
 352 1277 l 1
 352 -214 l 1
 161 -214 l 2
 123 -214 91 -246 91 -284 c 0
 91 -321 124 -354 161 -354 c 2
 434 -354 l 2
EndSplineSet
EndChar

StartChar: breve
Encoding: 728 728 149
Width: 1240
VWidth: 0
Flags: W
PickledData: "(dp1
S'com.typemytype.robofont.layerData'
p2
(dp3
s."
LayerCount: 2
Fore
SplineSet
557 1207 m 0
 553 1218 544 1221 535 1221 c 0
 517 1221 497 1204 497 1189 c 0
 497 1045 598 973 699 973 c 0
 800 973 902 1045 902 1189 c 0
 902 1204 882 1221 864 1221 c 0
 855 1221 845 1218 841 1207 c 0
 810 1125 754 1084 699 1084 c 0
 644 1084 588 1125 557 1207 c 0
EndSplineSet
EndChar

StartChar: brokenbar
Encoding: 166 166 150
Width: 1240
VWidth: 0
Flags: W
PickledData: "(dp1
S'com.typemytype.robofont.layerData'
p2
(dp3
s."
LayerCount: 2
Fore
SplineSet
701 488 m 0
 670 488 639 471 639 438 c 2
 639 -56 l 2
 639 -97 663 -112 699 -112 c 0
 726 -112 759 -96 759 -67 c 2
 759 438 l 1
 756 469 734 488 701 488 c 0
701 1292 m 0
 670 1292 639 1275 639 1242 c 2
 639 748 l 2
 639 707 663 692 699 692 c 0
 726 692 759 708 759 737 c 2
 759 1242 l 1
 756 1273 734 1292 701 1292 c 0
EndSplineSet
EndChar

StartChar: bullet
Encoding: 8226 8226 151
Width: 1240
VWidth: 0
Flags: W
PickledData: "(dp1
S'com.typemytype.robofont.layerData'
p2
(dp3
s."
LayerCount: 2
Fore
SplineSet
703 197 m 0
 846 197 940 295 940 439 c 0
 940 582 846 681 703 681 c 0
 555 681 459 587 459 439 c 0
 459 291 555 197 703 197 c 0
EndSplineSet
EndChar

StartChar: c
Encoding: 99 99 152
Width: 1240
VWidth: 0
Flags: W
PickledData: "(dp1
S'com.typemytype.robofont.layerData'
p2
(dp3
s."
LayerCount: 2
Fore
SplineSet
675 811 m 0
 411.75 811 189 667 189 407 c 0
 189 141 384.337 -17 664 -17 c 0
 798.769 -17 1029 54 1029 171 c 0
 1029 204 1001 224 963 224 c 0
 947 224 933 217 920 206 c 0
 843.393 148 747.929 119 656 119 c 0
 490.211 119 341 212 341 407 c 0
 341 587 486.913 695 680 695 c 0
 734.923 695 792.462 690 850 678 c 1
 868 605 875 504 943 504 c 0
 989 504 1009 546 1009 600 c 0
 1009 771 832.912 811 675 811 c 0
EndSplineSet
EndChar

StartChar: cacute
Encoding: 263 263 153
Width: 1240
VWidth: 0
Flags: W
PickledData: "(dp1
S'com.typemytype.robofont.layerData'
p2
(dp3
s."
LayerCount: 2
Fore
SplineSet
1075 1218 m 0
 1064 1218 1055 1215 1047 1208 c 0
 954 1128 842 1040 740 972 c 0
 732 967 728 961 728 951 c 0
 728 934 744 916 762 916 c 0
 765 916 770 917 775 920 c 0
 886 984 1007 1062 1115 1130 c 0
 1127 1138 1132 1149 1132 1161 c 0
 1132 1189 1104 1218 1075 1218 c 0
675 811 m 0
 411.75 811 189 667 189 407 c 0
 189 141 384.337 -17 664 -17 c 0
 798.77 -17 1029 54 1029 171 c 0
 1029 204 1001 224 963 224 c 0
 947 224 933 217 920 206 c 0
 843.393 148 747.929 119 656 119 c 0
 490.211 119 341 212 341 407 c 0
 341 587 486.913 695 680 695 c 0
 734.923 695 792.462 690 850 678 c 1
 868 605 875 504 943 504 c 0
 989 504 1009 546 1009 600 c 0
 1009 771 832.911 811 675 811 c 0
EndSplineSet
EndChar

StartChar: caron
Encoding: 711 711 154
Width: 1240
VWidth: 0
Flags: W
PickledData: "(dp1
S'com.typemytype.robofont.layerData'
p2
(dp3
s."
LayerCount: 2
Fore
SplineSet
699 979 m 0
 712 979 726 982 731 990 c 2
 915 1273 l 1
 920 1278 922 1285 922 1290 c 0
 922 1306 903 1320 885 1320 c 0
 877 1320 867 1319 862 1311 c 2
 699 1102 l 1
 537 1311 l 2
 532 1319 522 1320 514 1320 c 0
 496 1320 477 1306 477 1290 c 0
 477 1285 479 1278 484 1273 c 1
 668 990 l 2
 673 982 686 979 699 979 c 0
EndSplineSet
EndChar

StartChar: ccaron
Encoding: 269 269 155
Width: 1240
VWidth: 0
Flags: W
PickledData: "(dp1
S'com.typemytype.robofont.layerData'
p2
(dp3
s."
LayerCount: 2
Fore
SplineSet
515 920 m 0
 528 920 542 923 547 931 c 2
 731 1214 l 1
 736 1219 738 1226 738 1231 c 0
 738 1247 719 1261 701 1261 c 0
 693 1261 683 1260 678 1252 c 2
 515 1043 l 1
 353 1252 l 2
 348 1260 338 1261 330 1261 c 0
 312 1261 293 1247 293 1231 c 0
 293 1226 295 1219 300 1214 c 1
 484 931 l 2
 489 923 502 920 515 920 c 0
675 811 m 0
 411.75 811 189 667 189 407 c 0
 189 141 384.337 -17 664 -17 c 0
 798.77 -17 1029 54 1029 171 c 0
 1029 204 1001 224 963 224 c 0
 947 224 933 217 920 206 c 0
 843.393 148 747.929 119 656 119 c 0
 490.211 119 341 212 341 407 c 0
 341 587 486.913 695 680 695 c 0
 734.923 695 792.462 690 850 678 c 1
 868 605 875 504 943 504 c 0
 989 504 1009 546 1009 600 c 0
 1009 771 832.911 811 675 811 c 0
EndSplineSet
EndChar

StartChar: ccedilla
Encoding: 231 231 156
Width: 1240
VWidth: 0
Flags: W
PickledData: "(dp1
S'com.typemytype.robofont.layerData'
p2
(dp3
s."
LayerCount: 2
Fore
SplineSet
783 0 m 1
 696 0 l 1
 676 -33 569 -322 569 -367 c 0
 569 -429 605 -461 645 -461 c 0
 689 -461 737 -423 742 -342 c 1
 783 0 l 1
675 811 m 0
 411.75 811 189 667 189 407 c 0
 189 141 384.337 -17 664 -17 c 0
 798.77 -17 1029 54 1029 171 c 0
 1029 204 1001 224 963 224 c 0
 947 224 933 217 920 206 c 0
 843.393 148 747.929 119 656 119 c 0
 490.211 119 341 212 341 407 c 0
 341 587 486.913 695 680 695 c 0
 734.923 695 792.462 690 850 678 c 1
 868 605 875 504 943 504 c 0
 989 504 1009 546 1009 600 c 0
 1009 771 832.911 811 675 811 c 0
EndSplineSet
EndChar

StartChar: ccircumflex
Encoding: 265 265 157
Width: 1240
VWidth: 0
Flags: W
PickledData: "(dp1
S'com.typemytype.robofont.layerData'
p2
(dp3
s."
LayerCount: 2
Fore
SplineSet
510 1261 m 0
 497 1261 484 1257 479 1249 c 2
 295 966 l 1
 290 961 288 954 288 949 c 0
 288 933 307 920 325 920 c 0
 333 920 343 921 348 929 c 2
 510 1138 l 1
 673 929 l 2
 678 921 688 920 696 920 c 0
 714 920 733 933 733 949 c 0
 733 954 731 961 726 966 c 1
 542 1249 l 2
 537 1257 523 1261 510 1261 c 0
675 811 m 0
 411.75 811 189 667 189 407 c 0
 189 141 384.337 -17 664 -17 c 0
 798.77 -17 1029 54 1029 171 c 0
 1029 204 1001 224 963 224 c 0
 947 224 933 217 920 206 c 0
 843.393 148 747.929 119 656 119 c 0
 490.211 119 341 212 341 407 c 0
 341 587 486.913 695 680 695 c 0
 734.923 695 792.462 690 850 678 c 1
 868 605 875 504 943 504 c 0
 989 504 1009 546 1009 600 c 0
 1009 771 832.911 811 675 811 c 0
EndSplineSet
EndChar

StartChar: cdotaccent
Encoding: 267 267 158
Width: 1240
VWidth: 0
Flags: W
PickledData: "(dp1
S'com.typemytype.robofont.layerData'
p2
(dp3
s."
LayerCount: 2
Fore
SplineSet
543 1002 m 0
 543 1053 505 1101 442 1101 c 0
 371 1101 338 1052 338 1002 c 0
 338 949 375 895 441 895 c 0
 502 895 543 949 543 1002 c 0
675 811 m 0
 411.75 811 189 667 189 407 c 0
 189 141 384.337 -17 664 -17 c 0
 798.77 -17 1029 54 1029 171 c 0
 1029 204 1001 224 963 224 c 0
 947 224 933 217 920 206 c 0
 843.393 148 747.929 119 656 119 c 0
 490.211 119 341 212 341 407 c 0
 341 587 486.913 695 680 695 c 0
 734.923 695 792.462 690 850 678 c 1
 868 605 875 504 943 504 c 0
 989 504 1009 546 1009 600 c 0
 1009 771 832.911 811 675 811 c 0
EndSplineSet
EndChar

StartChar: cedilla
Encoding: 184 184 159
Width: 1240
VWidth: 0
Flags: W
PickledData: "(dp1
S'com.typemytype.robofont.layerData'
p2
(dp3
s."
LayerCount: 2
Fore
SplineSet
180 0 m 1
 93 0 l 1
 73 -33 -34 -322 -34 -367 c 0
 -34 -429 2 -461 42 -461 c 0
 86 -461 134 -423 139 -342 c 1
 180 0 l 1
EndSplineSet
EndChar

StartChar: cent
Encoding: 162 162 160
Width: 1240
VWidth: 0
Flags: W
PickledData: "(dp1
S'com.typemytype.robofont.layerData'
p2
(dp3
s."
LayerCount: 2
Fore
SplineSet
494 1109 m 0
 470 1109 447 1096 447 1070 c 2
 447 903 l 1
 233 877 64 737 64 503 c 0
 64 259 218 105 447 82 c 1
 447 -71 l 2
 447 -103 470 -117 494 -117 c 0
 517 -117 540 -104 540 -77 c 2
 540 80 l 1
 660 90 834 158 834 266 c 0
 834 299 806 320 768 320 c 0
 752 320 738 313 725 302 c 0
 671 254 605 225 540 217 c 1
 540 791 l 1
 577 790 616 784 655 774 c 1
 673 701 680 600 748 600 c 0
 794 600 814 641 814 695 c 0
 814 858 673 903 540 907 c 1
 540 1070 l 2
 540 1095 521 1109 494 1109 c 0
447 783 m 1
 447 219 l 1
 320 239 216 332 216 503 c 0
 216 655 310 756 447 783 c 1
EndSplineSet
EndChar

StartChar: circumflex
Encoding: 710 710 161
Width: 1240
VWidth: 0
Flags: W
PickledData: "(dp1
S'com.typemytype.robofont.layerData'
p2
(dp3
s."
LayerCount: 2
Fore
SplineSet
699 1320 m 0
 686 1320 673 1316 668 1308 c 2
 484 1025 l 1
 479 1020 477 1013 477 1008 c 0
 477 992 496 979 514 979 c 0
 522 979 532 980 537 988 c 2
 699 1197 l 1
 862 988 l 2
 867 980 877 979 885 979 c 0
 903 979 922 992 922 1008 c 0
 922 1013 920 1020 915 1025 c 1
 731 1308 l 2
 726 1316 712 1320 699 1320 c 0
EndSplineSet
EndChar

StartChar: ck
Encoding: 65538 -1 162
Width: 1240
VWidth: 0
Flags: W
PickledData: "(dp1
S'com.typemytype.robofont.layerData'
p2
(dp3
s."
LayerCount: 2
Fore
SplineSet
1061 1188 m 0
 1056 1188 1052 1187 1050 1186 c 2
 787 1111 l 2
 757 1102 735 1095 735 1056 c 0
 735 1028 760 997 789 997 c 0
 793 997 792 999 796 999 c 1
 957 1041 l 1
 957 120 l 1
 851 120 l 2
 815 120 799 92 799 59 c 0
 799 24 817 0 855 0 c 2
 1199 0 l 2
 1231 0 1249 27 1249 57 c 0
 1249 91 1236 120 1201 120 c 2
 1097 120 l 1
 1097 339 l 1
 1223 415 l 1
 1428 120 l 1
 1388 120 l 2
 1349 120 1332 96 1332 61 c 0
 1332 27 1349 0 1384 0 c 2
 1682 0 l 2
 1743 0 1776 12 1776 66 c 0
 1776 119 1758 128 1697 128 c 2
 1687 128 l 2
 1600 128 1563 130 1515 199 c 2
 1324 473 l 1
 1515 611 l 2
 1540 628 1564 654 1600 654 c 2
 1676 654 l 2
 1711 654 1725 683 1725 717 c 0
 1725 747 1707 774 1675 774 c 2
 1358 774 l 2
 1320 774 1302 750 1302 715 c 0
 1302 681 1318 654 1354 654 c 2
 1413 654 l 1
 1310 586 1203 515 1097 443 c 1
 1097 1154 l 2
 1097 1174 1080 1188 1061 1188 c 0
521 811 m 0
 274 811 65 667 65 407 c 0
 65 141 248 -17 510 -17 c 0
 630 -17 835 54 835 171 c 0
 835 204 807 224 769 224 c 0
 753 224 739 217 726 206 c 0
 661 148 580 119 502 119 c 0
 352 119 217 212 217 407 c 0
 217 587 350 695 526 695 c 0
 568 695 612 690 656 678 c 1
 674 605 681 504 749 504 c 0
 795 504 815 546 815 600 c 0
 815 771 660 811 521 811 c 0
EndSplineSet
EndChar

StartChar: colon
Encoding: 58 58 163
Width: 1240
VWidth: 0
Flags: W
PickledData: "(dp1
S'com.typemytype.robofont.layerData'
p2
(dp3
s."
LayerCount: 2
Fore
SplineSet
699 -48 m 0
 783 -48 846 14 846 99 c 0
 846 182 783 246 699 246 c 0
 615 246 553 184 553 99 c 0
 553 14 614 -48 699 -48 c 0
699 519 m 0
 783 519 846 581 846 666 c 0
 846 749 783 813 699 813 c 0
 615 813 553 751 553 666 c 0
 553 581 614 519 699 519 c 0
EndSplineSet
EndChar

StartChar: comma
Encoding: 44 44 164
Width: 1240
VWidth: 0
Flags: W
PickledData: "(dp1
S'com.typemytype.robofont.layerData'
p2
(dp3
s."
LayerCount: 2
Fore
SplineSet
695 191 m 0
 635 191 579 155 579 85 c 0
 579 15 633 -17 707 -17 c 1
 707 -95 638 -140 585 -175 c 0
 570 -185 564 -198 564 -210 c 0
 564 -234 586 -257 615 -257 c 0
 625 -257 636 -254 647 -248 c 0
 750 -196 835 -104 835 40 c 0
 835 141 770 191 695 191 c 0
EndSplineSet
EndChar

StartChar: copyright
Encoding: 169 169 165
Width: 1240
VWidth: 0
Flags: W
PickledData: "(dp1
S'com.typemytype.robofont.layerData'
p2
(dp3
s."
LayerCount: 2
Fore
SplineSet
1312 581 m 0
 1312 944 1061 1188 699 1188 c 0
 337 1188 87 944 87 581 c 0
 87 218 338 -17 699 -17 c 0
 1060 -17 1312 218 1312 581 c 0
703 320 m 0
 555 320 469 436 469 586 c 0
 469 738 552 862 703 862 c 0
 791 862 849 816 889 755 c 1
 902 737 912 710 937 710 c 0
 957 710 986 720 986 740 c 2
 986 921 l 2
 986 940 956 950 937 950 c 0
 914 950 887 943 887 921 c 2
 887 893 l 1
 841 934 782 960 703 960 c 0
 484 960 339 807 339 586 c 0
 339 367 484 218 703 218 c 0
 823 218 920 264 988 323 c 1
 1000 328 1000 333 1000 347 c 2
 1000 498 l 2
 1000 518 971 529 951 529 c 0
 927 529 901 521 901 499 c 0
 901 384 816 320 703 320 c 0
200 583 m 0
 200 880 396 1087 699 1087 c 0
 1002 1087 1199 880 1199 583 c 0
 1199 285 1003 84 699 84 c 0
 395 84 200 285 200 583 c 0
EndSplineSet
EndChar

StartChar: ct
Encoding: 65539 -1 166
Width: 1240
VWidth: 0
Flags: W
PickledData: "(dp1
S'com.typemytype.robofont.layerData'
p2
(dp3
s."
LayerCount: 2
Fore
SplineSet
1210 92 m 0
 1159 92 1124 119 1124 191 c 2
 1124 653 l 1
 1301 653 l 2
 1333 653 1352 680 1352 710 c 0
 1352 744 1337 774 1302 774 c 2
 1124 774 l 1
 1124 973 l 2
 1124 985 1122 1001 1122 1013 c 2
 1122 1027 l 1
 1106 1039 1091 1044 1068 1044 c 0
 989 1044 987 857 987 774 c 1
 880 774 l 2
 844 774 828 745 828 712 c 0
 828 677 846 653 884 653 c 2
 987 653 l 1
 987 169 l 2
 987 68 1080 -18 1187 -18 c 0
 1279 -18 1402 32 1402 113 c 0
 1402 142 1382 165 1353 165 c 0
 1301 165 1298 92 1210 92 c 0
520 811 m 0
 273 811 64 667 64 407 c 0
 64 141 248 -17 510 -17 c 0
 630 -17 834 54 834 171 c 0
 834 204 806 224 768 224 c 0
 752 224 738 217 725 206 c 0
 660 148 579 119 501 119 c 0
 351 119 216 212 216 407 c 0
 216 587 349 695 525 695 c 0
 567 695 611 690 655 678 c 1
 673 605 680 504 748 504 c 0
 794 504 814 546 814 600 c 0
 814 771 659 811 520 811 c 0
EndSplineSet
EndChar

StartChar: currency
Encoding: 164 164 167
Width: 1240
VWidth: 0
Flags: W
PickledData: "(dp1
S'com.typemytype.robofont.layerData'
p2
(dp3
s."
LayerCount: 2
Fore
SplineSet
919 757 m 0
 906 757 893 752 883 742 c 2
 699 558 l 1
 516 742 l 2
 506 752 493 757 480 757 c 0
 453 757 430 733 430 707 c 0
 430 694 435 681 445 671 c 2
 628 488 l 1
 445 303 l 2
 435 293 430 280 430 268 c 0
 430 241 453 218 480 218 c 0
 493 218 506 223 516 233 c 2
 699 417 l 1
 883 233 l 2
 893 223 906 218 919 218 c 0
 946 218 969 241 969 268 c 0
 969 280 964 293 954 303 c 2
 770 488 l 1
 954 671 l 2
 964 681 969 694 969 707 c 0
 969 733 946 757 919 757 c 0
EndSplineSet
EndChar

StartChar: d
Encoding: 100 100 168
Width: 1240
VWidth: 0
Flags: W
PickledData: "(dp1
S'com.typemytype.robofont.layerData'
p2
(dp3
s."
LayerCount: 2
Fore
SplineSet
310 408 m 0
 310 556.815 394.764 695 560 695 c 0
 671.403 695 753.654 661 813 602 c 1
 813 221 l 1
 762.165 151.885 677.439 97 562 97 c 0
 395.406 97 310 242.619 310 408 c 0
159 408 m 0
 159 162.217 305.247 -17 557 -17 c 0
 668.35 -17 758.886 39 813 102 c 1
 813 53 l 2
 813 22 820 -7 852 -7 c 1
 1075 27 l 2
 1099.54 30.5783 1115.17 59.0204 1115.17 85.9708 c 0
 1115.17 111.741 1100.88 136.148 1066.41 136.148 c 0
 1061.94 136.148 1057.14 135.779 1052 135 c 2
 953 120 l 1
 953 1154 l 2
 953 1174 936 1188 917 1188 c 0
 912 1188 908 1187 906 1186 c 2
 643 1111 l 2
 613 1102 590 1095 590 1056 c 0
 590 1028 616 997 645 997 c 0
 649 997 648 999 652 999 c 1
 813 1041 l 1
 813 721 l 1
 744.349 774 667.378 811 554 811 c 0
 310.521 811 159 636.334 159 408 c 0
EndSplineSet
EndChar

StartChar: dagger
Encoding: 8224 8224 169
Width: 1240
VWidth: 0
Flags: W
PickledData: "(dp1
S'com.typemytype.robofont.layerData'
p2
(dp3
s."
LayerCount: 2
Fore
SplineSet
976 857 m 2
 752 857 l 1
 752 1208 l 1
 749 1239 726 1257 693 1257 c 0
 662 1257 632 1241 632 1208 c 2
 632 857 l 1
 423 857 l 2
 393 857 368 833 368 803 c 0
 368 773 393 747 423 747 c 2
 632 747 l 1
 632 -56 l 2
 632 -97 656 -112 692 -112 c 0
 719 -112 752 -96 752 -67 c 2
 752 747 l 1
 976 747 l 2
 1006 747 1031 773 1031 803 c 0
 1031 833 1006 857 976 857 c 2
EndSplineSet
EndChar

StartChar: daggerdbl
Encoding: 8225 8225 170
Width: 1240
VWidth: 0
Flags: W
PickledData: "(dp1
S'com.typemytype.robofont.layerData'
p2
(dp3
s."
LayerCount: 2
Fore
SplineSet
935 857 m 2
 752 857 l 1
 752 1208 l 1
 749 1239 726 1257 693 1257 c 0
 662 1257 632 1241 632 1208 c 2
 632 857 l 1
 464 857 l 2
 434 857 409 833 409 803 c 0
 409 773 434 747 464 747 c 2
 632 747 l 1
 632 367 l 1
 464 367 l 2
 434 367 409 342 409 312 c 0
 409 282 434 257 464 257 c 2
 632 257 l 1
 632 -56 l 2
 632 -97 656 -112 692 -112 c 0
 719 -112 752 -96 752 -67 c 2
 752 257 l 1
 935 257 l 2
 965 257 990 282 990 312 c 0
 990 342 965 367 935 367 c 2
 752 367 l 1
 752 747 l 1
 935 747 l 2
 965 747 990 773 990 803 c 0
 990 833 965 857 935 857 c 2
EndSplineSet
EndChar

StartChar: dcaron
Encoding: 271 271 171
Width: 1240
VWidth: 0
Flags: W
PickledData: "(dp1
S'com.typemytype.robofont.layerData'
p2
(dp3
s."
LayerCount: 2
Fore
SplineSet
1418 1187 m 0
 1358 1187 1302 1151 1302 1081 c 0
 1302 1011 1356 979 1430 979 c 1
 1430 901 1361 856 1308 821 c 0
 1293 811 1287 798 1287 786 c 0
 1287 762 1309 739 1338 739 c 0
 1348 739 1359 742 1370 748 c 0
 1473 800 1558 892 1558 1036 c 0
 1558 1137 1493 1187 1418 1187 c 0
310 408 m 0
 310 556.814 394.764 695 560 695 c 0
 671.403 695 753.654 661 813 602 c 1
 813 221 l 1
 762.165 151.885 677.438 97 562 97 c 0
 395.406 97 310 242.619 310 408 c 0
159 408 m 0
 159 162.217 305.247 -17 557 -17 c 0
 668.35 -17 758.886 39 813 102 c 1
 813 53 l 2
 813 22 820 -7 852 -7 c 1
 1075 27 l 2
 1099.54 30.5781 1115.17 59.0205 1115.17 85.9707 c 0
 1115.17 111.741 1100.88 136.147 1066.41 136.147 c 0
 1061.94 136.147 1057.14 135.779 1052 135 c 2
 953 120 l 1
 953 1154 l 2
 953 1174 936 1188 917 1188 c 0
 912 1188 908 1187 906 1186 c 2
 643 1111 l 2
 613 1102 590 1095 590 1056 c 0
 590 1028 616 997 645 997 c 0
 649 997 648 999 652 999 c 1
 813 1041 l 1
 813 721 l 1
 744.35 774 667.378 811 554 811 c 0
 310.521 811 159 636.334 159 408 c 0
EndSplineSet
EndChar

StartChar: dcroat
Encoding: 273 273 172
Width: 1240
VWidth: 0
Flags: W
PickledData: "(dp1
S'com.typemytype.robofont.layerData'
p2
(dp3
s."
LayerCount: 2
Fore
SplineSet
212 398 m 0
 212 552 291 695 445 695 c 0
 552 695 631 661 688 602 c 1
 688 221 l 1
 640 153 560 99 451 99 c 0
 293 99 212 239 212 398 c 0
918 982 m 2
 828 982 l 1
 828 1111 l 1
 828 1119 l 2
 828 1145 812 1171 779 1171 c 2
 539 1171 l 2
 504 1171 486 1145 486 1119 c 0
 486 1092 505 1065 543 1065 c 2
 688 1065 l 1
 688 982 l 1
 479 982 l 2
 444 982 427 956 427 930 c 0
 427 903 446 876 484 876 c 2
 688 876 l 1
 688 721 l 1
 622 774 547 811 438 811 c 0
 205 811 61 632 61 398 c 0
 61 158 201 -17 442 -17 c 0
 549 -17 636 39 688 102 c 1
 688 53 l 2
 688 22 695 -7 727 -7 c 0
 756 -7 805 3 841 8 c 0
 900 15 1005 11 1005 85 c 0
 1005 117 981 136 945 136 c 0
 937 136 932 136 927 135 c 2
 828 120 l 1
 828 876 l 1
 917 876 l 2
 950 876 967 903 967 930 c 0
 967 956 951 982 918 982 c 2
EndSplineSet
EndChar

StartChar: degree
Encoding: 176 176 173
Width: 1240
VWidth: 0
Flags: W
PickledData: "(dp1
S'com.typemytype.robofont.layerData'
p2
(dp3
s."
LayerCount: 2
Fore
SplineSet
703 1121 m 0
 536 1121 448 994 448 868 c 0
 448 745 532 623 698 623 c 0
 864 623 950 749 950 873 c 0
 950 998 868 1121 703 1121 c 0
707 719 m 0
 615 719 560 789 560 870 c 0
 560 952 606 1024 702 1024 c 0
 798 1024 845 952 845 870 c 0
 845 788 801 719 707 719 c 0
EndSplineSet
EndChar

StartChar: dieresis
Encoding: 168 168 174
Width: 1240
VWidth: 0
Flags: W
PickledData: "(dp1
S'com.typemytype.robofont.layerData'
p2
(dp3
s."
LayerCount: 2
Fore
SplineSet
532 978 m 0
 582 978 623 1019 623 1069 c 0
 623 1119 582 1160 532 1160 c 0
 482 1160 441 1119 441 1069 c 0
 441 1019 482 978 532 978 c 0
867 978 m 0
 917 978 958 1019 958 1069 c 0
 958 1119 917 1160 867 1160 c 0
 817 1160 777 1119 777 1069 c 0
 777 1019 817 978 867 978 c 0
EndSplineSet
EndChar

StartChar: divide
Encoding: 247 247 175
Width: 1240
VWidth: 0
Flags: W
PickledData: "(dp1
S'com.typemytype.robofont.layerData'
p2
(dp3
s."
LayerCount: 2
Fore
SplineSet
376 553 m 0
 376 514 407 482 446 482 c 2
 953 482 l 2
 992 482 1022 514 1022 553 c 0
 1022 591 991 622 953 622 c 2
 446 622 l 2
 408 622 376 591 376 553 c 0
697 214 m 0
 754 214 796 257 796 314 c 0
 796 371 754 414 697 414 c 0
 640 414 596 371 596 314 c 0
 596 257 639 214 697 214 c 0
697 691 m 0
 754 691 796 734 796 791 c 0
 796 848 754 891 697 891 c 0
 640 891 596 848 596 791 c 0
 596 734 639 691 697 691 c 0
EndSplineSet
EndChar

StartChar: dollar
Encoding: 36 36 176
Width: 1240
VWidth: 0
Flags: W
PickledData: "(dp1
S'com.typemytype.robofont.layerData'
p2
(dp3
s."
LayerCount: 2
Fore
SplineSet
615 1079 m 1
 723 1074 825 1033 837 937 c 1
 843 881 l 2
 846 851 868 838 900 838 c 0
 936 838 963 854 963 894 c 1
 942 1145 l 2
 939 1172 914 1190 887 1190 c 0
 849 1190 823 1170 823 1132 c 1
 773 1161 695 1181 615 1186 c 1
 615 1266 l 2
 615 1291 595 1311 570 1311 c 0
 545 1311 525 1291 525 1266 c 2
 525 1186 l 1
 324 1172 168 1055 168 868 c 0
 168 684 287 600 451 563 c 1
 525 542 l 1
 525 102 l 1
 384 103 256 155 240 280 c 1
 229 375 l 2
 226 402 201 419 174 419 c 0
 130 419 109 401 109 365 c 1
 148 27 l 2
 151 -4 172 -17 205 -17 c 0
 236 -17 265 0 268 31 c 1
 349 0 435 -16 525 -18 c 1
 525 -98 l 2
 525 -123 545 -143 570 -143 c 0
 595 -143 615 -123 615 -98 c 2
 615 -16 l 1
 825 2 1003 100 1003 313 c 0
 1003 530 879 615 699 660 c 2
 615 681 l 1
 615 1079 l 1
615 517 m 1
 675 500 l 2
 777 471 863 437 863 313 c 0
 863 174 743 121 615 107 c 1
 615 517 l 1
525 703 m 1
 503 709 l 1
 381 739 319 790 319 879 c 0
 319 972 360 1059 525 1076 c 1
 525 703 l 1
EndSplineSet
EndChar

StartChar: dotaccent
Encoding: 729 729 177
Width: 1240
VWidth: 0
Flags: W
PickledData: "(dp1
S'com.typemytype.robofont.layerData'
p2
(dp3
s."
LayerCount: 2
Fore
SplineSet
802 270 m 0
 802 321 764 370 701 370 c 0
 630 370 597 320 597 270 c 0
 597 217 634 164 700 164 c 0
 761 164 802 217 802 270 c 0
EndSplineSet
EndChar

StartChar: dotlessi
Encoding: 305 305 178
Width: 1240
VWidth: 0
Flags: W
PickledData: "(dp1
S'com.typemytype.robofont.layerData'
p2
(dp3
s."
LayerCount: 2
Fore
SplineSet
41 59 m 0
 41 24 59 0 97 0 c 2
 430 0 l 2
 462 0 480 27 480 57 c 0
 480 91 466 120 431 120 c 2
 326 120 l 1
 326 741 l 2
 326 761 311 774 291 774 c 0
 286 774 283 773 280 772 c 2
 62 718 l 2
 36 711 23 689 23 660 c 0
 23 632 52 606 79 606 c 0
 84 606 86 606 88 607 c 2
 186 634 l 1
 186 120 l 1
 93 120 l 2
 57 120 41 92 41 59 c 0
EndSplineSet
EndChar

StartChar: e
Encoding: 101 101 179
Width: 1240
VWidth: 0
Flags: W
PickledData: "(dp1
S'com.typemytype.robofont.layerData'
p2
(dp3
s."
LayerCount: 2
Fore
SplineSet
361 382 m 1
 952 396 l 1
 1017 403 1064 405 1064 473 c 0
 1064 673 894.468 811 680 811 c 0
 371.975 811 216 642 216 393 c 0
 216 142 385.816 -17 696 -17 c 0
 829.988 -17 1065 54 1065 171 c 0
 1065 209 1037 232 1000 232 c 0
 984 232 969 226 955 214 c 0
 889.026 152.189 828.55 97 701 97 c 0
 483.751 97 361 195.814 361 382 c 1
913 516 m 0
 913 495 887 488 862 487 c 2
 359 478 l 1
 373.4 613.042 493.27 700 683 700 c 0
 798.602 700 913 649.631 913 516 c 0
EndSplineSet
EndChar

StartChar: eacute
Encoding: 233 233 180
Width: 1240
VWidth: 0
Flags: W
PickledData: "(dp1
S'com.typemytype.robofont.layerData'
p2
(dp3
s."
LayerCount: 2
Fore
SplineSet
974 1218 m 0
 963 1218 954 1215 946 1208 c 0
 853 1128 741 1040 639 972 c 0
 631 967 627 961 627 951 c 0
 627 934 643 916 661 916 c 0
 664 916 669 917 674 920 c 0
 785 984 906 1062 1014 1130 c 0
 1026 1138 1031 1149 1031 1161 c 0
 1031 1189 1003 1218 974 1218 c 0
361 382 m 1
 952 396 l 1
 1017 403 1064 405 1064 473 c 0
 1064 673 894.468 811 680 811 c 0
 371.975 811 216 642 216 393 c 0
 216 142 385.816 -17 696 -17 c 0
 829.988 -17 1065 54 1065 171 c 0
 1065 209 1037 232 1000 232 c 0
 984 232 969 226 955 214 c 0
 889.026 152.188 828.55 97 701 97 c 0
 483.751 97 361 195.813 361 382 c 1
913 516 m 0
 913 495 887 488 862 487 c 2
 359 478 l 1
 373.4 613.041 493.271 700 683 700 c 0
 798.603 700 913 649.631 913 516 c 0
EndSplineSet
EndChar

StartChar: ebreve
Encoding: 277 277 181
Width: 1240
VWidth: 0
Flags: W
PickledData: "(dp1
S'com.typemytype.robofont.layerData'
p2
(dp3
s."
LayerCount: 2
Fore
SplineSet
310 1148 m 0
 306 1159 297 1162 288 1162 c 0
 270 1162 250 1145 250 1130 c 0
 250 986 351 914 452 914 c 0
 553 914 655 986 655 1130 c 0
 655 1145 635 1162 617 1162 c 0
 608 1162 598 1159 594 1148 c 0
 563 1066 507 1025 452 1025 c 0
 397 1025 341 1066 310 1148 c 0
361 382 m 1
 952 396 l 1
 1017 403 1064 405 1064 473 c 0
 1064 673 894.468 811 680 811 c 0
 371.975 811 216 642 216 393 c 0
 216 142 385.816 -17 696 -17 c 0
 829.988 -17 1065 54 1065 171 c 0
 1065 209 1037 232 1000 232 c 0
 984 232 969 226 955 214 c 0
 889.026 152.188 828.55 97 701 97 c 0
 483.751 97 361 195.813 361 382 c 1
913 516 m 0
 913 495 887 488 862 487 c 2
 359 478 l 1
 373.4 613.041 493.271 700 683 700 c 0
 798.603 700 913 649.631 913 516 c 0
EndSplineSet
EndChar

StartChar: ecaron
Encoding: 283 283 182
Width: 1240
VWidth: 0
Flags: W
PickledData: "(dp1
S'com.typemytype.robofont.layerData'
p2
(dp3
s."
LayerCount: 2
Fore
SplineSet
459 920 m 0
 472 920 486 923 491 931 c 2
 675 1214 l 1
 680 1219 682 1226 682 1231 c 0
 682 1247 663 1261 645 1261 c 0
 637 1261 627 1260 622 1252 c 2
 459 1043 l 1
 297 1252 l 2
 292 1260 282 1261 274 1261 c 0
 256 1261 237 1247 237 1231 c 0
 237 1226 239 1219 244 1214 c 1
 428 931 l 2
 433 923 446 920 459 920 c 0
361 382 m 1
 952 396 l 1
 1017 403 1064 405 1064 473 c 0
 1064 673 894.468 811 680 811 c 0
 371.975 811 216 642 216 393 c 0
 216 142 385.816 -17 696 -17 c 0
 829.988 -17 1065 54 1065 171 c 0
 1065 209 1037 232 1000 232 c 0
 984 232 969 226 955 214 c 0
 889.026 152.188 828.55 97 701 97 c 0
 483.751 97 361 195.813 361 382 c 1
913 516 m 0
 913 495 887 488 862 487 c 2
 359 478 l 1
 373.4 613.041 493.271 700 683 700 c 0
 798.603 700 913 649.631 913 516 c 0
EndSplineSet
EndChar

StartChar: ecircumflex
Encoding: 234 234 183
Width: 1240
VWidth: 0
Flags: W
PickledData: "(dp1
S'com.typemytype.robofont.layerData'
p2
(dp3
s."
LayerCount: 2
Fore
SplineSet
454 1261 m 0
 441 1261 428 1257 423 1249 c 2
 239 966 l 1
 234 961 232 954 232 949 c 0
 232 933 251 920 269 920 c 0
 277 920 287 921 292 929 c 2
 454 1138 l 1
 617 929 l 2
 622 921 632 920 640 920 c 0
 658 920 677 933 677 949 c 0
 677 954 675 961 670 966 c 1
 486 1249 l 2
 481 1257 467 1261 454 1261 c 0
361 382 m 1
 952 396 l 1
 1017 403 1064 405 1064 473 c 0
 1064 673 894.468 811 680 811 c 0
 371.975 811 216 642 216 393 c 0
 216 142 385.816 -17 696 -17 c 0
 829.988 -17 1065 54 1065 171 c 0
 1065 209 1037 232 1000 232 c 0
 984 232 969 226 955 214 c 0
 889.026 152.188 828.55 97 701 97 c 0
 483.751 97 361 195.813 361 382 c 1
913 516 m 0
 913 495 887 488 862 487 c 2
 359 478 l 1
 373.4 613.041 493.271 700 683 700 c 0
 798.603 700 913 649.631 913 516 c 0
EndSplineSet
EndChar

StartChar: edieresis
Encoding: 235 235 184
Width: 1240
VWidth: 0
Flags: W
PickledData: "(dp1
S'com.typemytype.robofont.layerData'
p2
(dp3
s."
LayerCount: 2
Fore
SplineSet
293 919 m 0
 343 919 384 960 384 1010 c 0
 384 1060 343 1101 293 1101 c 0
 243 1101 202 1060 202 1010 c 0
 202 960 243 919 293 919 c 0
628 919 m 0
 678 919 719 960 719 1010 c 0
 719 1060 678 1101 628 1101 c 0
 578 1101 538 1060 538 1010 c 0
 538 960 578 919 628 919 c 0
361 382 m 1
 952 396 l 1
 1017 403 1064 405 1064 473 c 0
 1064 673 894.468 811 680 811 c 0
 371.975 811 216 642 216 393 c 0
 216 142 385.816 -17 696 -17 c 0
 829.988 -17 1065 54 1065 171 c 0
 1065 209 1037 232 1000 232 c 0
 984 232 969 226 955 214 c 0
 889.026 152.188 828.55 97 701 97 c 0
 483.751 97 361 195.813 361 382 c 1
913 516 m 0
 913 495 887 488 862 487 c 2
 359 478 l 1
 373.4 613.041 493.271 700 683 700 c 0
 798.603 700 913 649.631 913 516 c 0
EndSplineSet
EndChar

StartChar: edotaccent
Encoding: 279 279 185
Width: 1240
VWidth: 0
Flags: W
PickledData: "(dp1
S'com.typemytype.robofont.layerData'
p2
(dp3
s."
LayerCount: 2
Fore
SplineSet
539 1002 m 0
 539 1053 501 1101 438 1101 c 0
 367 1101 334 1052 334 1002 c 0
 334 949 371 895 437 895 c 0
 498 895 539 949 539 1002 c 0
361 382 m 1
 952 396 l 1
 1017 403 1064 405 1064 473 c 0
 1064 673 894.468 811 680 811 c 0
 371.975 811 216 642 216 393 c 0
 216 142 385.816 -17 696 -17 c 0
 829.988 -17 1065 54 1065 171 c 0
 1065 209 1037 232 1000 232 c 0
 984 232 969 226 955 214 c 0
 889.026 152.188 828.55 97 701 97 c 0
 483.751 97 361 195.813 361 382 c 1
913 516 m 0
 913 495 887 488 862 487 c 2
 359 478 l 1
 373.4 613.041 493.271 700 683 700 c 0
 798.603 700 913 649.631 913 516 c 0
EndSplineSet
EndChar

StartChar: egrave
Encoding: 232 232 186
Width: 1240
VWidth: 0
Flags: W
PickledData: "(dp1
S'com.typemytype.robofont.layerData'
p2
(dp3
s."
LayerCount: 2
Fore
SplineSet
699 951 m 0
 699 961 697 967 689 972 c 0
 587 1040 474 1128 381 1208 c 0
 373 1215 364 1218 353 1218 c 0
 324 1218 295 1189 295 1161 c 0
 295 1149 302 1138 314 1130 c 0
 421 1063 543 984 654 920 c 1
 657 917 661 916 666 916 c 0
 684 916 699 934 699 951 c 0
361 382 m 1
 952 396 l 1
 1017 403 1064 405 1064 473 c 0
 1064 673 894.468 811 680 811 c 0
 371.975 811 216 642 216 393 c 0
 216 142 385.816 -17 696 -17 c 0
 829.988 -17 1065 54 1065 171 c 0
 1065 209 1037 232 1000 232 c 0
 984 232 969 226 955 214 c 0
 889.026 152.188 828.55 97 701 97 c 0
 483.751 97 361 195.813 361 382 c 1
913 516 m 0
 913 495 887 488 862 487 c 2
 359 478 l 1
 373.4 613.041 493.271 700 683 700 c 0
 798.603 700 913 649.631 913 516 c 0
EndSplineSet
EndChar

StartChar: eight
Encoding: 56 56 187
Width: 1240
VWidth: 0
Flags: W
PickledData: "(dp1
S'com.typemytype.robofont.layerData'
p2
(dp3
s."
LayerCount: 2
Fore
SplineSet
678 1186 m 0
 492 1186 344 1078 344 897 c 0
 344 741 419 670 528 603 c 1
 421 550 318 463 318 302 c 0
 318 81 480 -17 701 -17 c 0
 911 -17 1081 75 1081 285 c 0
 1081 480 946 546 816 615 c 1
 921 668 1032 756 1032 913 c 0
 1032 1093 861 1186 678 1186 c 0
706 99 m 0
 570 99 456 158 456 294 c 0
 456 421 531 497 625 550 c 1
 738 487 941 459 941 285 c 0
 941 161 836 99 706 99 c 0
686 1080 m 0
 802 1080 892 1024 892 905 c 0
 892 783 817 712 720 665 c 1
 624 710 479 769 479 906 c 0
 479 1019 571 1080 686 1080 c 0
EndSplineSet
EndChar

StartChar: ellipsis
Encoding: 8230 8230 188
Width: 1240
VWidth: 0
Flags: W
PickledData: "(dp1
S'com.typemytype.robofont.layerData'
p2
(dp3
s."
LayerCount: 2
Fore
SplineSet
149 -87 m 0
 232 -87 294 -26 294 57 c 0
 294 140 232 201 149 201 c 0
 66 201 5 140 5 57 c 0
 5 -26 66 -87 149 -87 c 0
699 -87 m 0
 782 -87 844 -26 844 57 c 0
 844 140 782 201 699 201 c 0
 616 201 555 140 555 57 c 0
 555 -26 616 -87 699 -87 c 0
1249 -87 m 0
 1332 -87 1394 -26 1394 57 c 0
 1394 140 1332 201 1249 201 c 0
 1166 201 1105 140 1105 57 c 0
 1105 -26 1166 -87 1249 -87 c 0
EndSplineSet
EndChar

StartChar: emacron
Encoding: 275 275 189
Width: 1240
VWidth: 0
Flags: W
PickledData: "(dp1
S'com.typemytype.robofont.layerData'
p2
(dp3
s."
LayerCount: 2
Fore
SplineSet
639 953 m 2
 672 953 690 980 690 1007 c 0
 690 1034 673 1060 640 1060 c 2
 273 1060 l 2
 239 1060 221 1034 221 1007 c 0
 221 980 239 953 277 953 c 2
 639 953 l 2
361 382 m 1
 952 396 l 1
 1017 403 1064 405 1064 473 c 0
 1064 673 894.468 811 680 811 c 0
 371.975 811 216 642 216 393 c 0
 216 142 385.816 -17 696 -17 c 0
 829.988 -17 1065 54 1065 171 c 0
 1065 209 1037 232 1000 232 c 0
 984 232 969 226 955 214 c 0
 889.026 152.188 828.55 97 701 97 c 0
 483.751 97 361 195.813 361 382 c 1
913 516 m 0
 913 495 887 488 862 487 c 2
 359 478 l 1
 373.4 613.041 493.271 700 683 700 c 0
 798.603 700 913 649.631 913 516 c 0
EndSplineSet
EndChar

StartChar: emdash
Encoding: 8212 8212 190
Width: 1240
VWidth: 0
Flags: W
PickledData: "(dp1
S'com.typemytype.robofont.layerData'
p2
(dp3
s."
LayerCount: 2
Fore
SplineSet
1121 533 m 2
 278 533 l 2
 238 533 205 501 205 461 c 0
 205 421 238 389 278 389 c 2
 1121 389 l 2
 1161 389 1194 421 1194 461 c 0
 1194 501 1161 533 1121 533 c 2
EndSplineSet
EndChar

StartChar: endash
Encoding: 8211 8211 191
Width: 1240
VWidth: 0
Flags: W
PickledData: "(dp1
S'com.typemytype.robofont.layerData'
p2
(dp3
s."
LayerCount: 2
Fore
SplineSet
1009 533 m 2
 390 533 l 2
 350 533 317 501 317 461 c 0
 317 421 350 389 390 389 c 2
 1009 389 l 2
 1049 389 1082 421 1082 461 c 0
 1082 501 1049 533 1009 533 c 2
EndSplineSet
EndChar

StartChar: eng
Encoding: 331 331 192
Width: 1240
VWidth: 0
Flags: W
PickledData: "(dp1
S'com.typemytype.robofont.layerData'
p2
(dp3
s."
LayerCount: 2
Fore
SplineSet
759 81 m 2
 759 -81 727 -213 605 -213 c 0
 521 -213 550 -194 538 -164 c 1
 538 -122 515 -97 477 -97 c 0
 424 -97 411 -127 411 -180 c 0
 411 -293 495 -329 598 -329 c 0
 838 -329 897 -124 897 81 c 2
 897 533 l 2
 897 705 790 811 619 811 c 0
 491 811 370 734 324 650 c 1
 309 779 l 1
 309 799 294 811 275 811 c 2
 270 811 l 2
 266 811 268 810 264 810 c 1
 73 755 l 2
 47 747 34 729 34 698 c 0
 34 670 63 643 90 643 c 0
 95 643 98 644 100 645 c 2
 197 669 l 1
 197 120 l 1
 113 120 l 2
 77 120 61 92 61 59 c 0
 61 24 79 0 117 0 c 2
 436 0 l 2
 468 0 486 27 486 57 c 0
 486 91 472 120 437 120 c 2
 337 120 l 1
 337 483 l 2
 337 605 472 695 594 695 c 0
 705 695 759 629 759 520 c 2
 759 81 l 2
EndSplineSet
EndChar

StartChar: eogonek
Encoding: 281 281 193
Width: 1240
VWidth: 0
Flags: W
PickledData: "(dp1
S'com.typemytype.robofont.layerData'
p2
(dp3
s."
LayerCount: 2
Fore
SplineSet
359 -377 m 0
 423 -377 481 -335 481 -300 c 0
 481 -259 387 -277 387 -201 c 0
 387 -136 469 -5 463 -5 c 2
 409 -5 l 1
 293 -101 248 -221 248 -270 c 0
 248 -349 296 -377 359 -377 c 0
361 382 m 1
 952 396 l 1
 1017 403 1064 405 1064 473 c 0
 1064 673 894.468 811 680 811 c 0
 371.975 811 216 642 216 393 c 0
 216 142 385.816 -17 696 -17 c 0
 829.988 -17 1065 54 1065 171 c 0
 1065 209 1037 232 1000 232 c 0
 984 232 969 226 955 214 c 0
 889.026 152.188 828.55 97 701 97 c 0
 483.751 97 361 195.813 361 382 c 1
913 516 m 0
 913 495 887 488 862 487 c 2
 359 478 l 1
 373.4 613.041 493.271 700 683 700 c 0
 798.603 700 913 649.631 913 516 c 0
EndSplineSet
EndChar

StartChar: equal
Encoding: 61 61 194
Width: 1240
VWidth: 0
Flags: W
PickledData: "(dp1
S'com.typemytype.robofont.layerData'
p2
(dp3
s."
LayerCount: 2
Fore
SplineSet
1009 145 m 2
 390 145 l 2
 350 145 317 113 317 73 c 0
 317 33 350 1 390 1 c 2
 1009 1 l 2
 1049 1 1082 33 1082 73 c 0
 1082 113 1049 145 1009 145 c 2
1009 503 m 2
 390 503 l 2
 350 503 317 470 317 430 c 0
 317 390 350 358 390 358 c 2
 1009 358 l 2
 1049 358 1082 390 1082 430 c 0
 1082 470 1049 503 1009 503 c 2
EndSplineSet
EndChar

StartChar: eth
Encoding: 240 240 195
Width: 1240
VWidth: 0
Flags: W
PickledData: "(dp1
S'com.typemytype.robofont.layerData'
p2
(dp3
s."
LayerCount: 2
Fore
SplineSet
456 102 m 0
 287 102 193 224 193 393 c 0
 193 570 293 686 462 686 c 0
 624 686 719 569 719 393 c 0
 719 223 624 102 456 102 c 0
359 1287 m 0
 330 1287 306 1272 306 1244 c 0
 306 1181 409 1117 451 1079 c 1
 358 1004 l 2
 342 992 336 977 336 965 c 0
 336 943 356 925 377 925 c 0
 385 925 392 927 400 932 c 2
 516 1013 l 1
 594 928 657 829 681 713 c 1
 623 766 549 811 455 811 c 0
 208 811 46 645 46 396 c 0
 46 146 207 -15 456 -15 c 0
 750 -15 886 179 886 471 c 0
 886 727 785 931 631 1092 c 1
 733 1162 l 2
 751 1175 759 1193 759 1209 c 0
 759 1238 735 1265 704 1265 c 0
 691 1265 676 1260 660 1248 c 2
 556 1164 l 1
 512 1202 433 1287 359 1287 c 0
EndSplineSet
EndChar

StartChar: exclam
Encoding: 33 33 196
Width: 1240
VWidth: 0
Flags: W
PickledData: "(dp1
S'com.typemytype.robofont.layerData'
p2
(dp3
s."
LayerCount: 2
Fore
SplineSet
793 1084 m 0
 793 1151 756 1188 701 1188 c 0
 647 1188 608 1151 608 1087 c 0
 608 853 659 628 659 380 c 0
 659 357 678 339 701 339 c 0
 724 339 743 357 743 380 c 0
 743 626 793 853 793 1084 c 0
700 -17 m 0
 768 -17 820 36 820 104 c 0
 820 172 768 224 700 224 c 0
 632 224 579 172 579 104 c 0
 579 36 632 -17 700 -17 c 0
EndSplineSet
EndChar

StartChar: exclamdown
Encoding: 161 161 197
Width: 1240
VWidth: 0
Flags: W
PickledData: "(dp1
S'com.typemytype.robofont.layerData'
p2
(dp3
s."
LayerCount: 2
Fore
SplineSet
793 87 m 0
 793 318 743 544 743 790 c 0
 743 813 724 833 701 833 c 0
 678 833 659 813 659 790 c 0
 659 542 608 318 608 84 c 0
 608 20 647 -17 701 -17 c 0
 756 -17 793 20 793 87 c 0
700 1188 m 0
 632 1188 579 1135 579 1067 c 0
 579 999 632 947 700 947 c 0
 768 947 820 999 820 1067 c 0
 820 1135 768 1188 700 1188 c 0
EndSplineSet
EndChar

StartChar: f
Encoding: 102 102 198
Width: 1240
VWidth: 0
Flags: W
PickledData: "(dp1
S'com.typemytype.robofont.layerData'
p2
(dp3
s."
LayerCount: 2
Fore
SplineSet
1006 964 m 0
 1041 964 1065 982 1065 1020 c 2
 1065 1137 l 2
 1065 1169 1038 1188 1008 1188 c 0
 721 1188 553 1079 553 838 c 2
 553 766 l 1
 377 766 l 2
 341 766 325 738 325 705 c 0
 325 670 343 646 381 646 c 2
 553 646 l 1
 553 120 l 1
 352 120 l 2
 316 120 300 92 300 59 c 0
 300 24 318 0 356 0 c 2
 1031 0 l 2
 1063 0 1081 27 1081 57 c 0
 1081 91 1067 120 1032 120 c 2
 693 120 l 1
 692 646 l 1
 978 646 l 2
 1010 646 1029 673 1029 703 c 0
 1029 737 1014 766 979 766 c 2
 693 766 l 1
 693 841 l 2
 693 990 748 1050 944 1063 c 1
 944 1016 l 2
 944 980 973 964 1006 964 c 0
EndSplineSet
EndChar

StartChar: five
Encoding: 53 53 199
Width: 1240
VWidth: 0
Flags: W
PickledData: "(dp1
S'com.typemytype.robofont.layerData'
p2
(dp3
s."
LayerCount: 2
Fore
SplineSet
712 1193 m 0
 712 1219 692 1230 667 1230 c 0
 643 1230 613 1208 596 1169 c 1
 292 1171 l 2
 226 1171 156 1170 156 1111 c 1
 116 510 l 1
 134 502 150 498 165 498 c 0
 237 498 283 579 413 579 c 0
 584 579 641 484 641 365 c 0
 641 183 515 80 368 80 c 0
 272 80 222 140 128 140 c 0
 85 140 60 103 60 61 c 0
 60 -35 195 -53 291 -53 c 0
 562 -53 789 125 789 396 c 0
 789 610 653 731 439 731 c 0
 359 731 274 696 236 648 c 1
 253 967 l 2
 254 988 268 1035 301 1035 c 2
 635 1035 l 2
 690 1035 712 1134 712 1193 c 0
EndSplineSet
EndChar

StartChar: florin
Encoding: 402 402 200
Width: 1240
VWidth: 0
Flags: W
PickledData: "(dp1
S'com.typemytype.robofont.layerData'
p2
(dp3
s."
LayerCount: 2
Fore
SplineSet
246 646 m 1
 247 63 248 55 248 46 c 0
 248 -103 223 -163 143 -176 c 1
 143 -129 l 2
 143 -93 114 -77 81 -77 c 0
 46 -77 23 -95 23 -133 c 2
 23 -251 l 2
 23 -283 50 -301 80 -301 c 0
 276 -301 386 -193 386 48 c 2
 385 646 l 1
 534 646 l 2
 566 646 585 673 585 703 c 0
 585 737 570 766 535 766 c 2
 386 766 l 1
 385 813 l 2
 385 823 384 832 384 841 c 0
 384 990 425 1050 570 1063 c 1
 570 1016 l 2
 570 980 599 964 632 964 c 0
 667 964 691 982 691 1020 c 2
 691 1137 l 2
 691 1169 664 1188 634 1188 c 0
 389 1188 246 1079 246 838 c 2
 246 766 l 1
 120 766 l 2
 84 766 68 738 68 705 c 0
 68 670 86 646 124 646 c 2
 246 646 l 1
EndSplineSet
EndChar

StartChar: foundryicon
Encoding: 65540 -1 201
Width: 1240
VWidth: 0
Flags: W
PickledData: "(dp1
S'com.typemytype.robofont.layerData'
p2
(dp3
s."
LayerCount: 2
Fore
SplineSet
679 256 m 1
 831 118 910 49 918 49 c 0
 932 49 941 58 941 72 c 0
 941 83 921 177 877 357 c 1
 1016 471 1089 531 1098 537 c 0
 1107 543 1112 548 1112 551 c 0
 1112 569 1100 579 1075 579 c 2
 806 579 l 1
 763 811 l 1
 763 822 743 844 730 844 c 0
 705 844 691 816 677 775 c 1
 669 755 642 688 595 574 c 1
 409 588 315 594 314 594 c 0
 296 594 287 588 287 574 c 0
 287 564 292 554 302 546 c 0
 312 537 385 480 524 370 c 1
 443 127 l 2
 440 117 433 106 433 96 c 0
 433 84 441 79 457 79 c 0
 462 79 536 138 679 256 c 1
EndSplineSet
EndChar

StartChar: four
Encoding: 52 52 202
Width: 1240
VWidth: 0
Flags: W
PickledData: "(dp1
S'com.typemytype.robofont.layerData'
p2
(dp3
s."
LayerCount: 2
Fore
SplineSet
581 940 m 1
 581 487 l 1
 218 487 l 1
 581 940 l 1
923 80 m 0
 923 113 909 139 876 139 c 2
 718 139 l 1
 718 384 l 1
 918 384 l 2
 945 384 962 408 962 433 c 0
 962 464 951 487 920 487 c 2
 718 487 l 1
 718 1125 l 2
 718 1153 721 1182 693 1182 c 0
 681 1182 650 1176 643 1167 c 0
 454 938 265 709 79 477 c 1
 70 468 64 452 64 433 c 0
 64 408 80 384 107 384 c 2
 581 384 l 1
 581 139 l 1
 394 139 l 2
 361 139 347 113 347 80 c 0
 347 52 364 23 395 23 c 2
 875 23 l 2
 906 23 923 52 923 80 c 0
EndSplineSet
EndChar

StartChar: fraction
Encoding: 8260 8260 203
Width: 1240
VWidth: 0
Flags: W
PickledData: "(dp1
S'com.typemytype.robofont.layerData'
p2
(dp3
s."
LayerCount: 2
Fore
SplineSet
116 -396 m 0
 140 -396 152 -383 162 -363 c 2
 915 1213 l 2
 918 1220 919 1225 919 1232 c 0
 919 1266 880 1291 849 1291 c 0
 829 1291 815 1282 807 1264 c 2
 50 -316 l 2
 47 -323 44 -329 44 -337 c 0
 44 -370 84 -396 116 -396 c 0
EndSplineSet
EndChar

StartChar: g
Encoding: 103 103 204
Width: 1240
VWidth: 0
Flags: W
PickledData: "(dp1
S'com.typemytype.robofont.layerData'
p2
(dp3
s."
LayerCount: 2
Fore
SplineSet
307 530 m 0
 307 413 360 350 435 306 c 1
 375 290 334 256 334 179 c 0
 334 117 377 60 414 40 c 1
 348 7 309 -47 309 -147 c 0
 309 -306 481 -364 638 -364 c 0
 842 -364 1047 -352 1047 -146 c 0
 1047 80 892 78 678 78 c 0
 494 78 450 125 450 171 c 0
 450 230 510 238 564 238 c 0
 592 238 619 237 641 237 c 0
 862 237 989 345 989 523 c 0
 989 586 965 640 935 681 c 1
 1100 746 l 1
 1228 746 1261 786 1253 835 c 0
 1245 885 1213 894 1179 894 c 0
 1146 894 1089 866 1043 835 c 2
 891 734 l 1
 831 782 746 811 641 811 c 0
 460 811 307 710 307 530 c 0
491 4 m 1
 546 -24 691 -20 725 -20 c 0
 865 -20 924 -31 924 -132 c 0
 924 -246 778 -249 636 -249 c 0
 524 -249 415 -216 415 -122 c 0
 415 -65 452 -11 491 4 c 1
650 718 m 0
 781 718 851 645 851 517 c 0
 851 380 767 333 645 333 c 0
 524 333 437 392 437 514 c 0
 437 647 523 718 650 718 c 0
EndSplineSet
EndChar

StartChar: gbreve
Encoding: 287 287 205
Width: 1240
VWidth: 0
Flags: W
PickledData: "(dp1
S'com.typemytype.robofont.layerData'
p2
(dp3
s."
LayerCount: 2
Fore
SplineSet
259 1148 m 0
 255 1159 246 1162 237 1162 c 0
 219 1162 199 1145 199 1130 c 0
 199 986 300 914 401 914 c 0
 502 914 604 986 604 1130 c 0
 604 1145 584 1162 566 1162 c 0
 557 1162 547 1159 543 1148 c 0
 512 1066 456 1025 401 1025 c 0
 346 1025 290 1066 259 1148 c 0
232 530 m 0
 232 413 289 360 370 306 c 1
 305 290 261 256 261 179 c 0
 261 117 308 80 348 60 c 1
 276 27 234 -27 234 -127 c 0
 234 -286 420.477 -344 590 -344 c 0
 811 -344 1032 -332 1032 -126 c 0
 1032 100 832.754 119 601 119 c 0
 577.286 119 548.302 118 518 118 c 0
 455 118 387 125 387 171 c 0
 387 230 451 238 510 238 c 0
 540.302 238 569.286 237 593 237 c 0
 801.036 237 970 325 970 503 c 0
 970 566 945 626 922 671 c 1
 1099 746 l 1
 1100 746 l 2
 1193 746 1227 779 1227 811 c 0
 1227 857 1186 872 1142 872 c 0
 1106 872 1058 866 1017 825 c 1
 864 734 l 1
 799.219 782 706.366 811 593 811 c 0
 397.149 811 232 710 232 530 c 0
415 20 m 1
 505.127 2 545.684 0 593 0 c 0
 618.634 0 646.831 1 684 1 c 0
 792 1 899 -11 899 -112 c 0
 899 -226 741.896 -229 588 -229 c 0
 466.863 -229 349 -196 349 -102 c 0
 349 -45 386 -9 415 20 c 1
603 718 m 0
 745.097 718 820 645 820 517 c 0
 820 380 729.921 333 597 333 c 0
 466.333 333 373 392 373 514 c 0
 373 647 466.096 718 603 718 c 0
EndSplineSet
EndChar

StartChar: gcircumflex
Encoding: 285 285 206
Width: 1240
VWidth: 0
Flags: W
PickledData: "(dp1
S'com.typemytype.robofont.layerData'
p2
(dp3
s."
LayerCount: 2
Fore
SplineSet
403 1261 m 0
 390 1261 377 1257 372 1249 c 2
 188 966 l 1
 183 961 181 954 181 949 c 0
 181 933 200 920 218 920 c 0
 226 920 236 921 241 929 c 2
 403 1138 l 1
 566 929 l 2
 571 921 581 920 589 920 c 0
 607 920 626 933 626 949 c 0
 626 954 624 961 619 966 c 1
 435 1249 l 2
 430 1257 416 1261 403 1261 c 0
232 530 m 0
 232 413 289 360 370 306 c 1
 305 290 261 256 261 179 c 0
 261 117 308 80 348 60 c 1
 276 27 234 -27 234 -127 c 0
 234 -286 420.477 -344 590 -344 c 0
 811 -344 1032 -332 1032 -126 c 0
 1032 100 832.754 119 601 119 c 0
 577.286 119 548.302 118 518 118 c 0
 455 118 387 125 387 171 c 0
 387 230 451 238 510 238 c 0
 540.302 238 569.286 237 593 237 c 0
 801.036 237 970 325 970 503 c 0
 970 566 945 626 922 671 c 1
 1099 746 l 1
 1100 746 l 2
 1193 746 1227 779 1227 811 c 0
 1227 857 1186 872 1142 872 c 0
 1106 872 1058 866 1017 825 c 1
 864 734 l 1
 799.219 782 706.366 811 593 811 c 0
 397.149 811 232 710 232 530 c 0
415 20 m 1
 505.127 2 545.684 0 593 0 c 0
 618.634 0 646.831 1 684 1 c 0
 792 1 899 -11 899 -112 c 0
 899 -226 741.896 -229 588 -229 c 0
 466.863 -229 349 -196 349 -102 c 0
 349 -45 386 -9 415 20 c 1
603 718 m 0
 745.097 718 820 645 820 517 c 0
 820 380 729.921 333 597 333 c 0
 466.333 333 373 392 373 514 c 0
 373 647 466.096 718 603 718 c 0
EndSplineSet
EndChar

StartChar: gcommaaccent
Encoding: 291 291 207
Width: 1240
VWidth: 0
Flags: W
PickledData: "(dp1
S'com.typemytype.robofont.layerData'
p2
(dp3
s."
LayerCount: 2
Fore
SplineSet
232 530 m 0
 232 413 289 360 370 306 c 1
 305 290 261 256 261 179 c 0
 261 117 308 80 348 60 c 1
 276 27 234 -27 234 -127 c 0
 234 -286 420.477 -344 590 -344 c 0
 811 -344 1032 -332 1032 -126 c 0
 1032 100 832.754 119 601 119 c 0
 577.286 119 548.302 118 518 118 c 0
 455 118 387 125 387 171 c 0
 387 230 451 238 510 238 c 0
 540.302 238 569.286 237 593 237 c 0
 801.036 237 970 325 970 503 c 0
 970 566 945 626 922 671 c 1
 1099 746 l 1
 1100 746 l 2
 1193 746 1227 779 1227 811 c 0
 1227 857 1186 872 1142 872 c 0
 1106 872 1058 866 1017 825 c 1
 864 734 l 1
 799.219 782 706.366 811 593 811 c 0
 397.149 811 232 710 232 530 c 0
415 20 m 1
 505.127 2 545.684 0 593 0 c 0
 618.634 0 646.831 1 684 1 c 0
 792 1 899 -11 899 -112 c 0
 899 -226 741.896 -229 588 -229 c 0
 466.863 -229 349 -196 349 -102 c 0
 349 -45 386 -9 415 20 c 1
603 718 m 0
 745.097 718 820 645 820 517 c 0
 820 380 729.921 333 597 333 c 0
 466.333 333 373 392 373 514 c 0
 373 647 466.096 718 603 718 c 0
153.5 890 m 0
 213.5 890 269.5 926 269.5 996 c 0
 269.5 1066 215.5 1098 141.5 1098 c 1
 141.5 1176 210.5 1221 263.5 1256 c 0
 278.5 1266 284.5 1279 284.5 1291 c 0
 284.5 1315 262.5 1338 233.5 1338 c 0
 223.5 1338 212.5 1335 201.5 1329 c 0
 98.5 1277 13.5 1185 13.5 1041 c 0
 13.5 940 78.5 890 153.5 890 c 0
EndSplineSet
EndChar

StartChar: gdotaccent
Encoding: 289 289 208
Width: 1240
VWidth: 0
Flags: W
PickledData: "(dp1
S'com.typemytype.robofont.layerData'
p2
(dp3
s."
LayerCount: 2
Fore
SplineSet
616 1062 m 0
 616 1113 578 1161 515 1161 c 0
 444 1161 411 1112 411 1062 c 0
 411 1009 448 955 514 955 c 0
 575 955 616 1009 616 1062 c 0
232 530 m 0
 232 413 289 360 370 306 c 1
 305 290 261 256 261 179 c 0
 261 117 308 80 348 60 c 1
 276 27 234 -27 234 -127 c 0
 234 -286 420.477 -344 590 -344 c 0
 811 -344 1032 -332 1032 -126 c 0
 1032 100 832.754 119 601 119 c 0
 577.286 119 548.302 118 518 118 c 0
 455 118 387 125 387 171 c 0
 387 230 451 238 510 238 c 0
 540.302 238 569.286 237 593 237 c 0
 801.036 237 970 325 970 503 c 0
 970 566 945 626 922 671 c 1
 1099 746 l 1
 1100 746 l 2
 1193 746 1227 779 1227 811 c 0
 1227 857 1186 872 1142 872 c 0
 1106 872 1058 866 1017 825 c 1
 864 734 l 1
 799.219 782 706.366 811 593 811 c 0
 397.149 811 232 710 232 530 c 0
415 20 m 1
 505.127 2 545.684 0 593 0 c 0
 618.634 0 646.831 1 684 1 c 0
 792 1 899 -11 899 -112 c 0
 899 -226 741.896 -229 588 -229 c 0
 466.863 -229 349 -196 349 -102 c 0
 349 -45 386 -9 415 20 c 1
603 718 m 0
 745.097 718 820 645 820 517 c 0
 820 380 729.921 333 597 333 c 0
 466.333 333 373 392 373 514 c 0
 373 647 466.096 718 603 718 c 0
EndSplineSet
EndChar

StartChar: germandbls
Encoding: 223 223 209
Width: 1240
VWidth: 0
Flags: W
PickledData: "(dp1
S'com.typemytype.robofont.layerData'
p2
(dp3
s."
LayerCount: 2
Fore
SplineSet
904 320 m 0
 904 193 812 120 711 120 c 0
 669 120 650 92 650 63 c 0
 650 32 672 0 711 0 c 0
 880 0 1063 126 1063 320 c 0
 1063 532 921 632 751 653 c 1
 838 679 913 757 913 881 c 0
 913 1102 753 1188 582 1188 c 0
 411 1188 227 1078 227 675 c 2
 227 120 l 1
 96 120 l 2
 61 120 47 91 47 57 c 0
 47 27 66 0 98 0 c 2
 477 0 l 2
 509 0 528 27 528 57 c 0
 528 91 514 120 479 120 c 2
 387 120 l 1
 387 714 l 2
 387 1019 491 1076 587 1076 c 0
 688 1076 773 1024 773 881 c 0
 773 740 657 680 556 680 c 0
 523 680 507 658 507 636 c 0
 507 614 524 591 556 591 c 0
 739 591 904 559 904 320 c 0
EndSplineSet
EndChar

StartChar: grave
Encoding: 96 96 210
Width: 1240
VWidth: 0
Flags: W
PickledData: "(dp1
S'com.typemytype.robofont.layerData'
p2
(dp3
s."
LayerCount: 2
Fore
SplineSet
410 1010 m 0
 410 1020 408 1026 400 1031 c 0
 298 1099 185 1187 92 1267 c 0
 84 1274 75 1277 64 1277 c 0
 35 1277 6 1248 6 1220 c 0
 6 1208 13 1197 25 1189 c 0
 132 1122 254 1043 365 979 c 1
 368 976 372 975 377 975 c 0
 395 975 410 993 410 1010 c 0
EndSplineSet
EndChar

StartChar: greater
Encoding: 62 62 211
Width: 1240
VWidth: 0
Flags: W
PickledData: "(dp1
S'com.typemytype.robofont.layerData'
p2
(dp3
s."
LayerCount: 2
Fore
SplineSet
134 977 m 2
 121 982 109 984 98 984 c 0
 57 984 31 954 31 922 c 0
 31 895 49 867 93 852 c 2
 917 570 l 1
 93 274 l 2
 51 259 33 228 33 197 c 0
 33 157 64 118 111 118 c 0
 122 118 133 121 146 125 c 2
 1124 488 l 2
 1157 500 1180 515 1180 551 c 0
 1180 587 1160 599 1124 615 c 1
 134 977 l 2
EndSplineSet
EndChar

StartChar: guillemotleft
Encoding: 171 171 212
Width: 1240
VWidth: 0
Flags: W
PickledData: "(dp1
S'com.typemytype.robofont.layerData'
p2
(dp3
s."
LayerCount: 2
Fore
SplineSet
482 186 m 1
 502 177 520 173 535 173 c 0
 570 173 590 194 590 221 c 0
 590 246 572 278 534 301 c 1
 253 513 l 1
 533 727 l 1
 568 747 583 777 583 803 c 0
 583 834 561 860 523 860 c 0
 509 860 491 856 473 847 c 1
 98 572 l 1
 71 555 53 539 53 516 c 0
 53 494 72 478 98 462 c 1
 482 186 l 1
912 186 m 1
 932 177 951 173 966 173 c 0
 1001 173 1020 194 1020 221 c 0
 1020 246 1002 278 964 301 c 1
 684 513 l 1
 963 727 l 1
 998 747 1014 777 1014 803 c 0
 1014 834 991 860 953 860 c 0
 939 860 922 856 904 847 c 1
 528 572 l 1
 501 555 483 539 483 516 c 0
 483 494 502 478 528 462 c 1
 912 186 l 1
EndSplineSet
EndChar

StartChar: guillemotright
Encoding: 187 187 213
Width: 1240
VWidth: 0
Flags: W
PickledData: "(dp1
S'com.typemytype.robofont.layerData'
p2
(dp3
s."
LayerCount: 2
Fore
SplineSet
593 186 m 1
 978 462 l 1
 1004 478 1023 494 1023 516 c 0
 1023 539 1005 555 978 572 c 1
 602 847 l 1
 583 856 567 860 552 860 c 0
 514 860 492 834 492 803 c 0
 492 777 507 747 542 727 c 1
 822 513 l 1
 541 301 l 1
 503 278 486 246 486 221 c 0
 486 194 505 173 540 173 c 0
 555 173 573 177 593 186 c 1
163 186 m 1
 548 462 l 1
 574 478 593 494 593 516 c 0
 593 539 575 555 548 572 c 1
 172 847 l 1
 153 856 137 860 122 860 c 0
 84 860 61 834 61 803 c 0
 61 777 77 747 112 727 c 1
 392 513 l 1
 111 301 l 1
 73 278 55 246 55 221 c 0
 55 194 74 173 109 173 c 0
 124 173 143 177 163 186 c 1
EndSplineSet
EndChar

StartChar: guilsinglleft
Encoding: 8249 8249 214
Width: 1240
VWidth: 0
Flags: W
PickledData: "(dp1
S'com.typemytype.robofont.layerData'
p2
(dp3
s."
LayerCount: 2
Fore
SplineSet
687 200 m 2
 698 195 708 195 717 195 c 0
 753 195 775 225 775 257 c 0
 775 282 757 301 724 317 c 2
 268 526 l 1
 724 735 l 1
 757 749 774 773 774 800 c 0
 774 833 748 866 708 866 c 0
 700 866 688 866 678 861 c 2
 91 585 l 2
 62 571 46 552 46 529 c 0
 46 507 62 487 91 475 c 1
 687 200 l 2
EndSplineSet
EndChar

StartChar: guilsinglright
Encoding: 8250 8250 215
Width: 1240
VWidth: 0
Flags: W
PickledData: "(dp1
S'com.typemytype.robofont.layerData'
p2
(dp3
s."
LayerCount: 2
Fore
SplineSet
137 200 m 2
 734 475 l 2
 762 487 779 507 779 529 c 0
 779 552 763 571 734 585 c 2
 147 861 l 2
 136 866 126 866 117 866 c 0
 77 866 51 833 51 800 c 0
 51 773 68 749 100 735 c 2
 557 526 l 1
 100 317 l 2
 67 301 49 282 49 257 c 0
 49 225 71 195 107 195 c 0
 116 195 127 195 137 200 c 2
EndSplineSet
EndChar

StartChar: h
Encoding: 104 104 216
Width: 1240
VWidth: 0
Flags: W
PickledData: "(dp1
S'com.typemytype.robofont.layerData'
p2
(dp3
s."
LayerCount: 2
Fore
SplineSet
724 695 m 0
 847 695 898 629 898 520 c 2
 898 120 l 1
 808 120 l 2
 772 120 760 91 760 57 c 0
 760 21 773 0 812 0 c 2
 1146 0 l 2
 1175 0 1190 32 1190 59 c 0
 1190 93 1184 120 1148 120 c 2
 1036 120 l 1
 1036 533 l 2
 1036 705 932 811 750 811 c 0
 624 811 526 750 467 686 c 1
 467 1154 l 2
 467 1174 450 1188 431 1188 c 0
 426 1188 423 1187 421 1186 c 2
 195 1133 l 1
 165 1124 142 1117 142 1078 c 0
 142 1050 167 1019 196 1019 c 0
 200 1019 199 1021 203 1021 c 2
 327 1041 l 1
 327 120 l 1
 239 120 l 2
 203 120 192 91 192 57 c 0
 192 21 204 0 243 0 c 2
 561 0 l 2
 590 0 604 32 604 59 c 0
 604 93 599 120 563 120 c 2
 467 120 l 1
 467 546 l 1
 519 621 607 695 724 695 c 0
EndSplineSet
EndChar

StartChar: hbar
Encoding: 295 295 217
Width: 1240
VWidth: 0
Flags: W
PickledData: "(dp1
S'com.typemytype.robofont.layerData'
p2
(dp3
s."
LayerCount: 2
Fore
SplineSet
346 982 m 1
 346 1111 l 1
 346 1119 l 2
 346 1145 330 1171 297 1171 c 2
 124 1171 l 2
 89 1171 71 1145 71 1119 c 0
 71 1092 90 1065 128 1065 c 2
 206 1065 l 1
 206 982 l 1
 124 982 l 2
 89 982 71 956 71 930 c 0
 71 903 90 876 128 876 c 2
 206 876 l 1
 206 120 l 1
 118 120 l 2
 82 120 71 91 71 57 c 0
 71 21 84 0 123 0 c 2
 457 0 l 2
 486 0 500 32 500 59 c 0
 500 93 494 120 458 120 c 2
 346 120 l 1
 346 546 l 1
 392 621 476 695 580 695 c 0
 691 695 745 629 745 520 c 2
 745 120 l 1
 656 120 l 2
 620 120 608 91 608 57 c 0
 608 21 621 0 660 0 c 2
 994 0 l 2
 1023 0 1037 32 1037 59 c 0
 1037 93 1031 120 995 120 c 2
 884 120 l 1
 884 533 l 2
 884 705 776 811 605 811 c 0
 492 811 399 750 346 686 c 1
 346 876 l 1
 561 876 l 2
 594 876 611 903 611 930 c 0
 611 956 595 982 562 982 c 2
 346 982 l 1
EndSplineSet
EndChar

StartChar: hcircumflex
Encoding: 293 293 218
Width: 1240
VWidth: 0
Flags: W
PickledData: "(dp1
S'com.typemytype.robofont.layerData'
p2
(dp3
s."
LayerCount: 2
Fore
SplineSet
538 1261 m 0
 525 1261 512 1257 507 1249 c 2
 323 966 l 1
 318 961 316 954 316 949 c 0
 316 933 335 920 353 920 c 0
 361 920 371 921 376 929 c 2
 538 1138 l 1
 701 929 l 2
 706 921 716 920 724 920 c 0
 742 920 761 933 761 949 c 0
 761 954 759 961 754 966 c 1
 570 1249 l 2
 565 1257 551 1261 538 1261 c 0
664 695 m 0
 787.036 695 848 629 848 520 c 2
 848 120 l 1
 758 120 l 2
 722 120 710 91 710 57 c 0
 710 21 723 0 762 0 c 2
 1096 0 l 2
 1125 0 1140 32 1140 59 c 0
 1140 93 1134 120 1098 120 c 2
 986 120 l 1
 986 533 l 2
 986 705 872.072 811 690 811 c 0
 563.911 811 460.139 750 401 686 c 1
 401 1154 l 2
 401 1174 384 1188 365 1188 c 0
 360 1188 357 1187 355 1186 c 2
 92 1111 l 2
 62 1102 39 1095 39 1056 c 0
 39 1028 64 997 93 997 c 0
 97 997 96 999 100 999 c 1
 261 1041 l 1
 261 120 l 1
 173 120 l 2
 137 120 126 91 126 57 c 0
 126 21 138 0 177 0 c 2
 511 0 l 2
 540 0 554 32 554 59 c 0
 554 93 549 120 513 120 c 2
 401 120 l 1
 401 546 l 1
 452.923 621 546.609 695 664 695 c 0
EndSplineSet
EndChar

StartChar: hungarumlaut
Encoding: 733 733 219
Width: 1240
VWidth: 0
Flags: W
PickledData: "(dp1
S'com.typemytype.robofont.layerData'
p2
(dp3
s."
LayerCount: 2
Fore
SplineSet
353 1277 m 0
 342 1277 333 1274 325 1267 c 0
 232 1187 120 1099 18 1031 c 0
 10 1026 6 1020 6 1010 c 0
 6 993 22 975 40 975 c 0
 43 975 48 976 53 979 c 0
 164 1043 285 1121 393 1189 c 0
 405 1197 410 1208 410 1220 c 0
 410 1248 382 1277 353 1277 c 0
609 1277 m 0
 598 1277 589 1274 581 1267 c 0
 488 1187 376 1099 274 1031 c 0
 266 1026 262 1020 262 1010 c 0
 262 993 278 975 296 975 c 0
 299 975 304 976 309 979 c 0
 420 1043 540 1121 648 1189 c 0
 660 1197 667 1208 667 1220 c 0
 667 1248 638 1277 609 1277 c 0
EndSplineSet
EndChar

StartChar: hyphen
Encoding: 45 45 220
Width: 1240
VWidth: 0
Flags: W
PickledData: "(dp1
S'com.typemytype.robofont.layerData'
p2
(dp3
s."
LayerCount: 2
Fore
SplineSet
376 488 m 0
 376 449 407 418 446 418 c 2
 953 418 l 2
 992 418 1022 449 1022 488 c 0
 1022 526 991 558 953 558 c 2
 446 558 l 2
 408 558 376 526 376 488 c 0
EndSplineSet
EndChar

